<?xml version="1.0" encoding="UTF-8"?>
<svg version="1.1" xmlns="http://www.w3.org/2000/svg" width="48" height="48">
<path d="M0 0 C1.32 0 2.64 0 4 0 C5.484375 1.75 5.484375 1.75 6.75 4 C7.17796875 4.7425 7.6059375 5.485 8.046875 6.25 C8.36140625 6.8275 8.6759375 7.405 9 8 C9.66 7.01 10.32 6.02 11 5 C14.38257277 5.28576908 15.67862943 5.6413049 17.984375 8.21484375 C18.56703125 9.11332031 19.1496875 10.01179687 19.75 10.9375 C20.34296875 11.83339844 20.9359375 12.72929687 21.546875 13.65234375 C23 16 23 16 24 18 C24.99 18.33 25.98 18.66 27 19 C27.72584752 25.67779719 25.5625069 30.38635276 22 36 C16.85795805 41.27735885 11.26262532 43.17452313 4.0625 43.4375 C-3.03112383 43.24242534 -7.34035373 41.17607422 -12.75 36.75 C-17.36568718 31.10860456 -19.60994202 26.31930428 -19 19 C-18.071875 19.103125 -17.14375 19.20625 -16.1875 19.3125 C-14.6096875 19.1578125 -14.6096875 19.1578125 -13 19 C-11.0645852 16.60943058 -11.0645852 16.60943058 -10 14 C-12.64 14 -15.28 14 -18 14 C-17.67 11.69 -17.34 9.38 -17 7 C-12.545 6.505 -12.545 6.505 -8 6 C-7.67 6.99 -7.34 7.98 -7 9 C-6.34 9 -5.68 9 -5 9 C-4.731875 8.2575 -4.46375 7.515 -4.1875 6.75 C-3.02940141 4.06808747 -2.02510014 2.10298861 0 0 Z " fill="#8797FD" transform="translate(20,5)"/>
<path d="M0 0 C1.32 0 2.64 0 4 0 C5.484375 1.75 5.484375 1.75 6.75 4 C7.17796875 4.7425 7.6059375 5.485 8.046875 6.25 C8.36140625 6.8275 8.6759375 7.405 9 8 C9.66 7.01 10.32 6.02 11 5 C14.33126085 5.29292121 15.674468 5.64819475 17.984375 8.14453125 C18.56703125 9.02496094 19.1496875 9.90539063 19.75 10.8125 C20.34296875 11.68519531 20.9359375 12.55789062 21.546875 13.45703125 C22.83719226 15.71508645 23.55030307 17.46157918 24 20 C19.78866447 21.02361309 15.83810136 21.11489283 11.51171875 21.09765625 C10.80852005 21.0962413 10.10532135 21.09482635 9.3808136 21.09336853 C7.14966456 21.08780109 4.91861836 21.07525475 2.6875 21.0625 C1.16862125 21.05748079 -0.35025909 21.05291862 -1.86914062 21.04882812 C-5.57946012 21.03784236 -9.28972001 21.02060034 -13 21 C-11.125 16.25 -11.125 16.25 -10 14 C-12.64 14 -15.28 14 -18 14 C-17.67 11.69 -17.34 9.38 -17 7 C-12.545 6.505 -12.545 6.505 -8 6 C-7.67 6.99 -7.34 7.98 -7 9 C-6.34 9 -5.68 9 -5 9 C-4.731875 8.2575 -4.46375 7.515 -4.1875 6.75 C-3.02940141 4.06808747 -2.02510014 2.10298861 0 0 Z " fill="#5DBC4C" transform="translate(20,5)"/>
<path d="M0 0 C0.99 0 1.98 0 3 0 C3.72584752 6.67779719 1.5625069 11.38635276 -2 17 C-7.14204195 22.27735885 -12.73737468 24.17452313 -19.9375 24.4375 C-27.04878603 24.24193963 -31.93219377 22.20487461 -37 17.25 C-37.66 16.5075 -38.32 15.765 -39 15 C-36 15 -36 15 -33.2578125 16.48046875 C-29.5192857 18.22421806 -26.97751917 18.37009476 -22.875 18.3125 C-21.67617188 18.30863281 -20.47734375 18.30476563 -19.2421875 18.30078125 C-16.15458926 18.01434141 -14.65716284 17.43121861 -12 16 C-10.68 16 -9.36 16 -8 16 C-7.88527344 15.4225 -7.77054688 14.845 -7.65234375 14.25 C-6.94620279 11.81444795 -5.95332094 10.11305733 -4.5625 8 C-2.85846962 5.39563118 -1.34726335 2.80732083 0 0 Z " fill="#7E8CF1" transform="translate(44,24)"/>
<path d="M0 0 C3.33126085 0.29292121 4.674468 0.64819475 6.984375 3.14453125 C7.56703125 4.02496094 8.1496875 4.90539062 8.75 5.8125 C9.34296875 6.68519531 9.9359375 7.55789062 10.546875 8.45703125 C11.83719226 10.71508645 12.55030307 12.46157918 13 15 C11.35 15.33 9.7 15.66 8 16 C7.60167969 15.50628906 7.20335937 15.01257812 6.79296875 14.50390625 C6.26316406 13.86324219 5.73335937 13.22257812 5.1875 12.5625 C4.66542969 11.92441406 4.14335938 11.28632813 3.60546875 10.62890625 C1.99165589 8.7451725 1.99165589 8.7451725 -1 8 C-1.8125 6.1875 -1.8125 6.1875 -2 4 C-1.0625 1.75 -1.0625 1.75 0 0 Z " fill="#5FBF4F" transform="translate(31,10)"/>
<path d="M0 0 C1.875 1.125 1.875 1.125 3 3 C3.39365568 6.14924548 3.52854531 8.11909116 1.875 10.875 C-0.88090884 12.52854531 -2.85075452 12.39365568 -6 12 C-7.875 10.875 -7.875 10.875 -9 9 C-9.39365568 5.85075452 -9.52854531 3.88090884 -7.875 1.125 C-5.11909116 -0.52854531 -3.14924548 -0.39365568 0 0 Z " fill="#FFCD3C" transform="translate(45,0)"/>
<path d="M0 0 C0.33 0.99 0.66 1.98 1 3 C1.66 3 2.32 3 3 3 C2.67 4.65 2.34 6.3 2 8 C-1.96 8 -5.92 8 -10 8 C-9.67 5.69 -9.34 3.38 -9 1 C-5.92677456 0.08941469 -3.19902639 -0.08886184 0 0 Z " fill="#DFF3F9" transform="translate(12,11)"/>
<path d="M0 0 C1.32 0 2.64 0 4 0 C5.75 2 5.75 2 7 4 C6.34 5.32 5.68 6.64 5 8 C3.02 8 1.04 8 -1 8 C-1.66 6.68 -2.32 5.36 -3 4 C-1.75 2 -1.75 2 0 0 Z " fill="#EAF9F5" transform="translate(20,5)"/>
<path d="M0 0 C2.375 0.1875 2.375 0.1875 5 1 C6.375 3.4375 6.375 3.4375 7 6 C6.67 6.66 6.34 7.32 6 8 C3.69 7.67 1.38 7.34 -1 7 C-2 4 -2 4 -1.0625 1.8125 C-0.5365625 0.9153125 -0.5365625 0.9153125 0 0 Z " fill="#D5EBEE" transform="translate(31,10)"/>
<path d="M0 0 C1.49080078 0.16628906 1.49080078 0.16628906 3.01171875 0.3359375 C3.77097656 0.43132813 4.53023437 0.52671875 5.3125 0.625 C5.3125 1.945 5.3125 3.265 5.3125 4.625 C4.508125 4.439375 3.70375 4.25375 2.875 4.0625 C2.029375 3.918125 1.18375 3.77375 0.3125 3.625 C-0.0175 3.955 -0.3475 4.285 -0.6875 4.625 C-3.625 4.875 -3.625 4.875 -6.6875 4.625 C-7.3475 3.635 -8.0075 2.645 -8.6875 1.625 C-5.1388865 -0.74074234 -4.1110475 -0.48365265 0 0 Z " fill="#B1DEFB" transform="translate(16.6875,30.375)"/>
<path d="M0 0 C0.33 0.66 0.66 1.32 1 2 C-1.31 2.33 -3.62 2.66 -6 3 C-6.66 4.65 -7.32 6.3 -8 8 C-8.66 8 -9.32 8 -10 8 C-9.67 5.69 -9.34 3.38 -9 1 C-5.92677456 0.08941469 -3.19902639 -0.08886184 0 0 Z " fill="#F1FAFF" transform="translate(12,11)"/>
<path d="M0 0 C2.97 0 5.94 0 9 0 C9 0.99 9 1.98 9 3 C8.01 3 7.02 3 6 3 C6 3.99 6 4.98 6 6 C5.01 6 4.02 6 3 6 C3 5.01 3 4.02 3 3 C2.01 3 1.02 3 0 3 C0 2.01 0 1.02 0 0 Z " fill="#40537A" transform="translate(6,0)"/>
<path d="M0 0 C1.51400391 0.01740234 1.51400391 0.01740234 3.05859375 0.03515625 C4.07050781 0.04417969 5.08242188 0.05320313 6.125 0.0625 C7.29869141 0.07990234 7.29869141 0.07990234 8.49609375 0.09765625 C8.49609375 1.08765625 8.49609375 2.07765625 8.49609375 3.09765625 C5.19609375 3.42765625 1.89609375 3.75765625 -1.50390625 4.09765625 C-2.16390625 3.10765625 -2.82390625 2.11765625 -3.50390625 1.09765625 C-2.50390625 0.09765625 -2.50390625 0.09765625 0 0 Z " fill="#B0DEFB" transform="translate(26.50390625,36.90234375)"/>
<path d="M0 0 C1.32 0.66 2.64 1.32 4 2 C3.34 3.32 2.68 4.64 2 6 C0.35 5.67 -1.3 5.34 -3 5 C-1.125 1.125 -1.125 1.125 0 0 Z " fill="#DCF1F2" transform="translate(23,7)"/>
<path d="M0 0 C1.32 0.33 2.64 0.66 4 1 C3.01 2.485 3.01 2.485 2 4 C2.33 4.66 2.66 5.32 3 6 C1.02 6.33 -0.96 6.66 -3 7 C-1.125 2.25 -1.125 2.25 0 0 Z " fill="#6BC265" transform="translate(10,19)"/>
<path d="M0 0 C2.31 0 4.62 0 7 0 C6.34 1.65 5.68 3.3 5 5 C4.01 5 3.02 5 2 5 C1.34 3.35 0.68 1.7 0 0 Z " fill="#435278" transform="translate(1,4)"/>
</svg>
