<?xml version="1.0" encoding="utf-8"?>
<!-- Generator: Adobe Illustrator 19.2.1, SVG Export Plug-In . SVG Version: 6.00 Build 0)  -->
<svg version="1.1" id="layer" xmlns="http://www.w3.org/2000/svg" xmlns:xlink="http://www.w3.org/1999/xlink" x="0px" y="0px"
	 viewBox="0 0 652 652" style="enable-background:new 0 0 652 652;" xml:space="preserve">
<style type="text/css">
	.st0{fill:#7AC143;}
	.st1{fill-rule:evenodd;clip-rule:evenodd;fill:#7AC143;}
	.st2{fill:#B4A8A2;}
	.st3{fill:#F4CFB2;}
	.st4{fill:#FFFFFF;}
	.st5{fill:#D1C4C5;}
	.st6{fill:#DD1E35;}
</style>
<path class="st0" d="M469.6,550.7c0-3,2.5-5.5,5.5-5.5c3,0,5.5,2.5,5.5,5.5c0,3.1-2.4,5.5-5.5,5.5
	C472,556.2,469.6,553.7,469.6,550.7 M479.7,550.7c0-2.7-1.9-4.8-4.6-4.8c-2.7,0-4.6,2.1-4.6,4.8c0,2.7,2,4.8,4.6,4.8
	C477.7,555.5,479.7,553.4,479.7,550.7 M477.8,553.7h-0.9l-1.8-2.8h-1.4v2.8H473v-6.1h2.7c1.6,0,2.2,0.6,2.2,1.6
	c0,1.2-0.8,1.7-1.9,1.7L477.8,553.7z M474.9,550.3c0.9,0,2.1,0.2,2.1-1.1c0-1-0.8-1.1-1.5-1.1h-1.8v2.2H474.9z"/>
<path class="st1" d="M190.4,541c0.1,0.2,0.4,0.1,0.5,0.2c-0.1,0.4-0.1,0.8-0.3,1.1c0,0.2,0.1,0.3,0.2,0.3c-0.1,0.2-0.3,0.2-0.4,0.4
	c0,0.6-0.2,1-0.2,1.6c0,0.2-0.2,0.2-0.2,0.5c0,0.2,0.1,0.3,0.1,0.5c0,0.3-0.2,0.4-0.3,0.7c0,0.5,0,0.9-0.1,1.3
	c0,0.3-0.3,0.3-0.3,0.5c0.3,1.3-0.5,2.4-0.2,3.8c0.1,0.2-0.1,0.3-0.1,0.5c0.1,0.4,0.3,0.6,0.6,0.7c0.2,0,0.4-0.2,0.6-0.2
	c0.2-0.3,0.4-0.7,0.6-0.9c0.1-0.1,0.3,0.1,0.5-0.1c0.2-0.1,0.3-0.4,0.4-0.6c0.2,0,0.3-0.1,0.4-0.2c0.3,0,0.4,0.1,0.7,0.1
	c0.4-0.2,0.5-0.8,1.1-0.9c0.3,0,0.5,0.2,0.8,0.2c0.4,0.1,0.6-0.2,0.9-0.1c0.3-0.1,0.4-0.3,0.8-0.3c0,0.3-0.3,0.3-0.2,0.7
	c0.3,0.2,0.5-0.1,0.7-0.1c0.4,0.2,0.7,0.4,1,0.7c0.1,0.5-0.3,0.5-0.3,0.9c0,0.2,0.4-0.1,0.3,0.1c0.3,0-0.2,0.3-0.2,0.4
	c0,0.2,0.2,0.2,0.3,0.3c-0.2,0.2,0.1,0.5,0,0.8c-0.1,0.2-0.4,0.2-0.5,0.4c0,0.3,0.2,0.4,0.3,0.5c0,0.3,0.1,0.6,0.3,0.8
	c0,0.2-0.2,0.4-0.3,0.5c0,0.3,0.3,0.2,0.3,0.5c-0.2,0.5-0.7,0.6-0.9,1.1c0,0.3,0.2,0.3,0.5,0.3c-0.1,0.3-0.4,0.3-0.5,0.6
	c0,0.6,0.2,1-0.2,1.3c0,0.3,0.4,0.1,0.4,0.5c-0.2,0.1-0.4,0.2-0.7,0.3c-0.1,0.4-0.1,1.1,0.3,1.2c0.4,0,0.1-0.4,0.1-0.6
	c0.6,0.2-0.1,0.8-0.2,1.1c-0.1,0.7,0.3,0.9,0.3,1.5c0,0.4-0.5,0.3-0.6,0.5c0.1,0.2,0.3,0.3,0.5,0.5c-0.1,0.3-0.4,0.5-0.5,0.8
	c0,0.4,0.2,0.7,0.3,1c-0.1,0.3-0.3,0.5-0.3,0.8c-0.8,0.4-1.5-0.2-2.5-0.1c-0.9-1-0.3-3.1-0.5-4.6c0.4-2.5,0.3-5.5,0.9-7.8
	c-0.1-0.4-0.4-0.7-0.7-1c-0.6,0-1.1,0.1-1.5,0.3c-0.2,0.2-0.3,0.5-0.5,0.6h-0.5c-0.5,0.2-0.7,0.7-0.9,1.1c-0.2,0.2-0.4,0.4-0.7,0.5
	c-0.2,0.6-0.6,1-0.9,1.4c0,0.9-0.5,1.2-0.9,1.7c0,0.2,0.2,0.2,0.1,0.5c0,0.3-0.2,0.3-0.2,0.5c0,0.2,0.2,0.2,0.1,0.4
	c-0.2,0.2-0.3,0.4-0.4,0.7c-0.1,0.3,0.1,0.4,0.1,0.6c0.1,0.3-0.2,0.3-0.2,0.6c0,0.5,0.4,0.6,0.4,1.1c0,0.2-0.2,0.1-0.3,0.2
	c0,0.1-0.2,0.1-0.2,0.3c-0.1,0.6,0.3,0.7,0.3,1.1c0,0.3-0.3,0.2-0.4,0.3c-0.1,0.2-0.2,0.3-0.3,0.5c0.1,0.2,0.4,0.3,0.4,0.5
	c-0.2,0.5-0.7,0.7-0.9,1.1c-0.2-0.2-0.5-0.4-0.7-0.5c-0.4-0.1-0.3,0.2-0.7,0.1c-0.4-0.3-0.2-1.3-0.3-2c0-0.3-0.1-0.5-0.2-0.7
	c0.3-1.9,0.3-4,0.5-5.8c0.1-0.7,0-1.5,0-2.2c0.1-0.9,0.4-2,0.5-3c0.1-0.5,0.1-1.2,0.2-1.8c0.1-0.8,0.3-1.6,0.3-2.4
	c0.2-3.2,0.3-6.6,1.1-9.6c0-0.4,0-0.8,0.1-1.1c0.4-0.1,0.7-0.2,1.1-0.2c0.5,0.1,0.7,0.3,1.1,0.5c0.1,0.3,0.3,0.6,0.5,0.9
	C190.5,540.7,190.4,540.8,190.4,541"/>
<path class="st1" d="M303.7,539.2c0.1,0.2,0.1,0.6,0,0.7c0,0.3,0.2,0.5,0.3,0.8c0,0.3-0.3,0.3-0.3,0.5c0.2,0.4,0.2,1-0.1,1.2
	c0.1,0.2,0.3,0.4,0.2,0.8c-0.2,0.1-0.3-0.1-0.4,0c-0.2,0.4,0.1,0.8,0.1,1.3c0,0.3-0.2,0.4-0.2,0.6c0.1,0.1,0.1,0.3,0.2,0.3
	c0.3,0.2,0.2-0.4,0.5-0.4c0.1,0.2,0.1,0.3,0,0.5c-0.2,0.1-0.5,0.1-0.6,0.3c0,0.4,0.2,0.6,0.6,0.5c0.1,0.1-0.1,0.2-0.1,0.4
	c0,0.2,0.2,0.2,0.1,0.5c0,0.3-0.3,0.4-0.3,0.7c-0.3,0.1-0.7,0-0.7,0.3c0,0.5,0.4,0.6,0.4,1.1h-0.4c-0.6,0.5,0.1,1.2,0.1,1.8
	c0,0.4-0.4,0.7-0.2,1.1c-0.1,0.1-0.4,0-0.5,0.1c0.2,0.5,0.8,0.6,1,1.1c-0.2,0.1-0.4,0.3-0.6,0.4c0,0.2,0.3,0.2,0.2,0.5
	c-0.3,0.1-0.2,0.7-0.5,0.9c-0.1,0.2,0.2,0.1,0.1,0.3c-0.1,0.3-0.3,0.5-0.3,0.8c0.1,0.3,0.3,0.4,0.4,0.7v0.6
	c-0.1,0.2-0.3,0.2-0.4,0.4c0,0.3,0.2,0.3,0.3,0.5c0,0.3-0.1,0.5-0.2,0.7c-0.3-0.1-0.1-0.6-0.4-0.5c-0.2,0-0.1,0.4-0.1,0.5
	c0.2,0.4,0.7,0.6,0.7,1.1c-0.1,0.3-0.5,0.2-0.5,0.5c-0.1,0.3,0.3,0.2,0.3,0.4c0.1,0.3-0.3,0.2-0.4,0.3c-0.1,0.3,0.2,0.2,0.2,0.5
	c-0.2,0-0.2-0.2-0.5-0.1c-0.2,0.1-0.2,0.2-0.3,0.4c-0.1,0.3,0.2,0.3,0.3,0.5c0,0.3-0.3,0.3-0.3,0.6c0.1,0.3,0.4,0.3,0.8,0.3
	c0.1,0.2,0.1,0.7-0.2,0.7c0,0.2,0.1,0.2,0.1,0.4c-0.1,0.1-0.3,0.1-0.4,0.2c0,0.3,0.3,0.4,0.3,0.7c0,0.3-0.3,0.3-0.4,0.4
	c-0.1,0.4-0.2,0.7-0.5,0.9c-0.1,0.3,0.2,0.3,0.1,0.6c-0.1,0.1-0.4,0-0.5,0.1c0,0.3,0.1,0.3,0.3,0.5c0,0.3-0.2,0.3-0.3,0.5
	c0,0.3,0.3,0.3,0.4,0.5c0,0.3,0,0.6-0.1,0.9c0,0.3,0.3,0.3,0.3,0.7c-0.3,0.4-0.8,0.6-1.3,0.8c-0.5,0-1.2,0.1-1.5-0.1
	c-0.1-0.4-0.1-0.7-0.3-1c0-0.9,0.2-2-0.5-2.1c-0.4,0-0.5,0.2-0.8,0.3h-1.4c-2.4-0.4-3.9-1.8-5.3-3.3c-0.1-0.6-0.5-0.9-0.7-1.4v-0.6
	c-0.1-0.3-0.4-0.5-0.5-0.9c0-0.3,0.1-0.3,0.2-0.5c0-3.2,0.9-5.5,2.2-7.3c0.5-0.8,1.1-1.5,1.7-2.2c0.7-0.6,1.3-1.3,2.2-1.7
	c1.3-0.1,2.1,0.4,3.2,0.4c0.2,0,0.2-0.2,0.4-0.3c0.2-2.7,0.3-5.4,0.3-8.3c0.1-0.4,0.2-0.9,0.3-1.3c0-0.8,0.1-1.3,0.4-1.8
	c0.3-0.1,0.5-0.3,0.8-0.4c0.5,0,1.1,0,1.4-0.1c0.1,0.1,0.2,0.1,0.4,0.1C302.9,539.2,303.4,539.1,303.7,539.2 M297.5,552.5
	c-0.4,0.1-0.6,0.5-0.9,0.7c-0.1,0.6-0.5,0.9-0.9,1.1c-0.1,1-0.6,1.7-0.9,2.5c0,0.5-0.1,0.8-0.3,1.1v0.7c-0.2,0.4-0.3,1-0.8,1.1
	c0.2,0.4-0.2,0.7-0.3,1c0,0.2,0.2,0.2,0.1,0.4c-0.2,0.2-0.6,0.2-0.5,0.5c0.2,0.2,0.8-0.1,0.7,0.3c0.1,0.5-0.5,0.3-0.5,0.7
	c0.6,0.4,0.8,1.2,1.1,1.9c0,0.3-0.1,0.3,0,0.6c0.3,0.1,0.5,0.4,0.9,0.5c0.4,0.1,0.6,0.4,0.9,0.5c0.2,0,0.1,0.1,0.3,0.1
	c0.2,0,0.1-0.1,0.3-0.1c0.5-0.3,0.8-0.7,1.1-1.1c0.2-0.2,0.5-0.3,0.6-0.5c0.2-3.7-0.1-7.9,0.2-11.5
	C298.5,552.8,298.1,552.6,297.5,552.5 M302.2,557.9c0-0.1,0.1-0.1,0.1-0.3C302.1,557.6,302.1,557.9,302.2,557.9 M293.3,563.8
	c0.2,0,0.3,0,0.3-0.3h-0.3V563.8z M293.1,564.3h0.2v-0.2h-0.2V564.3z M293.7,565c0.1-0.2,0.1-0.6-0.2-0.5
	C293.4,564.6,293.4,565,293.7,565"/>
<path class="st1" d="M426.3,540.4c0,0.4,0,0.6,0.4,0.5c0,0.4-0.4,0.3-0.4,0.7c0.1,0.2,0.5,0.2,0.5,0.4v0.7c0.2,0.4,0.2,1.1,0.2,1.8
	c-0.1,0.2-0.5,0.2-0.6,0.3c0,0.6,0.5,0.6,0.6,1c0,0.3-0.4,0.2-0.4,0.5c0,0.2,0.1,0.4,0.2,0.5c0.1,0.5,0.1,1.1,0.1,1.7
	c-0.1,0.3-0.4,0.6-0.1,0.9c0.6,0.1,0.9-0.4,1.2-0.7c0.3-0.3,0.7-0.5,1.1-0.7c1.1-0.8,2.4-1.3,3.6-2c0.4-0.2,0.8-0.4,1.1-0.7
	c0.8-0.4,1.4-1,2.4-1.2c0.4-0.3,1-0.3,1.4-0.7c0.1-0.1,0.4-0.3,0.6-0.3c0.4,0.1,0.3,0.7,0.7,0.7c0.4,0.1,0.3-0.4,0.5-0.5
	c0.4,0,0.2,0.5,0.5,0.6c0.3,0.2,0.4-0.4,0.7-0.2c0.2,0.3-0.4,0.7,0,0.9c-0.1,0.2-0.2,0.4-0.3,0.7c-0.3,0.2-0.7,0.3-0.9,0.5
	c-0.2,0-0.1-0.3-0.3-0.3c-0.6,0.1-0.6,0.8-0.9,1.1c-0.2,0-0.3,0-0.4,0.1c-0.2-0.3-0.8-0.5-1.1-0.2c-0.1,0.3,0.1,0.3,0.1,0.5
	c-0.3-0.2-0.6,0-0.7,0.2c-0.3,0-0.3-0.1-0.5-0.1c-0.3,0.2,0,0.5-0.1,0.7c-0.2,0-0.3,0.1-0.5,0.1c-0.2-0.1-0.1-0.6-0.3-0.7
	c-0.4-0.1-0.4,0.3-0.3,0.6c-0.4,0.1-0.6,0.4-0.7,0.9c-0.1,0.1-0.2-0.1-0.4,0c-0.2,0.3-0.6,0.5-0.9,0.8c-0.2,0-0.3-0.1-0.4,0
	c-0.2,0.1-0.3,0.4-0.4,0.6c-0.4,0.1-0.7,0.3-1.1,0.3c-0.2,0.1-0.3,0.3-0.3,0.5c0,0.2,0.2,0.2,0.2,0.3c0.1,0,0.5-0.1,0.4,0.1
	c-0.3,0.2-0.6-0.2-1.1-0.1c-0.2,0-0.2,0.2-0.2,0.5c-0.2,0.2-0.2-0.2-0.4-0.1c-0.4,0.1-0.5,0.7-0.5,1.2c0.1,0.3,0.4,0.3,0.7,0.5
	c0.1,0.1,0.1,0.2,0.1,0.3c0.1,0.2,0.2,0.2,0.3,0.3c0.1,0.3,0.2,0.6,0.5,0.7v0.3c0.2,0.2,0.4,0.4,0.7,0.6c0,0.2,0,0.3-0.1,0.4
	c0.4,0.4,0.7,0.8,1.4,0.9c0.2,0.2,0.1,0.6,0.1,0.9c0.2,0.3,0.6,0.4,1.1,0.4c0.1,0.1,0.1,0.4,0.1,0.5c0.1,0.2,0.3,0.2,0.4,0.4
	c-0.1,0.8,0.3,1.1,0.4,1.7c0.2,0,0.2-0.1,0.4-0.1c0.4,0,0.4,0.4,0.7,0.5c0,0.1-0.2,0-0.3,0.1c0,0.5,0.2,0.7,0.4,1
	c0.2,0,0.2-0.1,0.4-0.1c0,0.4,0.3,0.5,0.3,0.8c0.1,0.4-0.3,0.3-0.2,0.7c0.1,0.5,0.6,0.7,1,1c0,0.7,0.5,0.8,0.9,1.1
	c0.1,0.2,0.1,0.4,0.2,0.6c0.3,0.4,0.7,0.6,1,0.9c-0.1,0.5,0.1,0.7,0.4,0.9c-0.1,0.3-0.3,0.4-0.3,0.7c-0.4,0.1-0.5,0.6-0.8,0.8
	c-0.5,0.2-1,0.3-1.5,0.5c-0.4-0.1-0.6-0.3-0.8-0.6c-0.3-0.2-0.5-0.4-0.6-0.7c-0.4-0.4-0.7-1.1-1.1-1.6c-0.8-1-1.2-2.4-2.2-3.3
	c-0.2-0.5-0.4-0.9-0.7-1.3c-0.2-0.4-0.5-0.8-0.8-1.1c-0.2-0.5-0.5-0.8-0.8-1.1c-0.3-0.4-0.6-0.9-0.9-1.3c-0.1-0.1-0.2-0.1-0.2-0.2
	c-0.1-0.1,0-0.2-0.1-0.3c0-0.1-0.2-0.1-0.2-0.2c-0.3-0.5-0.4-1.2-0.9-1.6c-0.2-0.5-0.6-0.7-0.7-1.2c-0.4-0.3-0.5-0.8-0.9-1.1
	c-0.4,0.1-0.3,0.8-0.3,1.3c-0.3,0.1-0.5,0.2-0.6,0.5c-0.1,0.4,0.2,0.4,0.2,0.7c-0.2,0.1-0.4,0.2-0.5,0.3c0,0.4,0.1,0.6,0.1,0.9
	c-0.1,0.4-0.1,0.7,0.1,0.9c0.3,0.1,0.3-0.3,0.4-0.1c0,0.5-0.4,0.7-0.2,1.2c-0.1,0.3-0.4,0.5-0.5,0.8c0,0.3,0.2,0.4,0.3,0.6
	c0,0.4,0.1,0.7,0.3,0.9c-0.1,0.2-0.3,0.4-0.4,0.7v1.3c0,0.3,0.3,0.2,0.3,0.5c0,0.3,0.2,0.3,0.3,0.5c-0.3,0.6-0.3,1.5-0.3,2.4
	c-0.3,0.1-0.7,0.2-0.9,0.5c-0.5,0-0.8,0.2-1.3,0.1c-0.2,0-0.2-0.2-0.4-0.3c-0.2,0-0.4-0.1-0.6-0.2c-0.3-0.1-0.2,0.2-0.5,0.2
	c-0.1-1-0.1-2.4,0-3.4c0.1-2.1,0.3-4.4,0.6-6.4c0.1-0.8,0.2-1.7,0.3-2.5c0.1-0.5,0.3-0.9,0.3-1.3c0.1-0.7,0.1-1.2,0.2-2
	c0.1-1.1,0.3-2.2,0.5-3.2c0.1-1.5,0.4-3,0.5-4.6c0.1-1.3,0.1-2.7,0.4-3.9c0.2-0.2,0.5-0.2,0.7-0.4c0.1-0.2-0.2-0.3,0-0.5h0.1
	c0.2-0.2,0.4,0,0.6,0.1C425.8,540.4,426,540.4,426.3,540.4"/>
<path class="st1" d="M409.9,540.5c0.4,0.3,0.3,1,0.4,1.6c0.1,0.2,0.3,0.4,0.3,0.6c0,0.4-0.1,0.6-0.1,0.9c0,0.4,0.4,0.5,0.5,0.8
	c0,0.4,0,0.8-0.1,1.1c0.1,0.3,0.2,0.5,0.4,0.7c0,0.3-0.2,0.3-0.1,0.5c0,0.3,0.4,0.3,0.5,0.5c0,1,0.3,2,0.1,3
	c0.1,0.4,0.2,0.9,0.3,1.4c-0.1,0.3-0.4,0.6-0.4,1c0.1,0.6,0.3,1.1,0.7,1.4c0.6,0,0.7-0.3,1.2-0.3c0.4,0,0.4,0.3,0.7,0.4
	c0.4,0,0.7,0.1,1.1,0.1c0.1,0.2,0.1,0.5,0.1,0.9c-0.2,0-0.2-0.2-0.4-0.2c-0.3,0.2-0.5,0.5-0.7,0.8c0,0.3,0.2,0.5,0.2,0.7
	c-0.6-0.3-1.2,0.3-2.1,0.1c-0.2,0.1-0.1,0.7-0.2,0.9v0.9c0,0.2,0.3,0.3,0.3,0.5c0.2,0.2,0.5,0.4,0.6,0.7c0,0.2-0.2,0.3-0.3,0.4
	c0,0.2,0.1,0.3,0.2,0.4c0,0.3,0,0.6,0.1,0.7c-0.3,0.5,0,1.1,0,1.7c0.1,0.3,0.4,0.4,0.5,0.7c0.1,0.3,0.2,0.6,0.4,0.8
	c-0.1,0.2-0.3,0.3-0.3,0.5c0.3,0.4,0,1.3,0.5,1.5c-0.2,0.6,0.3,1,0.3,1.5c-0.1,0.5-0.6,0.4-0.5,1c-0.9,0.1-1.2,1-2.2,0.7
	c-0.2-0.2-0.1-0.5-0.2-0.7c-0.4-0.6-0.5-1.5-0.7-2.3c-0.2-0.8-0.4-1.6-0.5-2.5c-0.4-1.6-0.6-3.4-0.9-5.1c-0.1-0.2-0.2-0.4-0.5-0.5
	c0-0.2,0.1-0.2,0.1-0.5c-0.2-0.1-0.4,0-0.7,0c-0.3,0-0.3-0.2-0.5-0.3c-0.3,0-0.3,0.3-0.6,0.3c-0.3,0-0.3,0.3-0.6,0.3
	c-0.1-0.2-0.1-0.5-0.3-0.5c-0.3,0-0.4,0.1-0.6,0.2c-0.1,0.3,0.2,0.2,0.1,0.5c-0.3,0.1-0.6,0.2-0.7,0.5c0,1.8-0.8,2.6-0.7,4.4
	c-0.1,0.3-0.3,0.5-0.2,0.9c-0.2,0.2-0.3,0.4-0.3,0.8c-0.3,0.1-0.4,0.4-0.4,0.8c0,0.3,0.2,0,0.3,0.2c-0.2,0.5-0.5,1-0.5,1.8
	c0,0.2-0.2,0.1-0.3,0.3c-0.2,0-0.2,0.2-0.3,0.3c-0.1,0.5,0,1.3,0,1.7c-0.1,0.3-0.3,0.4-0.5,0.6c-0.3,0-0.3-0.2-0.6-0.1
	c-0.2,0.2,0.1,0.3,0.1,0.5c-0.2,0-0.2,0.4-0.1,0.5c0,0.2-0.4,0-0.5,0.1c-0.3,0.1-0.1-0.3-0.4-0.3c-0.4,0-0.5,0.3-1,0.2
	c-0.5-0.6,0-2.2-0.5-2.8c0.4-1.7,0.7-3.4,1.3-5c0.8-2.4,1.4-4.8,2.1-7.3c0.1-0.4,0.2-0.8,0.3-1.2c0.1-0.3,0.2-0.5,0.3-0.9
	c0.6-1.5,1-3.4,1.6-5c0.6-2.2,1.4-4.1,2.1-6.3c0.2-0.2,0.4-0.4,0.5-0.6c0.3-0.1,0.3,0.2,0.5,0.1c0.2-0.4-0.2-0.7-0.1-1.2
	c0.2-0.3,0.6-0.4,0.8-0.7C409.3,541.1,409.5,540.6,409.9,540.5 M408,548.8c-0.4,0.7-0.4,1.8-0.6,2.7c-0.4,0.5-0.6,1-0.8,1.6
	c-0.1,0.2-0.2,0.5-0.1,0.7c0.1,0.1,0.1,0.4,0.2,0.5c0.7,0.3,1.4-0.2,2.2-0.2c0.2-0.7-0.3-1.5-0.1-2.2c-0.4-0.8,0-2.4-0.6-3.1H408z"
	/>
<path class="st1" d="M278.4,542.2c0.1,0.2,0.2,0.4,0.3,0.6c0.1,0.3,0.4,0.3,0.5,0.5c-0.2,0.3-0.4,0.5-0.5,0.9
	c-0.5,0.4-1,0.8-1.5,1.1c0,0.2-0.1,0.2-0.1,0.5c-0.2-0.1-0.2,0.1-0.3,0.1c-0.2,0.5-0.5,0.8-0.7,1.2c-0.2,0-0.2,0.1-0.4,0.1
	c-0.1,0.1-0.1,0.3-0.1,0.5c-0.5-0.2-0.8,0.1-1.1,0.4c0.1,0.2,0.2,0.4,0.3,0.5c-0.1,0.2-0.2-0.1-0.3,0.1v0.5
	c-0.2,0.2-0.3,0.4-0.5,0.6c-0.1,0.2,0,0.5-0.2,0.6c-0.2,0-0.3-0.1-0.5-0.1c-0.2,0.3,0.2,0.6,0.1,1c0.1,0.2,0.3,0.5,0.3,0.8
	c0,0.1,0.2,0.1,0.2,0.3c0.4,0,0.8-0.1,1,0c0.1,0.2,0,0.6,0.3,0.7c-0.1,0.2-0.3,0.3-0.3,0.5c0,0.4,0.4,0.4,0.5,0.7
	c0,0.3-0.2,0.3-0.3,0.5c0.1,0.2,0.3,0.3,0.4,0.5c0,0.4-0.2,0.4-0.1,0.8c0,0.1,0.1,0.1,0.1,0.1c0,0.2,0.4,0.1,0.5,0.2
	c0,0.2,0.3,0.2,0.3,0.3c0,0.3-0.3,0.2-0.3,0.4c0.2,0.2,0.4,0.4,0.9,0.4c0,0.4-0.3,0.4-0.3,0.7c-0.1,0.3,0.2,0.2,0.3,0.4
	c0,0.2-0.1,0.2-0.1,0.4c0.2,0.1,0.6,0,0.9,0.1c0,0.4-0.3,0.4-0.3,0.8c0,0.5,0.5,0.5,0.7,0.8c-0.1,0.7,0,1.1,0.4,1.3
	c0,0.3-0.4,0.3-0.3,0.7c0,0.2,0.5,0.1,0.6,0.1c0.1,0.2-0.2,0.1-0.1,0.3c0.2,0.3,0.3,0.6,0.7,0.7c0,0.2-0.2,0.2-0.2,0.4
	c0,0.2,0.3,0.1,0.3,0.3c0,0.2-0.1,0.2-0.1,0.4c0.1,0.3,0.4,0.5,0.5,0.7v0.4c0,0.2,0.2,0.3,0.3,0.4c0,0.3,0.1,0.6,0.3,0.9
	c0.1,0.3-0.2,0.3-0.1,0.6c0,0.2,0.3,0.1,0.4,0.2c0,0.4,0.1,0.6,0.3,0.7c0,0.2-0.1,0.3,0,0.4c0.1,0.3,0.3,0.4,0.5,0.6
	c0,0.4,0,0.6,0.1,0.9c-0.1,0.4-0.4,0.5-0.6,0.7c-0.2,0.2-0.7,0.1-0.8,0.4c-0.5-0.2-0.8-0.7-1.3-0.9c-0.5-0.7-0.8-1.5-1.1-2.4
	c-0.3-0.8-0.7-1.6-1-2.4c-0.8-1.5-1.2-3.3-2.2-4.5c-0.4-1.2-1-2.1-1.5-3.2c-0.6-1-1.1-2.1-1.5-3.2c-0.1-0.2-0.2-0.2-0.3-0.3
	c-0.4,0-0.8,0-1,0.2c-0.3,0-0.2-0.4-0.5-0.4c-0.7-0.1-0.6,0.6-0.5,1.1c-0.1,0.1-0.2,0.2-0.4,0.1c-0.1,0.4-0.3,0.6-0.5,0.8v0.6
	c-0.1,0.2-0.4,0.3-0.5,0.5c-0.1,0.3,0.3,0.3,0.4,0.4c0,0.3,0.1,0.6-0.1,0.8c-0.2,0-0.3-0.1-0.5-0.1c-0.3,0.2,0,0.8-0.1,1.1
	c-0.1,0.4-0.4,0.7-0.3,1.3c-0.1,0.2-0.2,0.4-0.3,0.7c0.1,0.5,0.1,1,0.3,1.3c-0.2,0.2-0.4,0.3-0.3,0.7c-0.1,0.1-0.4,0.1-0.4,0.3
	c0,0.2,0.2,0.2,0.4,0.2c-0.1,0.4-0.3,0.9-0.1,1.2c-0.2,0.1-0.4,0.1-0.5,0.3c0.1,0.4,0.4,0.6,0.3,1.2c-0.1,0.2-0.4,0.1-0.5,0.2
	c-0.3,0.2-0.2,0.7-0.7,0.7c-0.2-0.3,0.2-0.4,0.1-0.7c-0.1-0.2-0.2-0.3-0.4-0.4c-0.3,0-0.2,0.4-0.4,0.5c-0.3,0-0.3-0.3-0.4-0.5
	c-0.3,0-0.3,0.2-0.5,0.2c0.1-2,0.2-4,0.2-6.1c0.4-0.7,0-2.1,0.4-2.8c0.2-2.3,0.6-4.4,1.2-6.3c0.2-3,1-5.4,1.3-8.3
	c0.3-0.4,0.5-0.8,0.9-1.1c0.2,0,0.4,0.2,0.6,0.1c0.2,0,0-0.4,0.1-0.5c0.4,0,0.5,0.3,0.7,0.4c0.3,0,0.3,0.1,0.6,0.1
	c0.4-0.1,0.8-0.5,1.3-0.3c0,0.3-0.2,0.3-0.3,0.5c0.1,0.3-0.1,0.5-0.1,0.8c-0.1,0.1-0.3,0.2-0.5,0.3c0.1,0.3,0.5,0.4,0.5,0.8
	c-0.2,0.1-0.6,0-0.6,0.3c0,0.3,0.4,0.3,0.5,0.6c0,0.6-0.4,0.8-0.4,1.5c0,0.3-0.4,0.3-0.4,0.7c0,0.2,0.2,0.2,0.3,0.3
	c0.1,0.2,0.1,0.5,0.3,0.6c0.5-0.1,0.5-0.5,0.9-0.7c0.1-0.3,0.3-0.4,0.3-0.7c0.3,0,0.4-0.3,0.5-0.5c0.4-0.2,0.7-0.5,1-0.9
	c0-0.2,0.1-0.3,0.1-0.6c0.5-0.2,0.6-0.6,0.9-1c0.1-0.1,0.2-0.2,0.4-0.2c0.2-0.5,0.8-0.6,1.1-1.1h0.2c0.3-0.2,0.4-0.5,0.7-0.6
	c0-0.3,0.2-0.5,0.3-0.7c0.2-0.2,0.2-0.4,0.4-0.5C277.7,541.7,277.8,542.3,278.4,542.2"/>
<path class="st1" d="M252.4,542.1c0.3,0,0.4-0.2,0.5-0.3c0.2,0.2,0.4,0.2,0.8,0.1c0.2,0.5,0,1.1,0,1.7c0,0.2,0.2,0.4,0.1,0.7
	c0.1,0.3,0.3,0.4,0.4,0.7c0,0.4-0.3,0.5-0.3,0.9v0.5c0.1,0.4,0.6,0.5,0.7,0.9c0,0.2-0.1,0.3-0.2,0.5c-0.3,0-0.5,0-0.7,0.1
	c0,0.6,0.5,0.7,0.9,0.8c0,0.6,0,1.3-0.3,1.6c-0.1,0.3,0.1,0.3,0.1,0.5c0,0.3-0.4,0.2-0.5,0.5c0,0.4,0.8,0,0.9,0.3
	c0.1,0.3-0.6,0.4-0.6,0.8c0,0.2,0.2,0.2,0.3,0.3c-0.1,0.4,0.2,0.5,0.1,0.9c-0.2-0.1-0.3-0.1-0.5,0c-0.1,0.2-0.1,0.4,0.1,0.6
	c0,0.2-0.3,0.2-0.3,0.4c0,0.3,0.2,0.5,0.1,0.9c0.3,0.1,0.6,0.3,0.9,0.3c0.3,0.2,0.7,0.4,1.2,0.5c0.2,0.1,0.4,0.4,0.7,0.4
	c-0.1,0.4-0.6,0.4-0.4,1.1c-0.2,0.1-0.1-0.3-0.3-0.2c-0.3,0.1-0.4,0.5-0.5,0.7c-0.4,0-0.6-0.4-0.9-0.2c0,0.5,0.2,0.6,0.5,0.7
	c-0.1,0.2-0.4,0.2-0.5,0.5c0,0.2,0.3,0.2,0.2,0.5c0,0.5-0.4,0.9-0.1,1.3c0.1,0.3-0.4,0-0.3,0.3c0,0.2,0.2,0.2,0.3,0.3
	c0.2,0,0.1,0.3,0.3,0.3c0.1,0.5,0,1.2,0,1.7c0,0.3,0.3,0.3,0.2,0.6c0,0.4-0.4,0.2-0.4,0.5c0,0.3,0.4,0.1,0.5,0.3
	c0,0.8-0.2,1.7,0.1,2.3c0.1,0.3-0.2,0.3-0.1,0.6c0,0.4,0.4,0.5,0.5,0.9c0,0.4-0.4,0.4-0.3,0.9c0,0.3,0.4,0,0.4,0.1
	c0.2,0.3-0.3,0.4-0.3,0.7c0.1,0.4,0.6,0.4,0.7,0.7c0,0.9-1,0.2-1.5,0.4c-0.3,0-0.1-0.3-0.3-0.3c-0.2,0-0.3,0.1-0.4,0.1
	c-0.4-0.1-0.5-0.6-0.8-0.8c-0.8-3.7-1-8-1.7-11.6c-0.4-0.4-1-0.6-1.5-1c-0.2,0-0.1,0.3-0.3,0.3c-0.6,0.1-0.8-0.3-1.1-0.5
	c-0.5,0.1-0.7,0-1-0.1c-0.3,0-0.4,0.2-0.7,0.2c-0.3,0-0.3-0.2-0.6-0.3c-0.5,0-0.8,0.2-1.1,0.5c0.1,0.4-0.3,0.7,0,1
	c-0.1,0.3-0.3,0.4-0.5,0.7c-0.3,0.1-0.6,0.1-0.7,0.3c0,0.4,0.4,0.3,0.4,0.7c-0.6-0.1-0.8,0.3-1,0.7c-0.1,0.3,0.2,0.2,0.2,0.4
	c0.2-0.1,0.1,0.3,0.2,0.3c-0.1,0.5-0.4,0.7-0.8,0.7c0,1-0.8,1.2-1.1,2c0,0.3,0.4,0.3,0.5,0.5c0,0.6-0.1,1-0.1,1.5
	c-0.3,0.4-0.6,0.7-0.5,1.3c-0.1,0.1-0.3,0-0.4,0.1c0,0.2,0.1,0.2,0.1,0.4c-0.1,0.3-0.4,0.4-0.2,0.8c-0.2,0.4-0.5,0.6-0.5,1.2
	c-0.2-0.1-0.2-0.2-0.5-0.2c-0.1-0.1-0.2-0.3-0.4-0.3c-0.4,0.1-0.5,0.4-1.1,0.3c-0.2-0.6,0.1-1.4,0-2.1c0.1-0.2,0.1-0.5,0.2-0.6
	c0-0.4,0.1-0.6,0.1-1c0.1-1.1,0.5-2.2,0.9-3.2c1.1-3,2-6.1,3.3-8.9c0.9-1.9,1.7-3.7,2.7-5.4c0.5-0.9,1-1.7,1.5-2.6
	c0.4-0.9,0.8-1.9,1-3c0,0,0.1,0,0.1-0.1c0-0.2,0.2-0.3,0.3-0.5v-0.7c0.2-0.1,0.5-0.2,0.8-0.3c0.4,0,0.6,0.2,1,0.1
	C251.1,542,252,541.6,252.4,542.1 M253.9,547.2c0-0.2-0.1-0.3-0.3-0.3C253.6,547.1,253.7,547.2,253.9,547.2 M249.3,551.2
	c-0.5-0.1-0.5,0.4-0.8,0.4c0,0.2,0.2,0.2,0.1,0.4c-0.4,0.4-0.4,1.1-0.5,1.6c-0.3,0.3-0.7,0.4-0.9,0.7c0,0.4-0.1,0.9,0.1,1.1
	c0.5,0.2,1.1,0.2,1.7,0.3c0.5-0.2,1.6,0.1,2.1-0.2c-0.1-0.8-0.4-1.7-0.5-2.6c-0.1-1.1,0-2.2-0.5-3
	C249.4,550,249.5,550.7,249.3,551.2 M243.7,560.6h0.2c0-0.1-0.1-0.2-0.2-0.1V560.6z"/>
<path class="st1" d="M460,542.1c0.2,0,0.3,0.3,0.5,0.3c0.3,0,0.2-0.4,0.5-0.3c0.5,0.1,0.7,0.5,1.1,0.7c0,0.4,0.1,0.6,0.1,1.1
	c-0.1,0.4-0.4,0.6-0.3,1c-0.1,0.1-0.1,0.3-0.3,0.3c0,0.4-0.1,0.7-0.3,0.9c0,0.3,0.2,0.3,0.2,0.5c0,0.3-0.3,0.2-0.3,0.4
	c0.1,0.3,0.1,0.9-0.1,1.1c0.2,0.4,0.1,0.9,0.1,1.5c-0.1,0.3-0.4,0.4-0.5,0.7c0,0.2,0.1,0.4,0.1,0.7c0,0.3-0.2,0.3-0.2,0.5
	c0,0.2,0.3,0.1,0.4,0.2c-0.2,0.3-0.4,0.5-0.1,0.9c-0.2,0.2-0.6,0.3-0.7,0.6c-0.1,0.3,0.2,0.4,0.2,0.7c-0.4-0.2-0.9,0-1.1,0.3
	c0,0.3,0.4,0.3,0.7,0.3c0,0.3,0,0.7,0.1,1.1c-0.1,0.1-0.4,0.1-0.5,0.2c0,0.5-0.1,0.7-0.1,1.2c0,0.4,0.5,0.6,0.3,0.9
	c-0.4,0.2-0.6-0.5-1-0.2c-0.1,0.5,0.4,0.4,0.5,0.7c0,0.2-0.1,0.2-0.1,0.4c-0.1,0.3,0.3,0.2,0.3,0.6c-0.3,0-0.4,0.1-0.5,0.2
	c-0.1,0.3,0.2,0.3,0.3,0.5c0.1,0.3-0.2,0.2-0.2,0.4c0.1,0.3,0.4,0.3,0.4,0.7c0,0.3-0.3,0.3-0.4,0.6c0,0.3,0.3,0.3,0.3,0.5
	c-0.1,0.4-0.3,0.7-0.3,1.1c-0.2,0.1-0.4,0.3-0.5,0.5c0,0.3,0.2,0.4,0.3,0.6c0.3,0,0-0.6,0.3-0.6c0,0.4,0.2,0.5,0.2,0.8
	c-0.3,0-0.5,0.1-0.5,0.3c-0.1,0.4,0.2,0.6,0.5,0.7c-0.1,0.3-0.4,0.4-0.4,0.7c0,0.4,0.2,0.5,0.3,0.7c0,0.5,0.3,0.7,0.3,1.3
	c-0.1,0.1-0.4,0.1-0.6,0.1c0-0.2,0.4-0.1,0.3-0.4c0-0.1-0.1-0.1-0.1-0.2c-0.4,0-0.5,0.3-0.9,0.3c-0.1,0.2,0,0.6-0.1,0.8
	c-0.3,0.1-0.2-0.1-0.3-0.2c-0.3,0-0.2,0.3-0.3,0.4c-0.1,0-0.2,0.1-0.2,0.1c-0.4,0.1-1,0.2-1.5,0.1c-0.1-0.4-0.3-0.8-0.3-1.4
	c0.1-0.4,0.1-0.9,0-1.3c-0.4,0-0.5,0.2-0.9,0.3c-0.2,0-0.2,0.2-0.3,0.3c-0.2,0-0.4,0.1-0.5,0.2c-0.2,0-0.4,0-0.5-0.1
	c-0.3,0.1-0.2,0.7-0.5,0.8c-0.2,0-0.3-0.1-0.5-0.1c-0.4,0.1-0.7,0.3-1.1,0.5c-0.3,0-0.3-0.1-0.6-0.1c-0.8,0-1,0.6-1.8,0.5
	c-0.6-0.2-0.9-0.6-1.8-0.5c-0.8-0.5-1.2-1.4-2-2.1c0-0.3-0.1-0.7-0.1-0.9c0-4,1.1-6.9,2.4-9.6c1.2-2,2.5-3.8,5.1-4.4
	c1.8-0.1,3,0.4,4.3,0.8c0.5-0.2,0.5-0.8,0.6-1.4v-0.9c0.1-0.3,0.1-0.7,0.3-0.9c0.2-2,0.7-3.7,0.9-5.7c0.2-0.4,0.7-0.5,1-0.8
	c0.1-0.1,0.2-0.1,0.4-0.1C459.8,542.3,459.9,542.3,460,542.1 M455.4,554.3c-1.6-0.2-2.2,0.7-3.4,0.9c-0.1,0.3,0.2,0.2,0.1,0.4
	c-0.1,0.1-0.2,0.4-0.4,0.4c-0.2,0.1-0.2,0.3-0.5,0.3c-0.1,0.1-0.3,0.1-0.5,0.1c-0.1,0.6-0.3,1.2-0.6,1.6c-0.2,0-0.2-0.2-0.5-0.1
	c-0.1,0.3-0.2,0.5-0.1,0.9c-0.2,0.3-0.6,0.5-0.7,0.9c0.1,0.1,0.4,0.1,0.4,0.3c-0.3,0.1-0.4,0.5-0.5,0.9c0,0.2,0.3,0.2,0.3,0.5
	c0,0.3-0.3,0.3-0.3,0.6c0.1,0.2,0.4,0.3,0.4,0.7c-0.1,0.3-0.6,0.2-0.7,0.5c-0.1,0.4,0.3,0.3,0.3,0.7c-0.2,0.1-0.6,0.1-0.6,0.4
	c0,0.4,0.4,0.4,0.4,0.7c-0.1,0.1-0.1,0.2-0.1,0.4c0.1,0.2,0.3,0.2,0.3,0.4c-0.1,0.2-0.2,0.2-0.2,0.5c0.8,0.1,1.6,0.1,2.5,0.1
	c0.3-0.5,1.1-0.4,1.9-0.5c0.7-0.3,0.9-1.1,1.4-1.5c0.2-0.2,0.5-0.2,0.9-0.3c0.1-0.2,0.2-0.4,0.4-0.5c0.3-2.9,0.7-5.8,1-8.7
	C456.4,554.5,455.9,554.4,455.4,554.3"/>
<path class="st1" d="M286.4,543.3c0.3,0.1,0.3-0.2,0.7-0.1v1.1c-0.1,0.2-0.4,0.3-0.5,0.5c0,0.4,0.2,0.6,0.1,1.1
	c-0.1,0.2-0.5,0.2-0.6,0.4c-0.1,0.4,0.3,0.4,0.3,0.6c0,0.3,0,0.6,0.1,0.8c0,0.2-0.2,0.4-0.3,0.5c0,0.2,0,0.4-0.1,0.5
	c-0.1,0.1-0.3,0.1-0.4,0.2c-0.1,0.3,0.2,0.2,0.1,0.5c0.1,0.3,0.4,0.4,0.4,0.7c-0.3,0.9-2,0.4-3,0.6c-0.2-0.1-0.3-0.3-0.5-0.5
	c-0.1-1.9,0.5-3.2,0.5-5c0.1-0.2,0.1-0.4,0.2-0.6c0-0.5-0.1-1.1,0.1-1.3c0.3-0.2,0.5,0,0.8,0c0.3-0.1,0.4-0.3,0.7-0.4
	c0.4,0,0.4,0.3,0.8,0.1C286.3,542.9,286.2,543.2,286.4,543.3"/>
<path class="st1" d="M174,543.3c0,0.5,0.2,0.8,0.5,1c-0.1,0.6-0.1,1.3-0.1,2c0.1,0.7,0.4,1.2,0.7,1.8c0,0.4-0.2,0.5-0.2,0.8
	c0,0.3,0.3,0.3,0.3,0.5c0,0.2,0.1,0.3,0.1,0.5c0.3,0.7,0.8,1.1,0.9,2c0.1,0.2,0.2,0.4,0.3,0.6v1.1c0.1,0.3,0.4,0.5,0.5,0.7
	c0.1,0.2,0.1,0.5,0.2,0.7c-0.1,0.3-0.5,0.1-0.6,0.4c0,0.4,0.3,0.5,0.6,0.6c0.2,0.2,0.4,0.4,0.5,0.7c0,0.3-0.1,0.5-0.1,0.7
	c0.1,0.2,0.2,0.5,0.5,0.6c0.3,0,0.4-0.3,0.5-0.4c0.1-2,0.4-3.8,0.9-5.4c0.1-1.6,0.4-3,0.6-4.5c0.3-1.4,0.5-2.8,1.1-4
	c0.4,0.1,0.7,0.2,1.1,0.3c0.6,0.1,1-0.1,1.5-0.1c0.2,0.4-0.1,0.7-0.1,1.2c0,0.2-0.2,0.3-0.3,0.5c-0.1,0.9,0.1,2.1-0.1,2.8
	c-0.1,0.3,0.2,0.2,0.1,0.4c0,0.2-0.2,0.2-0.3,0.3c-0.1,0.1-0.2,0.2-0.3,0.3c0,0.3,0.1,0.4,0.2,0.5c0,0.3-0.3,0.3-0.4,0.5
	c0.2,0.3,0.1,0.7-0.1,1c0,0.2,0.2,0.4,0.5,0.4c-0.2,0.2-0.7,0.2-0.8,0.5c0,0.7,0.4,1,0.3,1.8c-0.2,0.1-0.4,0-0.5,0.2
	c-0.1,0.4,0.4,0.3,0.3,0.6c-0.1,0.1-0.4,0.1-0.5,0.3c0,0.4,0.2,0.6,0.1,1c-0.1,0.3-0.6,0.3-0.6,0.6c0,0.4,0.5,0.1,0.7,0.3
	c0,0.6-0.6,0.6-0.7,1c-0.1,0.3,0.3,0.3,0.3,0.5c0.1,1.1-0.4,1.7-0.9,2.2c0.1,0.4,0.2,0.6-0.2,0.7c0.1,0.3,0.3,0.4,0.4,0.6
	c-0.1,0.3-0.4,0.4-0.5,0.7c-0.1,0.3,0.1,0.3,0.1,0.5c0,0.3-0.2,0.4-0.3,0.5c0.1,0.4,0,0.5-0.1,0.7c0,0.2,0,0.4,0.1,0.5
	c-0.2,0.2-0.7,0.2-0.7,0.6c-0.1,0.3,0.3,0.2,0.3,0.4c0,0.4-0.5,0.3-0.7,0.5c-0.1,0.4-0.1,0.9-0.1,1.4c0,0.3-0.3,0.3-0.3,0.5
	c-0.1,0.3,0.3,0.2,0.2,0.5c-0.4,0.1-0.5,0.5-0.7,0.7c-0.2,0-0.3,0-0.4-0.1c-0.2,0.1-0.2,0.3-0.5,0.3c-0.2-0.2-0.5-0.3-0.7-0.5
	c-1.1-4-1.3-9-2.7-12.8c-0.1-0.7-0.2-1.4-0.4-2.1c-0.2-0.6-0.3-1.3-0.7-1.7c-0.3,0-0.4,0.3-0.4,0.7c0,0.3-0.3,0.2-0.4,0.5
	c0,0.3,0.3,0.3,0.3,0.6c-0.4,0-0.4,0.3-0.5,0.5c0,0.4,0.3,0.4,0.5,0.6c-0.2,0.3-0.3,0.7-0.7,0.9c0.1,0.2,0.4,0.1,0.5,0.2
	c-0.1,0.3-0.6,0.7-0.1,1c-0.1,0.2-0.3,0.3-0.3,0.5c0,0.6,0.3,1.1-0.1,1.5c0,0.3,0.2,0.5,0.1,0.7c0,0.3-0.5,0.2-0.5,0.5
	c0,0.3,0.1,0.5,0.2,0.8c0.1,0.3,0.3,0.4,0.3,0.6c-0.1,0.5-0.5,0.6-0.7,1c0,0.3,0.4,0.2,0.4,0.5c-0.3,0.5-0.7,1-0.8,1.7
	c0,0.3,0.2,0.5,0.3,0.8c-0.2,0.2-0.3,0.5-0.5,0.7c0.1,0.5-0.2,0.7-0.1,1.2c-0.1,0.2-0.2,0.3-0.3,0.5c0.2,0.4,0.2,1.3-0.1,1.6
	c-0.7,0-1.8,0.2-2.6-0.1c-0.6-0.6-0.4-1.8-0.6-2.8c-1-2.9-1.5-6.4-3-8.8c-0.2-1.4-0.4-2.9-1-4c-0.2-1.4-0.9-2.5-1.1-3.8V551
	c-0.1-0.1-0.1-0.2-0.1-0.3c-0.3-0.5-0.4-1.2-0.6-1.8c-0.2-0.6-0.5-1.1-0.6-1.7c0-0.2,0.2-0.4,0.3-0.5c0.1-0.1,0.2-0.2,0.5-0.1
	c0.2-0.1,0.3-0.3,0.6-0.4c0.5-0.1,0.6,0.3,1.1,0.2c0,0.3,0.4,0.3,0.6,0.3c0.3,0.4,0.4,1,0.7,1.4c-0.2,1.2,0.6,1.9,0.8,2.9
	c-0.1,1.1,0.4,1.6,0.7,2.3v0.6c0.1,0.2,0.2,0.3,0.3,0.5c0,0.3,0.1,0.5,0.2,0.7c0,0.3,0.1,0.5,0.2,0.6v0.4c0.3,0.4,0.4,1,0.6,1.4
	c0,0.2,0,0.5,0.1,0.6c0.5,0.9,0.8,2,1.1,3.1c0.2,0.1,0.1-0.2,0.1-0.3v-0.4c0.1-0.5,0.2-1,0.5-1.4c0.3-2.1,0.8-4.2,1.1-6.4
	c0.4-2.1,0.6-4.3,1-6.5c0-0.3,0-0.6,0.1-0.8v-0.7c0.2-0.4,0.2-0.9,0.3-1.3c0.2,0,0.5,0,0.6,0.1c0.3-0.1,0.3-0.3,0.5-0.4
	c0.4,0.1,0.8-0.1,1.1,0C173.8,543.2,173.9,543.3,174,543.3"/>
<path class="st1" d="M324.2,545.2c0,0.3-0.1,0.4-0.1,0.7c0.1,0.3,0.4,0.3,0.5,0.5c0,0.2,0,0.5,0.1,0.6c0.1,0.2,0.2,0,0.4,0.1
	c-0.1,0.3,0.1,0.3,0.1,0.5c0,0.3,0.4,0.2,0.3,0.5c-0.4,0-0.6-0.3-1-0.3c-0.4,0.1-0.7,0.3-0.6,0.9c-0.4,0-0.4,0.3-0.7,0.3
	c-0.3,0-0.3-0.4-0.5-0.6c-0.2-0.2-0.2-0.5-0.4-0.7c0-0.2-0.1-0.4-0.1-0.5c-0.4-0.7-0.9-1.3-1.6-1.7c-1-0.1-1.2,0.6-2.1,0.6
	c-0.2,0.1-0.1,0.4-0.2,0.5c-0.3,0.3-0.7,0.5-0.9,0.9c-0.2,0-0.1-0.2-0.4-0.1c-0.2,0.3,0.1,0.4,0.1,0.7c-0.2,0.7-0.7,1.1-1.1,1.6
	c0,0.6-0.3,0.9-0.3,1.5c-0.2,0.2-0.4,0.3-0.7,0.3c-0.1,0.4,0.1,0.6,0.1,0.9c-0.1,0.3-0.3,0.4-0.5,0.6c-0.1,0.4-0.4,0.6-0.3,1.2
	c0,0.3-0.4,0.1-0.3,0.4c0,0.3,0.4,0.1,0.4,0.5c0,0.6-0.6,0.5-0.7,0.9c0,0.4,0.4,0.3,0.4,0.7c0,0.3-0.5,0.3-0.5,0.5
	c-0.1,0.3,0.2,0.2,0.2,0.4c0,0.2-0.3,0.1-0.3,0.3c0,0.3,0.3,0.4,0.3,0.7c-0.1,0.4-0.6,0.4-0.7,0.7c0,0.3,0.4,0.3,0.5,0.5
	c0,0.3-0.3,0.3-0.5,0.5c-0.1,0.2-0.2,0.3-0.3,0.5c0,0.4,0.4,0.3,0.4,0.7c0.1,0.3-0.2,0.4-0.3,0.5c0,0.3,0.5,0.2,0.5,0.5
	c-0.1,0.1-0.3,0.2-0.5,0.3c0,0.3,0.2,0.3,0.1,0.5c-0.1,0.2-0.2,0.4-0.3,0.5c0,0.4,0.2,0.4,0.1,0.8c0.2,0.2,0.3-0.2,0.5,0
	c0,0.2-0.2,0.4-0.3,0.5c0,0.4,0.5,0.5,0.1,0.8c0.2,0.4,0.7,0.5,0.9,0.9c0.4,0.1,0.9,0.2,1.4,0.2c0.8-0.1,1.4-0.3,2-0.6
	c0.5-0.3,1.1-0.6,1.4-1.1c1.2-0.1,1.3-1.3,2.6-1.2c0.2,0,0.3,0.2,0.4,0.3c0.3,0,0.4,0.1,0.6,0.3c0.2,0.5-0.1,0.7-0.3,1
	c-0.3,0.1-0.6,0.2-0.8,0.4c-0.1,0.6-0.7,0.6-1,1.1c-0.2,0-0.3-0.2-0.5-0.3c-0.4,0.1-0.5,0.6-0.5,1h-0.7c-0.4,0.1-0.3,0.7-0.5,0.9
	c-0.2-0.2,0.1-0.5-0.1-0.7c-0.4,0-0.3,0.5-0.4,0.8c-0.4,0-0.4-0.4-0.7-0.5c-0.4,0-0.2,0.5-0.4,0.7c-1,0.2-2.1,0.4-3.4,0.3
	c-0.4-0.1-0.7-0.2-1.1-0.4c-1.4-1.3-2.4-3.1-2.6-5.6c0.1-1.5,0-3.2,0.1-4.6c0.1-2.5,0.6-4.6,0.7-6.9c0.1,0,0-0.2,0.1-0.3
	c0.3-0.5,0.4-1.2,0.6-1.7c0.3-0.9,0.5-1.8,0.9-2.6c0.3-0.8,0.9-1.5,1.3-2.1c0.6-0.5,1.3-1,2.2-1.2c1.3-0.8,2.9-1.2,5-1.1
	c0.8,0.2,1.5,0.4,2.2,0.7C323.2,544.3,323.6,544.9,324.2,545.2"/>
<path class="st1" d="M363.8,544.7c0.2,0.2,0.3,0.4,0.5,0.5c0.7,0.1,1.1-0.1,1.6-0.3c2-0.2,3.2,0.5,5,0.6c0,0.1,0,0.1,0.1,0.1
	c0.7,0.3,1.3,0.7,1.7,1.2c0.1,0.1,0.3,0.1,0.4,0.1c0,0.6,0,1.2,0.2,1.6c0.1,0.2-0.2,0.1-0.3,0.2c0.2,0.4,0.6,0.5,0.5,1.1
	c-0.3,0.1-0.2-0.2-0.5-0.1c-0.1,0-0.1,0.2-0.2,0.3c0,0.3,0.2,0.4,0.5,0.3c-0.2,0.3-0.1,0.8-0.1,1.2c-0.3,0-0.1-0.3-0.5-0.2
	c-0.1,0-0.1,0.1-0.2,0.1c-0.1,0.4,0.2,0.5,0.1,0.8c-0.1,0.3-0.5,0.5-0.7,0.7c-0.2,0.6-0.6,1-0.9,1.5c0,0.2,0.2,0.2,0.3,0.3
	c0.9,0,1.5-0.4,2.3-0.5c0.3,0,0.3,0.2,0.5,0.3c0.2,0,0.3-0.3,0.6-0.3c0.3,0,0.4,0.2,0.5,0.4c0.2,0,0.4,0.2,0.6,0.2
	c0.1,0.2,0.1,0.4,0.3,0.5c0,0.2-0.2,0.3-0.1,0.4c0.2,0.3,0.5,0.2,0.9,0.2c0,0.6,0.4,0.6,0.7,0.9c0,0.3,0.1,0.3,0,0.5
	c0.5,0.4,0.3,1.4,0.8,1.8c0,0.2-0.2,0.2-0.1,0.4c0,0.2,0.2,0.3,0.2,0.5c0.1,0.3-0.3,0.2-0.3,0.5c0,0.3,0.4,0.1,0.5,0.4
	c0,0.6-0.4,0.7-0.5,1c0,0.2,0.2,0.3,0.2,0.5c-0.2,0.1-0.6,0-0.7,0.2c0,0.2,0.1,0.5,0.1,0.7c-0.1,0.2-0.4,0.3-0.5,0.5
	c0,0.2-0.1,0.2-0.1,0.4c-0.1,0.3,0.2,0.3,0.3,0.4c-0.1,0.3-0.5,0.3-0.6,0.6c0.1,0.7-0.4,0.9-0.2,1.5c-0.6,0.5-1.1,1.1-1.7,1.6
	c-0.4,0.2-0.7,0.5-1.1,0.5c-0.4,0.1-0.8,0.3-1.3,0.3c-0.2,0.2-0.2-0.2-0.4-0.2c-0.7,0.4-1.9,0-2.8,0.2c-0.2-0.2-0.1-0.5-0.3-0.6
	c-0.3,0-0.2,0.3-0.3,0.3c-0.4,0-0.5,0.2-0.9,0.2c-0.4-0.1-0.6-0.4-0.8-0.5c-0.2,0-0.3,0.1-0.4,0.1c-0.4-0.1-0.4-0.5-0.7-0.6
	c-0.3,0-0.3,0.3-0.5,0.4c-0.5-0.1-1.1-0.2-1.7-0.2c-0.3-0.2-0.5-0.5-0.9-0.5c0-0.2,0.2-0.2,0.1-0.4c-0.1-0.2-0.5-0.1-0.7-0.2
	c-0.3,0-0.1,0.4-0.3,0.6c-0.2,0-0.2-0.1-0.5-0.1c-0.2,0.3,0.2,0.5,0.3,0.9c0,0.3-0.2,0.3-0.3,0.5c0,0.2,0.2,0.4,0,0.6
	c0,0.2,0.2,0.2,0.2,0.4c0,0.3-0.2,0.5-0.1,0.9c-0.2,0.1-0.3,0.3-0.4,0.5c-1,0-2.1,0.7-2.8,0c-0.3-1.4-0.3-3.4-0.2-5
	c0.1-3.4,1-6.2,1.3-9.4c0.5-1.5,0.9-3.1,1.2-4.8c0.2-0.9,0.3-1.9,0.3-3c0-0.2,0.1-0.3,0.1-0.6c-0.2-0.4-0.6-0.5-0.8-0.9
	c0-0.7-0.1-1.7,0.3-2c0-0.2-0.1-0.2-0.1-0.5c0.1-0.2,0.4-0.3,0.5-0.5C362,544.8,362.8,544.6,363.8,544.7 M368.2,552.3
	c0.6-0.8,1.4-1.5,1.7-2.6V549c-0.4-0.6-1-1.1-1.9-1.2c-1.2-0.1-2.4,0.3-3.2,0.7c0,0.1,0,0.2-0.1,0.2c-0.1,0.3-0.2,0.5-0.1,0.9
	c0,0.2-0.2,0.2-0.2,0.4c0.1,0.3,0.2,0.6,0.1,0.9c0.1,0.1,0.2,0.2,0.1,0.5c-0.1,0.3-0.4,0.6-0.5,0.9c0,0.4,0.5,0.4,0.4,0.8
	c0,0.4-0.4,0.6-0.2,1C366.1,554,367,553,368.2,552.3 M363.4,564.5c0.3,0.2,0.5,0.5,0.7,0.7c1,0.5,2.1,0.8,3.2,1.1h4.1
	c1.4-0.2,2-1.4,2.8-2.3c0.1-0.6,0.4-1.2,0.4-1.9c0.1-1.2-0.1-2.6-0.3-3.6c-0.5-0.7-1.2-1.1-2.2-1.4c-2.7-0.3-4.4,1-6.3,1.6
	c-0.6,0.5-1.3,0.8-2,1.3c-0.1,0.2-0.3,0.4-0.3,0.7c-0.2,0-0.3,0-0.5,0.1c0,0.3,0.2,0.3,0.1,0.5c0,0.2-0.3,0.1-0.2,0.4
	c0,0.2,0.2,0.2,0.1,0.4c-0.2,0.3-0.3,0.6-0.5,0.9c0.2,0.4-0.1,0.6-0.1,1C362.9,564.1,363.2,564.3,363.4,564.5 M363.6,568.1h0.2
	c0-0.1,0.1-0.3-0.1-0.3C363.6,568,363.5,568,363.6,568.1 M364.5,567.9c-0.1,0.2,0.2,0.1,0.3,0.1v-0.2
	C364.6,567.9,364.5,567.9,364.5,567.9"/>
<path class="st1" d="M440.9,545.6C440.9,545.6,441,545.5,440.9,545.6C441,545.6,440.9,545.6,440.9,545.6"/>
<path class="st1" d="M226,549.4c0.3,0,0.5,0,0.6-0.2c0.1-0.1,0.2-0.5,0.3-0.3c0,0,0.2,0.4-0.1,0.3c-0.2,0-0.3,0.1-0.3,0.2
	c0.1,0.3,0.2,0.6,0.6,0.5c0,0.2,0.2,0.3,0.3,0.4c0,0.2,0.1,0.4,0.1,0.5c-0.1,0.4-0.4,0.5-0.5,0.9c0,0.3,0.3,0.3,0.2,0.7
	c-0.5,0.1-1,0.2-1.3,0.3c-0.3,0-0.2-0.4-0.5-0.4c-0.1-0.7-0.4-1.3-0.7-1.9c-0.3-0.4-0.7-0.6-1.1-1c-0.4,0.1-0.6,0-0.9-0.1
	c-0.2,0.1,0.1,0.3-0.1,0.4c-0.4,0.1-0.7,0.2-0.9,0.4c-0.3,0.1-0.3,0.4-0.5,0.6c-0.4,0.1-0.7,0.2-1,0.4c-0.1,0.2-0.2,0.4-0.1,0.7
	c-0.2,0.3-0.7,0.4-0.7,0.9c-0.1-0.1-0.2-0.1-0.3-0.1c-0.5,0.4-0.6,1.2-0.6,2.1c-0.1,0.3-0.3,0.5-0.3,0.8c0.1,0.3,0.3,0.3,0.4,0.6
	c0,0.3-0.2,0.5-0.2,0.8c0,0.3,0.1,0.3,0.2,0.5c-0.1,0.7,0.3,0.9,0.3,1.5c0,0.4-0.3,0.4-0.3,0.7c0.1,0.4,0.3,0.5,0.4,0.9
	c-0.1,0.8-0.2,1.4-0.2,2.1c0,0.2,0.1,0.3,0.2,0.4c0,0.2-0.2,0.2-0.1,0.4c0.2,0.3,0,0.9,0.3,1c-0.1,0.2-0.3,0.3-0.3,0.5
	c0.1,0.4,0.5,0.4,0.6,0.7c0,0.7-0.3,1.1-0.3,1.8c0,0.4,0.4,0.4,0.3,0.9c-0.1,0.4-0.4,0.6-0.9,0.6c-0.4,0.1-0.8,0.3-1.3,0.3
	c-1.2-1-0.9-3.4-1.2-5.2c-0.1-0.6-0.4-1.2-0.4-1.7v-3.5c-0.3-1.3-0.2-2.7-0.3-4.2c-0.1-1.3-0.2-2.6-0.1-3.8v-1.1
	c0.2-0.4,0.2-0.8,0.3-1.3c0.5-0.4,1.2-0.5,1.6-0.9c0.3,0,0.7-0.1,0.9,0c0.3,0.5-0.1,1.7,0.6,1.8c0.5-0.1,0.7-0.5,0.9-0.7
	c0.3-0.3,0.6-0.5,0.8-0.8c0.2-0.1,0.4-0.2,0.6-0.3c0.5-0.1,0.9-0.1,1.2-0.3c0.9,0.1,2.2-0.1,2.8,0.4h0.5c0,0.1,0.2,0.2,0.3,0.3
	c0.1,0.2,0,0.7,0.3,0.7C226,549.2,225.8,549.3,226,549.4"/>
<path class="st1" d="M441.8,554.8c-0.3-0.1-0.4,0.1-0.5,0.3c0,0.3,0.3,0.3,0.4,0.5c0,0.3-0.1,0.5-0.1,0.9c-0.1,0.1-0.4,0.1-0.5,0.2
	c0.1,0.2,0.4,0.2,0.5,0.5c0,0.5-0.1,0.8-0.2,1.2c0,0.3,0.2,0.5,0.3,0.7c0,0.3-0.4,0.3-0.5,0.5c0.1,0.3,0.1,0.5,0.1,0.8
	c0,0.3,0.6,0.1,0.8,0.3c0,0.4-0.4,0.3-0.5,0.7c0,0.4,0.3,0.4,0.5,0.6c0.2,0.1,0.3-0.2,0.3-0.1c0,0.3-0.5,0.1-0.5,0.3
	c-0.1,0.5,0.4,0.4,0.5,0.8c0,0.3-0.4,0.1-0.5,0.3c0,0.3,0.1,0.5,0.1,0.8c-0.3,0.2-0.4,0.6-0.6,0.8c-0.6-0.1-0.8,0.2-1.3,0.2
	c-0.2,0-0.3-0.2-0.5-0.3c-0.2-0.2-0.3-0.4-0.5-0.5c-0.1-0.1-0.2-0.6-0.3-0.8c-0.1-0.2-0.2-0.5-0.2-0.7c-0.1-0.4,0-0.9-0.1-1.3
	c-0.1-0.5-0.2-1-0.3-1.5c-0.2-2.8,0.1-6.1,0.1-8.8c0.3-0.6,0.2-1.5,0.7-1.8h0.1c0.4,0,0.5,0.2,0.9,0.1c0.2,0.1,0.3,0.3,0.4,0.4
	c0.3,0.1,0.6,0.2,0.8,0.4c0,0.1,0.1,0.3,0,0.5c0.2,0.5,0.6,0.8,0.8,1.3c0,0.3-0.1,0.4-0.1,0.5c0,0.3,0.3,0.2,0.2,0.5
	c-0.1,0.4-0.4,0.5-0.3,1c-0.3,0-0.3,0.3-0.5,0.3C441.7,554.5,441.8,554.6,441.8,554.8"/>
<path class="st1" d="M334.8,549.7c0.1,0,0.1,0.1,0.2,0.1c0.2,0.3,0.5,0.5,0.7,0.7h0.4c0.3,0.1,0.4,0.3,0.5,0.5
	c0.2,0.1,0.4,0.3,0.5,0.5c0.1,0.3-0.4,0.4-0.1,0.7c0,0.2-0.3,0.2-0.3,0.4c0,0.3,0.2,0.4,0.3,0.7c0.1,0.2-0.3,0.1-0.3,0.2
	c0.2,0.4,0.2,0.9-0.1,1.2c0,0.2,0.2,0.3,0.3,0.4c-0.1,0.2-0.4,0.3-0.4,0.5c0,0.2,0.1,0.3,0.1,0.5c0,0.2-0.3,0.2-0.4,0.3
	c0.2,0.3,0.4,0.6,0.4,1.1c0,0.3-0.4,0.3-0.5,0.5c0,0.4,0.2,0.5,0.3,0.7c-0.1,0.6,0.2,0.8,0.1,1.3c0,0.2-0.1,0.4-0.3,0.5
	c0,0.2,0.1,0.3,0.1,0.5c0.1,0.6-0.1,1.4-0.3,1.8c0,0.3,0.2,0.4,0.3,0.7c0,0.4-0.4,0.3-0.3,0.7c0.1,0.3,0.5,0.3,0.5,0.5
	c0,0.3-0.3,0.3-0.4,0.5c0,0.4,0,0.8,0.3,0.9c0,0.2-0.3,0.1-0.3,0.3c0.2,0.4,0.1,0.9-0.2,1.1c0.1,0.2,0.2,0.2,0.3,0.3
	c0,0.2-0.2,0.2-0.3,0.4c0.3,0.3,0,0.7-0.1,1.1c-0.1,0.4,0.3,0.3,0.2,0.6c-0.7,0.2-1.6,0.2-2.4,0c-0.5-0.7-0.3-2.5-0.3-3.5
	c0-0.1-0.3,0-0.3-0.1c-0.2,0.1-0.4,0.3-0.3,0.7c-0.6,0.1-1.2,0.1-1.3,0.6c-0.3,0.1-0.3-0.3-0.5-0.3c-0.2,0.1-0.1,0.4-0.3,0.5
	c-0.3,0-0.2-0.2-0.5-0.2c-0.3,0.1-0.5,0.2-0.7,0.3c-0.5,0.1-0.8-0.4-1.2-0.2c-0.1-0.1-0.1-0.2-0.3-0.2c-0.2,0-0.5,0.1-0.8,0.1
	c-0.2,0-0.3-0.3-0.5-0.3h-0.5c-1.1-0.8-1.9-1.9-2.1-3.7c-0.1-2.3,0.4-4.1,1-5.7c0.4-1.1,0.9-2,1.6-2.8c0.5-0.4,1-0.9,1.4-1.4
	c0.4-0.2,0.7-0.4,1.1-0.5c0.4-0.2,0.8-0.2,1.3-0.3h0.5c0.8-0.2,1.7,0.1,2.6,0.1c0.2-0.2,0.3-0.5,0.3-0.9
	C334.1,551.1,334.3,550.3,334.8,549.7 M332.2,555c-0.4,0-0.5,0.3-0.7,0.5c-0.3,0.3-0.7,0.5-1.1,0.7c-0.3,0.4-0.7,0.8-0.9,1.3
	c-0.3,0.4-0.5,1-0.9,1.3c-0.1,0.5-0.2,1-0.5,1.3c0,0.6-0.2,0.9-0.4,1.3v0.5c0,0.3-0.3,0.3-0.3,0.6c0.3,0.5,0.6,1.1,0.3,1.9
	c0.3,0.4,0.9,0.6,1.4,0.7c1.4,0.1,2-0.6,2.9-1c0.2-0.3,0.4-0.6,0.5-0.9c0.5-1,0.4-2.6,0.7-3.8c0.1-1,0.1-2,0.1-3.1
	c-0.2-0.2-0.1-0.7-0.2-1C332.8,555,332.6,554.9,332.2,555"/>
<path class="st1" d="M344.2,551.1c0,0.3-0.1,0.5-0.1,0.8c0.3,0.3,0.7,0.5,1.1,0.7c1.1-0.1,1.1-1.4,2.1-1.7c0.2,0,0.2,0.3,0.5,0.2
	c0.4,0,0.5-0.2,0.9-0.1c0.3,0,0.3,0.3,0.5,0.4c0.3,0,0.5,0.2,0.8,0.2c0.2,0.1,0.3,0.4,0.5,0.5c0.4,0,0.7,0.1,1.1,0.3
	c0,0.1,0.1,0.2,0.1,0.2c0.1,0.4-0.1,0.6-0.1,1c0,0.1,0.1,0.1,0.1,0.3c0.2,0.3,0.3,0.6,0.5,0.8c0.1,0.5,0.2,0.8,0.5,1.1
	c0,0.3-0.1,0.4-0.1,0.6c0,0.2,0.1,0.4,0.2,0.5c-0.1,0.8,0.4,1.4,0.6,2c0,0.7-0.6,1.1-0.3,1.7c0,0.3-0.3,0.2-0.3,0.4
	c0,0.3,0.1,0.3,0.2,0.5c0,0.2-0.2,0.3-0.2,0.5c0.1,0.4,0.3,0.7,0.3,1.1c-0.1,0.3-0.3,0.4-0.5,0.5c0.1,0.4-0.2,0.4-0.2,0.6
	c-0.1,0.3,0.4,0.1,0.4,0.3c0,0.3-0.2,0.3-0.2,0.5c0,0.3,0.2,0.3,0.1,0.5c0,0.4-0.3,0.6-0.3,1c0,0.3,0.4,0,0.5,0.1
	c0.1,0.9-1.1,0.6-0.9,1.7c-0.3,0.1-0.2-0.2-0.4-0.2c-0.3,0-0.2,0.3-0.3,0.3c-0.4-0.1-0.6-0.5-1.1-0.3c-0.4-0.9-0.2-1.9-0.1-2.9
	c0.1-2.4,0-4.9-0.1-7.3c-0.4-1.4-0.5-3.1-1.8-3.6c-0.5-0.1-0.8,0.1-1.1,0.2c-0.3,0-0.1-0.4-0.4-0.3c-0.2,0.1-0.2,0.3-0.2,0.5
	c-0.3,0.1-0.4,0.4-0.7,0.5c-0.3-0.1-0.6-0.3-0.8-0.1c-0.1,0.4,0.5,0.5,0.3,0.8c-0.4,0-0.2-0.5-0.5-0.6c-0.3,0-0.2,0.2-0.4,0.2
	c0,0.4,0.3,0.3,0.3,0.6c-0.2,0-0.2-0.1-0.4-0.1c0,0.3,0.1,0.5,0.1,0.9c-0.4,0.8-1.2,1.1-1.4,2c0,0.3,0.1,0.4,0.1,0.6
	c-0.1,0.3-0.5,0.8-0.3,1.2c-0.2,0.4-0.5,0.5-0.7,0.9c0,0.2,0.4,0.1,0.4,0.3c0,0.4-0.1,0.6-0.1,0.9h-0.5c0.1,0.6,0.1,1.3-0.1,1.8
	c0,0.4,0.4,0.6,0.2,0.9c0.1,0.3,0.3,0.5,0.4,0.7c-0.1,0.3,0,0.8-0.1,1.1c-0.4,0.1-0.7,0-1-0.1c-0.2,0.1-0.3,0.2-0.4,0.3
	c-0.2,0.1-0.3-0.1-0.5-0.1c-0.3,0-0.2,0.3-0.3,0.4c-0.6-0.2-0.8-0.8-0.7-1.7c-0.6-2.7,0-5.7,0.2-8.4c0.5-2.2,0.8-4.7,1.1-7.1
	c0.1,0,0.1-0.1,0.1-0.3c0.3-0.3,1-0.4,1.4-0.6c0.3,0.4,0.7,0.7,1.1,1C343.8,551.1,344,550.9,344.2,551.1"/>
<path class="st1" d="M208.7,551.1c0,0.2,0,0.3,0.1,0.3c0.5-0.2,0.8,0.1,1.1,0.3c0.2,0,0.3,0,0.4-0.1c0.3,0.2,0.6,0.4,1,0.5
	c0.3,0,0.2,0.4,0.4,0.4c0.3,0.1,0.2-0.3,0.5-0.3c0.1,0.3,0.2,0.6,0.2,0.9c0.1,0.2,0.2,0.3,0.4,0.4c0,0.5,0.5,0.6,0.6,1
	c0,0.3,0,0.4-0.1,0.7c0.1,0.3,0.5,0.3,0.7,0.6c0.2,0.3,0.3,0.7,0.6,1c-0.1,0.2-0.3-0.2-0.5,0c-0.2,0.2,0.1,0.4-0.1,0.7
	c-0.3,0.3-0.7,0.3-1.1,0.1c-0.4,0-0.5,0.4-0.8,0.5c-0.4,0-0.5-0.2-0.9-0.2c-0.3,0-0.4,0.1-0.6,0.2c-0.5,0.1-1,0.1-1.5,0.2
	c-1.5,0-3,0-4.4,0.1c-0.3,0.1-0.5,0.4-0.7,0.7c-0.2,0.1-0.5,0.2-0.7,0.3c-0.1,0.3,0.2,0.2,0.2,0.4c0,0.2-0.2,0.3-0.3,0.5
	c0,0.4-0.2,0.7-0.1,1.1c-0.1,0.1-0.1,0.4-0.3,0.5c0,0.3,0.2,0.3,0.3,0.4c0,0.3-0.4,0.3-0.5,0.6c-0.1,0.7,0.2,1,0.1,1.6
	c0,0.2,0.2,0.3,0.2,0.5v1.5c0.1,0.3,0.3,0.5,0.5,0.7c1.6-0.1,2.7-0.8,4-1.3c0.3-0.3,0.5-0.6,0.9-0.7c0.3-0.2,0.4-0.7,1-0.7
	c0.2,0.2,0,0.2,0.1,0.5c0,0.2,0.2,0.2,0.3,0.3c0.3,0.1,0.4-0.1,0.7-0.1c0.1,0.2,0.1,0.5,0,0.7c-0.1,0.3,0.2,0.2,0.2,0.5
	c-0.5,0.3-0.9,0.8-1.5,0.9c-0.2,0-0.2,0.4-0.4,0.5c-0.3,0-0.3-0.1-0.6-0.1c-0.2,0.1-0.2,0.5-0.3,0.6c-0.5,0-0.7,0.2-1.1,0.1
	c-0.5,0.4-1.1,0.8-2,0.7c-0.2,0-0.3-0.1-0.4-0.1h-0.9c-1.4-0.1-2.3-0.7-3-1.5c-0.5-0.8-0.8-1.8-0.9-3c0-0.9-0.1-1.7,0-2.6
	c0.1-0.7,0.3-1.2,0.3-1.8c0-0.7,0.1-1.2,0.1-1.7c0.4-0.8,0.6-1.8,0.9-2.6c0.3-0.9,0.7-1.6,1.2-2.2c0.4-0.7,1.2-1.1,1.7-1.7
	c0.4-0.2,0.7-0.5,1.1-0.7c0.4-0.2,0.8-0.3,1.3-0.4h0.5c0.2-0.3,0.7,0,1-0.1c0.1,0.1,0.3,0.2,0.4,0.4
	C208.4,551.3,208.4,551.1,208.7,551.1 M210.1,554.8c-0.2-0.4-0.5-0.6-0.7-0.9c-0.4-0.2-0.7-0.5-1.1-0.7c-0.1,0-0.4,0.1-0.4-0.1
	c-0.3,0.1-0.4,0-0.7,0c-0.7,0.2-1.1,0.7-1.6,1.1c-0.3,0.6-0.8,1-1.1,1.8c0.5,0.2,0.8,0.4,1.4,0.5c0.6-0.2,1.5-0.4,2.2-0.1
	c0.2,0,0.2-0.2,0.4-0.1c0.1,0.1,0.2,0.2,0.5,0.1c0.4-0.1,0.6-0.3,1-0.2c0.2-0.1,0.3-0.3,0.4-0.4c0.1,0.1,0.3,0.1,0.4,0.1
	C210.6,555.3,210.4,555,210.1,554.8"/>
<path class="st1" d="M393.2,553.8c0.1,0.2,0.2,0.5,0.3,0.7c0.3,0.1,0.3,0,0.6,0c0.4,0.3,0.7,0.7,1.1,0.9c0.2,0.4,0.3,0.8,0.5,1.2
	c0.1,0.3-0.1,0.3-0.1,0.5c0.3,0.3,0.8,0.4,1,0.7c0,0.3-0.1,0.5-0.1,0.8c-0.1,0.1-0.2,0.3-0.2,0.5c-0.2,0.3-0.5,0.4-0.5,0.8
	c-1,0.1-1.9,0.4-2.9,0.6c-0.5,0.1-1,0.2-1.5,0.3c-0.2,0-0.5,0.2-0.7,0.2c-2.1,0.4-4.6,0.5-6.9,0.9c-0.3,0.1-0.2,0.5-0.5,0.7
	c0,0.3,0.3,0.2,0.3,0.5c-0.1,0.2-0.3,0.4-0.3,0.6c-0.1,0.3,0.3,0.3,0.3,0.5c0.1,0.3-0.3,0.2-0.3,0.5c0.1,0.3,0.6,0.2,0.9,0.3
	c0.1,0.2,0.2,0.5,0.3,0.7c0.3,0.1,0.2,0.5,0.5,0.5c0.1,0.3,0.2,0.5,0.3,0.7c0.5,0.1,0.8,0.3,1.1,0.5c0.5,0.1,1,0.2,1.7,0.1
	c0.3-0.2,0.6-0.4,0.9-0.5c0.2-0.1,0.3-0.3,0.4-0.5c0.3,0,0.3-0.2,0.5-0.2c0.2-0.3,0.4-0.5,0.5-0.7c0.3,0,0.5-0.1,0.8-0.1
	c0.2,0.2,0.2,0.5,0.3,0.7c0.5-0.1,0.8,0.1,0.9,0.5c-0.5-0.1-0.5,0.5-0.8,0.6c0,0.2,0.1,0.4,0.1,0.7c-0.2,0.1-0.4,0.2-0.7,0.1
	c-0.5,0.4-0.7,1-1.2,1.3c-0.7-0.2-1.3,0.2-1.9,0.3c-0.5-0.1-0.8-0.1-1.4-0.1c-0.7-0.1-1.2-0.5-1.9-0.7h-1c-1.3-0.5-2.3-1.2-3-2.2
	c-0.5-0.4-0.5-1.2-0.9-1.8c-0.2-0.6-0.4-1.4-0.4-2.1c0-1.2,0.3-2.5,0.6-3.5c0.2-1.1,0.8-1.9,1.1-2.9c0.5-0.8,0.9-1.8,1.5-2.5
	c0.6-0.7,1.4-1.3,2.3-1.7c0.1,0,0.1,0,0.1-0.1c0.3,0,0.5,0.1,0.7,0.1c1.6,0,3.1,0.1,4.4,0.3c0.7,0.2,1.2,0.6,1.8,0.9
	C392.7,553.7,393,553.7,393.2,553.8 M390.2,555.1c-0.9-0.1-1.6-0.1-2.4,0.1c-0.4,0.2-0.8,0.5-1.1,0.8c0,0.3-0.2,0.4-0.2,0.7
	c-0.3,0.1-0.6,0.3-0.8,0.5c0,0.5-0.4,0.6-0.6,0.9c-0.1,0.3-0.1,0.9,0,1.1c0.3,0,0.6,0,0.7-0.1c0.2,0.1,0.2,0.3,0.5,0.2
	c0.4-0.1,0.5-0.5,0.9-0.5c0.2,0,0.2,0.2,0.4,0.3c0.2,0,0.4-0.2,0.7-0.1c0.3-0.2,0.5-0.5,0.9-0.7c0.2,0.1,0.3,0.2,0.4,0.3
	c0.4-0.1,0.5,0.2,0.8,0.3c0.1-0.1,0.3-0.2,0.6-0.2c0-0.3,0.1-0.4,0.3-0.4c0.2,0,0.1,0.4,0.4,0.3c0.3-0.3,0.8-0.4,1.1-0.7
	C392.4,556.5,391.3,555.8,390.2,555.1"/>
<path class="st1" d="M233.2,554.8v0.6c1,0.2,1.5,0.8,2,1.5c0,0.6,0.3,0.9,0.5,1.2c0.1,0.2,0,0.3,0.1,0.5c0.1,0.3,0.4,0.4,0.5,0.7
	c-0.4,1.3-2.6,0.8-3.9,0.6c-2,0.3-4,0.5-5.7,1c-0.2,0.2-0.2,0.6-0.3,0.9c-0.2,0.2-0.4,0.3-0.5,0.6c0,0.5-0.1,0.9-0.2,1.2
	c0,0.4-0.1,0.8-0.3,1c0.2,0.3,0.1,0.8-0.2,0.9c0.2,0.4,0.1,0.6,0,1c0,0.3,0.2,0.5,0.3,0.8c-0.2,0.6,0.2,0.9,0.2,1.4
	c0.4,0.3,1.1,0.4,1.8,0.4c1.3-0.5,2.2-1.3,3.1-2.2c0.5-0.4,0.9-0.9,1.3-1.3c0.5-0.3,0.8-0.9,1.7-0.9c0.3,0,0.2,0.3,0.4,0.5
	c0.2,0.1,0.2,0.3,0.3,0.5v0.5c-0.2,0.9-1,1.3-1.4,2c-0.5,0.2-0.6,0.7-1.1,0.9c-0.1,0.2-0.2,0.4-0.3,0.6c-0.2,0.1-0.4,0.2-0.5,0.4
	c-0.2,0-0.3,0.2-0.5,0.1c-0.3,0.1-0.4,0.4-0.7,0.5c-0.2,0-0.3,0.1-0.3,0.2c-0.6-0.1-0.9,0.2-1.3,0.3c-1.2,0-2.7,0.4-3.7-0.1
	c-0.3-0.3-0.6-0.4-0.7-0.9c-0.4-0.1-0.5-0.3-0.8-0.5c-0.5-0.6-0.9-1.3-1-2.2c-0.2-0.9-0.2-1.9-0.5-2.7c-0.2-2.5,0.5-4.4,1.2-6.2
	c0.1-0.3,0.3-0.7,0.4-1c0.4-0.8,1.2-1.6,1.8-2.4c0.8-0.7,1.7-1.4,3-1.7h1c0.3,0,0.3,0.2,0.6,0.2c0.3,0,0.5-0.2,0.8-0.2
	c0.5,0,0.8,0.2,1.2,0.2c0.4,0.1,0.7,0.4,1.1,0.6C232.6,554.7,233,554.7,233.2,554.8 M231.9,556.5c-0.9-0.3-2.4-0.7-3.4-0.2
	c-0.3,0.3-0.5,0.6-0.7,0.9c0,0-0.1,0-0.1,0.1c0,0.1-0.1,0.2-0.1,0.3c-0.1,0.1-0.3,0.2-0.3,0.5c0.9,0,1.6-0.3,2.3-0.5
	c0.4-0.1,0.6,0.1,0.9,0.1c0.4-0.2,1.2-0.2,1.7-0.3C232.3,556.9,232.1,556.7,231.9,556.5"/>
<path class="st1" d="M287.7,555.4c0,0.5-0.8,0.5-0.5,1.1c0.4,0.1,0.3-0.3,0.7-0.3c0.1,0.3,0,0.8,0.1,1.3c-0.2,0-0.2-0.1-0.3-0.1
	c-0.2,0-0.2,0.2-0.3,0.3c-0.1,0.5,0.3,0.6,0.6,0.7c-0.1,0.4-0.6,0.3-0.7,0.6c0,0.4,0.3,0.3,0.3,0.6c0,0.5-0.6,0.4-0.7,0.7
	c0.1,0.6,0.7,0,1.1,0.1c0.1,0.3,0.2,0.5,0.2,0.9c0,0.3-0.2,0.3-0.2,0.5c0.1,0.4,0.5,0.6,0.5,1.1c0,0.3-0.4,0.2-0.5,0.4
	c-0.1,0.5,0.2,0.4,0.1,0.9c-0.3,0-0.4-0.3-0.6-0.1c0,0.4,0.3,0.6,0.3,1c0,0.3-0.3,0.4-0.5,0.5c0,0.2,0.2,0.3,0.3,0.4
	c-0.2,0.4,0.1,0.7,0,1.2c-0.1,0.2-0.4,0.3-0.5,0.5c0,0.3,0.2,0.4,0.2,0.6c-0.1,0.1-0.4,0-0.4,0.2c-0.1,0.4,0.2,0.3,0.3,0.5
	c0,0.2,0,0.5-0.1,0.6c-0.6-0.3-1.5-0.1-1.7,0.3c-0.3-0.1-0.5-0.3-0.7-0.5c-0.3-1.3-0.5-2.8-0.6-4.4c-0.2-2.4,0-4.9-0.1-7.4
	c0.1-0.6,0.1-1.3,0.3-1.8c0.4-0.2,0.7-0.5,0.9-0.9c0.2-0.1,0.5-0.1,0.6-0.3c0.3,0.1,0.5,0.2,0.7,0.3
	C287.1,555.2,287.5,555,287.7,555.4"/>
<path class="st1" d="M467.1,562.2c0.1,0.9-0.2,1.5-0.3,2.2c0,0.2-0.4,0.2-0.5,0.3c-0.2,0.1-0.3,0.3-0.4,0.4v0.9
	c-0.2,0.1-0.4,0.1-0.5,0.2c0,0.2-0.2,0.3-0.2,0.6c0,0.3-0.3,0.2-0.3,0.5c0,0.3,0.2,0.3,0.2,0.6c-0.7,0.6-2.1,0.4-2.5-0.3
	c0.2-2.1,0.8-3.7,2-4.8C465.2,562.5,466,561.9,467.1,562.2"/>
<path class="st2" d="M432.8,229.7c3.3,1,6.4,2.5,6.4,2.5c-5.4-9.7-14.1-14.7-21.4-17.3c-1.7-0.5-3.3-0.9-4.9-1.3
	c2-1.6,3.6-3.2,4.8-4.7c2.5-3.3,3.7-6.7,3.7-6.7c0.7,2.3,1.1,5.1,1.1,5.1c5.7-10.2,5.7-23.6,5.7-23.6c1.6,1.3,2.8,3.2,2.8,3.2
	c0.3-12.7-3.1-24.6-3.1-24.6c1.4,1,2.6,2.1,2.6,2.1c-1.5-16-4.4-31.8-9.2-47.1c-1.3-4.3-2.8-8.5-4.4-12.7c-1.1-2.8-2.3-5.6-3.6-8.4
	c-4.4-9.1-11.1-19.5-21-23.3c-12.2-4.6-22.6,7.8-28.2,16.5c-7.6,11.6-12.6,24.6-14.8,38.3c-1.2,7.6-1.7,15.4-1.5,23.1
	c0,0.5,0,0.9,0.1,1.4c-0.8,1.3-1.1,2.3-1.1,2.3c-5.4-15.9-18.3-18.6-18.3-18.6c6.9,9.3,5.9,16.6,5.9,16.6
	c-12.6-22.3-31.6-23.1-31.6-23.1c13.7,7.8,15.1,22.4,15.1,22.4c-9.7-14.1-21.3-12.3-21.3-12.3c9.4,6.7,8.4,14.8,8.4,14.8
	c-20.1-12-36.7-1.6-46.5,12.1c-1.5-4.1-3.2-8.7-4.9-12.7c-0.7-1.7-1.5-3.4-2.3-5.2c-0.3-0.6-0.5-1.1-0.8-1.7
	c-6.7-13.3-14.9-26.3-25.7-36.7c-6.4-6.2-13.7-11.8-21.8-15.8c-8.3-4.1-17.8-7.5-29.3-6.2c-5,0.6-10.6,2.9-14.8,5.5
	c-19.7,12.4-23.1,38.7-22.8,60.1c0.5,34.1,10.1,58.1,10.1,58.1c0.5-4.1,2.2-6,2.2-6c1.2,7,10.3,27.9,10.3,27.9
	c0.3-4,1.1-6.4,1.1-6.4c9.4,22.1,21.9,27.3,21.9,27.3c-1.4-2.7-1.1-5.1-1.1-5.1c4.4,4.5,9.1,7,13.8,8.2c-6.3,9.2-6.1,17.4-6.1,17.4
	c1.7-2.2,3.7-3.6,3.7-3.6c0.4,26.7,6.7,32.5,6.7,32.5c0-3.9,0.9-8,0.9-8c5.9,20.9,18.1,24.7,18.1,24.7c-2.5-3.3-4.1-8.4-4.1-8.4
	c11.8,10.7,25.9,14.3,25.9,14.3c-2.3-3-3.8-6.1-3.8-6.1c9.7,2.6,19.7,4,29.5,6.1c13.1,2.8,24.9,6.6,35.7,14.9
	c4.7,3.7,8.4,8.5,13,12.3c6.8,5.7,17,9.9,26.2,10.3c37.6,1.8,46.2-50.8,46.2-50.8c24.6-9.8,27.9-29.2,27.9-29.2
	c8.8-5.2,13.2-14.2,13.2-14.2c1.1,2.2,1.1,6.2,1.1,6.2c8.3-10.9,6.7-29.6,6.7-29.6c2.2,0.9,4,2.9,4,2.9
	C440.1,236.5,432.8,229.7,432.8,229.7"/>
<path class="st3" d="M361.6,146.3c-1.1-0.4-0.2-9.6-0.2-10.4c0.3-8.1,1.5-16.2,4.1-24c3.6-10.6,9.1-28.1,22-30.5
	c0,0,20.7-3.9,32.4,62.7c0,0,9.9,58.5-12,60.6c0,0-12-0.4-18.5-7.1C389.8,187.5,382.7,154.5,361.6,146.3"/>
<path class="st3" d="M224.6,137.1c14.5,27.6,30.7,88.9,4.2,83.5c-28.5-5.8-21.9,22.5-49,11.3c-19.1-7.8-34.6-52.4-34.9-75.5
	c-0.3-19.9,2.6-52.5,28.7-55.7C194.9,98.1,213.8,116.5,224.6,137.1"/>
<path class="st4" d="M368,223.3c0,0-10.4-9.7-10.4-25.3c0,0-3.4-22.7,13.8-23.1c0,0,18-1,24.1,26c0,0,2.4,17-11.3,26.7
	C384.1,227.7,377,228.7,368,223.3"/>
<path class="st0" d="M369,191.4c-4.9,0-9.4,1.9-12.7,5c0,1.3,0,2.2,0,2.2c0,15.2,11.6,23.5,11.6,23.5s7.2,4.4,10.7,4.4
	c1.3-0.4,9.3-7.4,9.2-16.2C387.7,199.8,379.4,191.4,369,191.4"/>
<path class="st5" d="M421.3,231.3c2.4-0.1,6,1.7,6,1.7c-4.1-13.3-21.2-19.3-33.3-18.4c-1.2,3-3.5,8-8.3,11.9
	c-15.6,0.2-23.4-9.8-23.4-9.8c-7.4-9-20.9-3.1-26.5,7.3c-4,7.6-7.2,15.1-14.4,20.3c-6.2,4.5-13.8,6.4-21.3,7
	c-6.4,0.5-12.8-0.3-19-2.2c-8.8-2.7-17-6.9-25.8-9.5c-4.6-1.3-9.2-2.4-13.9-3.1c-5-0.7-10.1-0.9-15.2-0.5c-0.8,0.1-1.7,0.2-2.5,0.4
	c0,0,2.9,1,6.3,3.4c-18.4,0.2-29.2,12.4-29.2,12.4s4.2-0.9,9.8-1.3c-11.4,12.2-10.7,28.9-10,27.4c1-2.4,4.2-5.4,4.2-5.4
	c0.2,26.1,13.9,32.7,13.9,32.7c-2.6-2.8-3.2-6.8-3.2-6.8c3.2,4.2,14.5,11.1,40.2,17.1c25.7,6,37.6,11.1,37.6,11.1
	c-1.6-4.9-3.2-10.4-3.2-10.4c27.7,40,49.2,38.3,49.2,38.3c18.6,0,28.9-12.2,34.8-30.3l-19.2,0.9l-5.7-17.4c17.3,1.3,31.5-2,31.5-2
	c32.7-9.1,32-46.6,32-46.6c2.6,7,2.2,13.9,2.2,13.9c9.7-7.6,10.5-26,10.5-26c1.8,2.2,2.8,4,2.8,4
	C430.9,238.5,421.3,231.3,421.3,231.3"/>
<path d="M346.2,156.6c0.2-0.2,0.1-1.2,0.1-1.5c0.1-0.5,0.1-1,0.2-1.5c0.2-1,0.6-1.9,1.1-2.8c2.7-4.8,8.1-6.6,13.3-5.7
	c4.4,0.7,8.4,2.8,11.6,5.8c3.7,3.3,6.5,7.5,8.5,12c1.5,3.4,2.4,6.6,3.3,10.8c-3.6-6.6-5.9-10.5-10-15c-1.1-1.3-2.4-2.5-3.7-3.5
	c-1.2-1-2.4-1.8-3.7-2.6c-4.2-2.4-9.4-3.6-14.1-1.5c-1.2,0.6-2.5,1.3-3.6,2.2C348.3,154.2,347.3,155.4,346.2,156.6"/>
<path d="M308.1,167.4c-5.7-5-12.8-5.5-15.5-5.6c-5.4-0.2-10.7,1.7-15.2,4.6c-7.6,4.9-12.6,12.6-16.5,20.6c-1.1,2.3-1.9,4.8-3.1,7.1
	c0-3,0.7-6,1.4-9c2.7-11.7,10.7-24.5,23.4-27.8c3.2-0.8,7.2-1.2,10.4-0.7C299.2,157.7,306.1,162.2,308.1,167.4"/>
<path d="M376,321.1l-15.3,1.4l-6.3-6.5l-2.5-4.5c-0.1,0-0.2,0-0.3,0c-0.9-1.7-1.5-3.1-1.5-3.1h0l0,0c-14.5-2-32.4-5.4-50.2-16.1
	c-25.4-15.2-44.9-10.3-44.9-10.3s19.9,0.9,35.3,21.6c24.6,32.9,37.2,43,53.1,43.3c10.1,0.2,20.8-4.1,26.7-12.2
	c2.6-3.6,4.6-7.9,5.8-12.1C376,321.7,375.7,321.1,376,321.1"/>
<path class="st4" d="M306.6,239.4c23-8.9,12.7-34.2,12.7-34.2c-12.3-26.3-31.1-20.4-31.1-20.4s-10.3,1.1-17.7,16
	c-5.2,10.6-4,18.6-4,20c0,0,0.4,21.5,24.9,21.5c-10.2-1.1-16.6-9.5-16.6-19.9c0-11.2,9.1-20.3,20.3-20.3c11.2,0,20.3,9.1,20.3,20.3
	C315.3,229.4,312.1,235.7,306.6,239.4"/>
<path d="M304.9,240.3c1.5-1,3.1-1.7,4.6-2.6c0.7-0.5,1.4-1,2.1-1.5c0.7-0.6,1.3-1.2,1.9-1.8c1.2-1.2,2.3-2.6,3.2-4
	c0.9-1.4,1.7-3,2.3-4.5c1.2-3.2,1.6-6.5,1.5-9.9c-0.2-3.4-0.9-6.7-2.1-9.8c-2.4-6.3-6.5-11.9-11.8-15.6c-2.7-1.8-5.6-3.1-8.7-3.8
	c-0.4-0.1-0.8-0.2-1.2-0.2c-0.2,0-0.4-0.1-0.6-0.1l-0.3,0l-0.3,0c-0.8-0.1-1.5-0.1-2.3-0.1c-1.5,0-3.1,0.3-4.6,0.7
	c-1.5,0.4-2.9,1-4.3,1.7c-1.4,0.7-2.7,1.7-4,2.7c-2.5,2-4.7,4.5-6.5,7.3c-1.8,2.8-3.3,5.8-4.4,9c-1,3.2-1.7,6.5-1.7,9.8
	c0,0.8,0,1.7,0.1,2.5c0.1,0.8,0.2,1.6,0.4,2.5c0.3,1.7,0.8,3.3,1.4,4.9c0.6,1.6,1.3,3.1,2.2,4.5c0.9,1.4,2,2.7,3.2,3.8
	c2.5,2.3,5.6,4,8.9,5.1c3.3,1.1,6.8,1.6,10.4,1.5c-3.5,0.4-7.1,0.3-10.7-0.5c-3.5-0.8-6.9-2.3-9.8-4.6c-1.5-1.1-2.8-2.5-3.9-4
	c-1.1-1.5-2-3.1-2.8-4.8c-0.8-1.7-1.4-3.4-1.9-5.2c-0.2-0.9-0.4-1.8-0.6-2.8c-0.1-0.9-0.3-1.9-0.3-2.8c-0.2-3.7,0.2-7.5,1.2-11.1
	c0.9-3.6,2.4-7.1,4.3-10.3c1.9-3.2,4.3-6.3,7.2-8.8c2.9-2.5,6.4-4.6,10.2-5.6c1.9-0.5,3.9-0.8,5.9-0.9c1,0,2,0,3,0.1l0.4,0l0.3,0
	c0.3,0,0.5,0.1,0.7,0.1c0.5,0.1,1,0.2,1.4,0.3c1.9,0.4,3.8,1.1,5.6,1.9c1.8,0.8,3.4,1.9,5,3c3.1,2.3,5.7,5.2,7.7,8.4
	c2.1,3.2,3.6,6.6,4.7,10.2c1.1,3.6,1.6,7.3,1.6,11c-0.1,3.7-0.8,7.5-2.4,10.8c-1.6,3.4-3.9,6.3-6.7,8.6c-1.2,1.1-2.6,2-4,2.8
	c-1.4,0.7-2.8,1.3-4.2,1.9c-0.2,0.1-0.4,0.2-0.6,0.2C305.4,240.1,305.1,240.2,304.9,240.3"/>
<path d="M286.2,242c7.8,0.9,18.4-0.1,26.8-5.8c2.9-3.7,4.6-8.3,4.6-13.4c0-12-9.7-21.7-21.7-21.7c-12,0-21.7,9.7-21.7,21.7
	C274.2,231.3,279,238.4,286.2,242"/>
<path class="st0" d="M305.5,240.1c6.1-3.4,10.2-9.9,10.2-17.3c0-10.9-8.9-19.8-19.8-19.8c-10.9,0-19.8,8.9-19.8,19.8
	c0,10,7.4,18.3,17.1,19.6C293.6,242.4,301.9,241.5,305.5,240.1"/>
<path d="M310.5,223.2c0,7.8-6.3,14.2-14.2,14.2c-7.8,0-14.1-6.3-14.1-14.2c0-7.8,6.3-14.2,14.1-14.2
	C304.2,209.1,310.5,215.4,310.5,223.2"/>
<path class="st4" d="M306,210.9c0,2.1-1.7,3.8-3.8,3.8c-2.1,0-3.8-1.7-3.8-3.8c0-2.1,1.7-3.8,3.8-3.8
	C304.3,207.1,306,208.8,306,210.9"/>
<path d="M374.8,222.2c4.6-2.1,7.8-6.7,7.8-12c0-7.3-5.4-13.1-12.7-13.1c-5.3,0-10.3,2.7-13.1,7.2c-0.3,0.4,3.2,12.1,13.1,18.1
	C369.9,222.4,370.9,224,374.8,222.2"/>
<path class="st4" d="M380.2,199.7c0,1.8-1.5,3.3-3.3,3.3c-1.8,0-3.3-1.5-3.3-3.3c0-1.8,1.5-3.3,3.3-3.3
	C378.7,196.5,380.2,197.9,380.2,199.7"/>
<path d="M394.5,194.9c-1.8-5.6-4.5-11-8.8-15.3c-2.1-2.2-4.7-4-7.6-5.3c-5.6-2.4-12.4-2-16.8,2.2c-4,3.9-6,9.2-6.5,14.8
	c-0.1,1.5-0.1,3,0,4.5c0.3,4.4,1.1,8.7,2.7,12.8c1,2.5,2.3,4.9,3.9,7c1.1,1.5,2.5,2.9,3.9,4.1c2.2,1.9,4.8,3.4,7.5,4.5
	c2.2,0.9,4.4,1.5,7,1.9l0.4-0.2c0.9-0.6,1.8-1.3,2.6-2c2.1-2,3.7-4.6,4.6-7.4c1.9-5.5,1.4-11.9-1.7-16.9c-1.5-2.5-3.6-4.7-6.1-6.2
	c-2.5-1.5-5.4-2.5-8.3-2.7c-2.9-0.3-5.9,0.1-8.6,1.1c-1.4,0.5-2.8,1.2-4.1,2.1c0.4-3.5,1.3-6.9,3.1-9.8c3-4.8,8.5-7.8,14.1-6.1
	c3.5,1.1,6.5,3,9.1,5.8c0.7,0.7,1.3,1.5,1.9,2.3c2.2,2.9,3.9,6.2,5.2,9.6c2,5.2,2.7,10.9,1.5,16.5c-1.1,5.5-3.9,10.6-8.1,14.5l0.6,0
	c4.3-3.3,7.5-8.8,9-14.2C396.7,206.6,396.3,200.5,394.5,194.9 M371.3,192.3c2.7,0.2,5.3,1.1,7.6,2.5c2.3,1.4,4.2,3.4,5.6,5.7
	c2.8,4.6,3.3,10.4,1.5,15.5c-0.9,2.5-2.3,4.9-4.2,6.7c-1,0.9-2.1,1.7-3.3,2.3c-4.5-1.2-8.9-3-12.2-6.3c-4.2-4.1-6.8-9.7-7.5-15.5
	c-0.3-2.3-0.4-4.8-0.2-7.2C362.1,193.2,366.8,191.9,371.3,192.3"/>
<path class="st4" d="M375.1,310c-0.6,0.1-1.3,0.6-1.6,1.1l-1.9,3.4c-0.3,0.5-0.8,0.9-1.1,0.9c-0.3,0-0.7-0.4-1-1l-1.2-2.5
	c-0.2-0.5-0.9-0.9-1.5-0.9c-2.1,0.1-9.1,0.5-15.3,0.2v0c0.6,1.2,1.2,2.5,1.8,3.5l3.7,6.5c0,0,1.7,2.6,4.4,2.6c0,0,7.9-0.3,15.6-2.2
	c0.5-0.1,1.3-0.3,1.7-0.5c0.2-0.1,0.4-0.3,0.6-0.6c0.3-0.4,0.6-1.2,0.9-1.6c0.8-1.3,3-6.4,4.7-11.5
	C384.4,307.8,380.7,309.1,375.1,310"/>
<path d="M404.1,235.1c0.5-0.3,0.9-0.6,1.3-0.9c0.9-0.6,1.8-1.1,2.7-1.7c1.9-1.1,3.7-2.2,5.6-3.2c3.8-2,7.7-3.9,11.7-5.5
	c8-3.4,16.2-6,24.7-7.8c8.5-1.8,17.1-2.8,25.8-2.7c4.3,0,8.7,0.2,13,0.7c4.3,0.5,8.6,1.3,12.8,2.3c0.1,0,0.2,0,0.3-0.2
	c0-0.1,0-0.2-0.2-0.3c-2.1-0.6-4.2-1.1-6.3-1.6c-2.1-0.5-4.3-0.8-6.5-1.2c-4.3-0.7-8.7-1-13.1-1.2c-4.4-0.1-8.8,0-13.1,0.4
	c-4.4,0.4-8.7,1-13,1.9c-8.6,1.7-17,4.3-25.2,7.6c-4.1,1.7-8,3.5-11.9,5.6c-1.9,1-3.9,2.1-5.8,3.2c-0.9,0.6-1.9,1.1-2.8,1.7
	c-0.5,0.4-1.1,0.7-1.7,1.2C402.9,233.9,403.6,234.5,404.1,235.1"/>
<path d="M504.8,246.8c-1.9-0.7-3.9-1.4-5.8-2c-1.9-0.6-3.9-1.2-5.9-1.8c-3.9-1.1-7.9-2.1-12-3c-8.1-1.6-16.2-2.7-24.5-3
	c-8.2-0.4-16.5,0-24.7,0.9c-4.1,0.5-8.2,1.2-12.2,2.1c-2,0.4-4,0.9-6,1.5c-1,0.3-2,0.6-3,0.9c-0.4,0.2-1.1,0.3-1.5,0.5
	c0.3,0.7,0.7,1.4,0.9,2.1c1-0.4,3.2-1,4.2-1.3c1.9-0.5,3.9-1,5.9-1.5c4-0.9,8-1.6,12-2.1c8.1-1.1,16.2-1.4,24.3-1.2
	c8.1,0.2,16.2,1.1,24.3,2.5c4,0.7,8,1.5,12,2.5c2,0.5,4,1,5.9,1.6c2,0.6,3.9,1.1,5.9,1.8c0.1,0,0.3,0,0.3-0.1
	C505,247,504.9,246.9,504.8,246.8"/>
<path d="M495.3,273.4c-1.6-0.8-3.3-1.6-5-2.4c-1.7-0.8-3.4-1.5-5-2.2c-3.4-1.5-6.8-2.8-10.3-4.1c-6.9-2.5-14-4.7-21.2-6.5
	c-7.2-1.8-14.5-3-21.8-3.8c-3.7-0.4-7.4-0.6-11.1-0.7c-1.9,0-3.7,0-5.6,0c-0.9,0-2.9,0.1-2.9,0.2c0.2,1,0.2,2.3,0.2,2.3
	s1.9-0.1,2.8-0.2c1.8-0.1,3.6-0.1,5.5,0c3.6,0.1,7.3,0.3,10.9,0.6c7.3,0.7,14.5,1.9,21.6,3.5c7.1,1.6,14.2,3.6,21.1,5.9
	c3.5,1.2,6.9,2.4,10.3,3.7c1.7,0.7,3.4,1.3,5.1,2.1c1.7,0.7,3.4,1.4,5.1,2.1c0.1,0,0.2,0,0.3-0.1
	C495.5,273.6,495.5,273.5,495.3,273.4"/>
<path d="M375.5,231.4c16.7-4.2,31.9,12.6,31.6,28c-0.2,16.3-7.2,33.4-19.6,37.2c-12.4,3.8-29.2-8.9-32.3-31.4
	C353.3,251.9,359.1,235.6,375.5,231.4"/>
<path class="st2" d="M385.1,254.1c0,0.5-0.4,0.8-0.8,0.8c-0.5,0-0.8-0.4-0.8-0.8c0-0.4,0.4-0.8,0.8-0.8
	C384.7,253.3,385.1,253.7,385.1,254.1"/>
<path class="st2" d="M383.3,244.4c0,0.7-0.6,1.3-1.3,1.3c-0.7,0-1.3-0.6-1.3-1.3c0-0.7,0.6-1.3,1.3-1.3
	C382.7,243.1,383.3,243.7,383.3,244.4"/>
<path class="st2" d="M389.7,241.2c0,0.6-0.5,1.2-1.2,1.2c-0.7,0-1.2-0.5-1.2-1.2c0-0.6,0.5-1.2,1.2-1.2
	C389.2,240.1,389.7,240.6,389.7,241.2"/>
<path class="st2" d="M395.6,249.3c0,0.6-0.5,1-1.1,1c-0.6,0-1.1-0.5-1.1-1c0-0.6,0.5-1.1,1.1-1.1
	C395.1,248.3,395.6,248.8,395.6,249.3"/>
<path class="st2" d="M391.1,255c0,0.7-0.6,1.3-1.3,1.3c-0.7,0-1.3-0.6-1.3-1.3c0-0.7,0.6-1.3,1.3-1.3
	C390.5,253.7,391.1,254.3,391.1,255"/>
<path class="st2" d="M394.5,259.1c0,0.7-0.6,1.3-1.3,1.3c-0.7,0-1.3-0.6-1.3-1.3c0-0.7,0.6-1.3,1.3-1.3
	C393.9,257.8,394.5,258.4,394.5,259.1"/>
<path class="st2" d="M390.7,247.5c0,1.5-1.1,2.8-2.7,2.8c-0.9,0-2.5-1.2-2.5-2.8c0-1.5,0.9-2.8,2.5-2.8
	C389.5,244.7,390.7,245.9,390.7,247.5"/>
<path d="M327.6,271.9l-1.5,0c-1,0-2,0.1-3,0.2c-2,0.1-4,0.3-5.9,0.6c-3.9,0.5-7.9,1.2-11.8,2c-7.8,1.6-15.5,3.9-23,6.6
	c-7.5,2.7-14.8,6-21.8,9.8c-3.5,1.9-7,3.8-10.4,6c-1.7,1.1-3.4,2.1-5.1,3.2c-1.7,1.1-3.3,2.2-5,3.4c-0.1,0.1-0.2,0-0.3-0.1
	c-0.1-0.1,0-0.2,0.1-0.3c3.2-2.5,6.4-4.8,9.8-7c3.4-2.2,6.8-4.3,10.3-6.3c7-3.9,14.3-7.4,21.8-10.3c7.5-2.9,15.3-5.2,23.2-7
	c3.9-0.9,7.9-1.5,11.9-2.1c2-0.3,4-0.5,6-0.6c1-0.1,2-0.1,3-0.2l1.5-0.1c0.3,0,1.1,0.1,1.1,1.1C328.7,271.7,327.9,271.9,327.6,271.9
	"/>
<path d="M331,280.4c-0.7,0.2-1.5,0.4-2.2,0.6c-1.5,0.4-2.9,0.9-4.4,1.4c-2.9,1-5.8,2.1-8.6,3.3c-5.7,2.4-11.2,5.1-16.6,8.2
	c-5.4,3-10.6,6.4-15.6,9.9c-2.5,1.8-5,3.6-7.5,5.5c-1.2,0.9-2.4,1.9-3.6,2.9c-1.2,1-2.4,2-3.6,2.9c-0.1,0.1-0.2,0.1-0.3,0
	c-0.1-0.1-0.1-0.2,0-0.3c1.1-1.1,2.3-2.1,3.4-3.2c1.2-1,2.3-2,3.5-3c2.4-2,4.8-4,7.3-5.8c5-3.7,10.1-7.2,15.5-10.4
	c5.3-3.2,10.9-6,16.6-8.5c2.9-1.2,5.8-2.4,8.7-3.4c1.5-0.5,3-1,4.5-1.4c0.8-0.2,1.5-0.4,2.3-0.6c0.8-0.2,1.7-0.4,1.9,0.6
	C332.6,279.8,331.7,280.3,331,280.4"/>
<path d="M324.1,263.6l-1.5-0.3c-1-0.2-2-0.4-3.1-0.5c-2.1-0.3-4.1-0.6-6.2-0.9c-4.1-0.5-8.3-0.9-12.5-1.2c-8.3-0.6-16.7-0.6-25-0.1
	c-4.2,0.3-8.3,0.7-12.5,1.2c-4.1,0.6-8.3,1.3-12.3,2.2c-4.1,0.9-8.1,2-12.1,3.3c-2,0.7-3.9,1.4-5.9,2.2c-1.9,0.8-3.9,1.6-5.8,2.5
	c-0.1,0-0.2,0-0.3-0.1c0-0.1,0-0.2,0.1-0.2c1.9-1,3.7-1.9,5.7-2.8c1.9-0.9,3.9-1.7,5.9-2.4c3.9-1.5,8-2.7,12.1-3.8
	c8.2-2.1,16.6-3.4,25-4c8.4-0.7,16.9-0.7,25.3-0.2c4.2,0.2,8.4,0.6,12.6,1.1c2.1,0.2,4.2,0.5,6.3,0.9c1,0.2,2.1,0.3,3.1,0.5
	c0.5,0.1,1,0.2,1.6,0.3c0.5,0.1,1.1,0.5,0.9,1.3C325.4,263.3,324.7,263.6,324.1,263.6"/>
<path class="st6" d="M460.5,476.7c0-3.2,2.6-5.8,5.8-5.8c3.2,0,5.7,2.6,5.7,5.8c0,3.2-2.6,5.8-5.7,5.8
	C463.1,482.5,460.5,479.9,460.5,476.7 M471.1,476.7c0-2.8-2-5-4.8-5c-2.8,0-4.9,2.2-4.9,5c0,2.8,2,5,4.9,5
	C469,481.7,471.1,479.5,471.1,476.7 M469.1,479.9h-0.9l-1.8-3h-1.4v3h-0.8v-6.4h2.8c1.7,0,2.3,0.6,2.3,1.7c0,1.3-0.9,1.7-2,1.8
	L469.1,479.9z M466.1,476.3c0.9,0,2.2,0.2,2.2-1.2c0-1-0.8-1.1-1.6-1.1h-1.8v2.3H466.1z"/>
<polygon class="st6" points="422.5,451.9 419.1,465.2 426,465.2 432.7,451.9 "/>
<polygon class="st6" points="459.2,439.9 469,439.9 471.4,430 461.6,430 "/>
<polygon class="st6" points="397.1,489.8 408.8,489.8 408.8,478.8 397.4,478.8 397.4,471.2 414.6,471.2 411.5,459.2 382.7,459.2 
	382.7,510.1 412.1,510.1 415.6,498.2 397,498.2 "/>
<path class="st6" d="M372.4,487.6c-2-2.8-4.6-4.2-7.6-5.8c-2.7-1.4-6.5-3.3-6.6-6.8c-0.1-4.8,6.5-6.6,10.3-4.6l2.7-10.3
	c-2.6-1.2-10.3-4.1-18.6,0.1c-6.1,3.1-10.2,9.4-8.8,16.2c0.9,4.3,2.8,7.6,6.4,10.3c2.6,2,6.2,3.6,8.3,6.2c0.8,1,1.2,2.5,0.8,3.7
	c-1.9,5.2-9.3,3-11.6,2.2l-2.8,10.6c1.9,0.8,7.2,2.9,14.1,2.3c7.4-0.6,15.4-4.8,15.8-15.2C375.1,493.2,374.3,490.3,372.4,487.6"/>
<path class="st6" d="M458,487.6c-2-2.8-4.6-4.2-7.6-5.8c-2.7-1.4-6.5-3.3-6.6-6.8c-0.1-4.8,6.5-6.6,10.3-4.6l2.7-10.3
	c-2.6-1.2-10.3-4.1-18.6,0.1c-6.1,3.1-10.2,9.4-8.8,16.2c0.9,4.3,2.8,7.6,6.4,10.3c2.6,2,6.2,3.6,8.3,6.2c0.8,1,1.2,2.5,0.8,3.7
	c-1.9,5.2-9.3,3-11.6,2.2l-2.8,10.6c1.9,0.8,7.2,2.9,14.1,2.3c7.4-0.6,15.4-4.8,15.8-15.2C460.6,493.2,459.8,490.3,458,487.6"/>
<polygon class="st6" points="275,489.8 286.6,489.8 286.6,478.8 275.3,478.8 275.3,471.2 292.5,471.2 289.4,459.2 260.6,459.2 
	260.6,510.1 290,510.1 293.5,498.2 274.8,498.2 "/>
<polygon class="st6" points="317.5,489.8 329.1,489.8 329.1,478.8 317.8,478.8 317.8,471.2 335,471.2 331.9,459.2 303.1,459.2 
	303.1,510.1 332.5,510.1 336,498.2 317.4,498.2 "/>
<path class="st6" d="M193.1,497.6c-7.1,0-12.8-5.8-12.8-12.8c0-7.1,5.7-12.8,12.8-12.8c1.1,0,2.1,0.1,3.1,0.4v-13.2
	c-0.7-0.2-1.5-0.3-2.3-0.4c0,0,0-0.1,0-0.1c-0.7-0.1-1.7-0.1-2.8-0.1c-11.1-0.1-26.8,5.8-27.1,25.5c0,0.2,0,0.4,0,0.6
	c0,0.1,0,0.2,0,0.3c0,0.1,0,0.2,0,0.3c0,0.2,0,0.4,0,0.6c0.3,19.6,16,25.6,27.1,25.5c1.2,0,2.1,0,2.9-0.1c0,0,0,0,0-0.1
	c0.8-0.1,1.6-0.2,2.3-0.4v-13.5C195.3,497.4,194.2,497.6,193.1,497.6"/>
<polygon class="st6" points="234.1,479.1 222.9,479.1 222.9,459.2 208.1,459.2 208.1,510.1 222.9,510.1 222.9,490.3 234.1,490.3 
	234.1,510.1 248.6,510.1 248.6,459.2 234.1,459.2 "/>
<path class="st6" d="M300,389h-14.8V425c0,2.7-3.8,3.7-5,3.7c-1.2,0-5.5-0.7-5.5-3.6v-36h-14.6v39.6c0,2.5,4.4,12.5,19.9,12.5
	c15.5,0,19.9-10.2,19.9-13.9V389z"/>
<polygon class="st6" points="232.8,408.9 222.2,408.9 222.2,389 207.3,389 207.3,439.9 222.2,439.9 222.2,420.1 232.8,420.1 
	232.8,439.9 247.2,439.9 247.2,389 232.8,389 "/>
<polygon class="st6" points="434.4,419.6 446,419.6 446,408.6 434.7,408.6 434.7,401 451.8,401 448.8,389 419.9,389 419.9,439.9 
	449.3,439.9 452.8,428.1 434.2,428.1 "/>
<path class="st6" d="M339.3,427.4c-7.1,0-12.8-5.7-12.8-12.8c0-7.1,5.7-12.8,12.8-12.8c1.1,0,2.1,0.1,3.1,0.4v-13.2
	c-0.7-0.2-1.5-0.3-2.3-0.4c0,0,0-0.1,0-0.1c-0.7-0.1-1.7-0.1-2.8-0.1c-11.1-0.1-26.8,5.8-27.1,25.5c0,0.2,0,0.4,0,0.6
	c0,0.1,0,0.2,0,0.3c0,0.1,0,0.2,0,0.3c0,0.2,0,0.4,0,0.6c0.3,19.6,16,25.6,27.1,25.5c1.2,0,2.1,0,2.9-0.1c0,0,0,0,0-0.1
	c0.8-0.1,1.6-0.2,2.3-0.4V427C341.4,427.3,340.4,427.4,339.3,427.4"/>
<path class="st6" d="M193.1,427.4c-7.1,0-12.8-5.7-12.8-12.8c0-7.1,5.7-12.8,12.8-12.8c1.1,0,2.1,0.1,3.1,0.4v-13.2
	c-0.7-0.2-1.5-0.3-2.3-0.4c0,0,0-0.1,0-0.1c-0.7-0.1-1.7-0.1-2.8-0.1c-11.1-0.1-26.8,5.8-27.1,25.5c0,0.2,0,0.4,0,0.6
	c0,0.1,0,0.2,0,0.3c0,0.1,0,0.2,0,0.3c0,0.2,0,0.4,0,0.6c0.3,19.6,16,25.6,27.1,25.5c1.2,0,2.1,0,2.9-0.1c0,0,0,0,0-0.1
	c0.8-0.1,1.6-0.2,2.3-0.4V427C195.3,427.3,194.2,427.4,193.1,427.4"/>
<polygon class="st6" points="370.3,420.9 371.5,420.9 380.9,439.9 396.7,439.9 382.3,412.7 395.6,389 379.9,389 371.4,403.6 
	370.3,403.6 370.3,389 355.1,389 355.1,439.9 370.3,439.9 "/>
</svg>
