<svg id="svg" xmlns="http://www.w3.org/2000/svg" xmlns:xlink="http://www.w3.org/1999/xlink" width="500" height="1109.3901258470473" viewBox="0, 0, 500,1109.3901258470473"><g id="svgg"><path id="path0" d="M452.966 1.695 C 449.809 4.249,445.123 7.271,439.785 10.194 C 435.035 12.796,433.753 13.782,431.115 16.864 C 430.365 17.741,427.533 19.884,424.822 21.627 C 413.625 28.829,411.987 30.071,408.138 34.282 C 404.461 38.306,403.823 38.771,397.363 42.150 C 378.434 52.050,355.467 72.924,320.027 112.439 C 315.682 117.284,308.799 124.625,304.733 128.751 C 298.989 134.579,297.157 136.752,296.525 138.487 C 296.077 139.715,294.551 142.002,293.134 143.569 C 284.523 153.090,264.740 183.043,258.005 196.757 C 254.427 204.043,253.317 205.858,251.230 207.842 C 248.541 210.398,247.680 211.834,245.411 217.546 C 243.041 223.513,241.178 226.852,238.679 229.611 C 236.612 231.894,236.292 232.541,235.991 235.051 C 235.732 237.212,235.014 239.029,233.018 242.579 C 231.571 245.153,229.652 249.510,228.755 252.260 C 226.070 260.487,225.939 260.646,223.082 259.168 C 220.161 257.658,218.748 258.312,216.760 262.096 C 215.610 264.285,214.073 266.277,212.404 267.740 L 209.826 270.002 209.823 273.114 C 209.820 276.032,209.691 276.393,207.765 278.889 C 205.199 282.216,205.183 283.311,207.648 287.213 C 209.939 290.841,209.899 290.443,208.356 294.239 C 207.681 295.901,206.789 298.934,206.374 300.978 C 205.960 303.022,204.568 308.507,203.281 313.166 C 199.997 325.052,198.731 330.215,197.005 338.760 C 196.178 342.854,194.616 349.605,193.534 353.761 C 192.102 359.260,191.467 362.837,191.205 366.889 C 190.880 371.901,190.569 373.255,188.108 380.408 C 185.899 386.827,185.229 389.529,184.629 394.445 C 183.841 400.907,183.550 402.289,181.767 408.035 C 181.148 410.031,180.179 414.606,179.615 418.199 C 177.949 428.801,177.273 429.970,173.277 429.152 C 171.235 428.733,170.763 428.787,169.942 429.530 C 169.208 430.195,168.549 430.322,167.105 430.078 C 163.827 429.524,158.751 431.772,151.258 437.095 C 145.988 440.840,141.271 443.425,130.490 448.477 C 110.650 457.773,104.272 464.006,85.895 492.056 C 76.123 506.972,75.251 508.706,66.073 531.451 C 62.919 539.268,61.947 542.191,62.156 543.236 C 62.362 544.266,62.005 545.394,60.771 547.603 C 59.567 549.757,58.824 552.053,58.085 555.905 C 57.523 558.833,56.318 564.823,55.408 569.216 C 50.898 590.988,48.562 616.001,50.030 626.815 C 53.789 654.500,54.112 655.772,59.416 663.778 C 61.488 666.906,62.955 669.772,63.671 672.091 C 65.561 678.218,66.837 679.574,70.715 679.574 C 73.803 679.574,75.164 678.549,77.186 674.701 C 78.216 672.740,80.585 669.519,82.626 667.302 C 84.648 665.106,87.555 661.158,89.224 658.342 C 92.138 653.425,92.973 652.516,98.742 647.982 C 100.641 646.489,102.263 644.509,104.405 641.072 C 107.016 636.881,107.651 636.172,109.289 635.627 C 110.693 635.160,111.463 634.481,112.312 632.965 C 115.242 627.731,121.452 620.956,142.497 600.030 L 164.811 577.844 167.715 580.998 C 169.899 583.371,171.416 584.510,173.830 585.593 C 175.596 586.385,177.151 587.217,177.287 587.442 C 177.586 587.936,175.479 594.487,172.511 602.295 C 171.035 606.175,170.166 609.381,169.820 612.218 C 169.413 615.559,168.878 617.284,167.181 620.726 C 164.009 627.162,164.319 631.235,168.227 634.456 C 170.524 636.350,170.444 636.378,162.059 636.620 C 155.965 636.795,155.286 636.908,153.588 638.027 C 152.430 638.791,150.682 639.368,148.897 639.576 C 146.041 639.908,144.626 640.632,141.368 643.426 C 138.874 645.564,136.278 646.570,133.922 646.311 C 132.188 646.121,131.593 646.321,129.781 647.706 C 124.432 651.792,123.423 652.337,118.781 653.651 C 108.804 656.473,98.322 663.440,92.419 671.171 C 91.238 672.719,88.955 675.628,87.347 677.635 C 85.506 679.933,83.998 682.446,83.274 684.422 C 81.380 689.594,80.090 691.813,76.981 695.243 C 74.250 698.256,74.047 698.636,74.336 700.177 C 74.602 701.597,74.352 702.302,72.660 704.899 C 70.282 708.549,68.847 712.567,66.243 722.866 C 65.170 727.109,63.534 732.663,62.609 735.208 C 59.533 743.665,58.526 759.749,60.477 769.234 C 61.681 775.086,61.787 777.470,60.982 780.592 C 60.337 783.091,60.346 783.137,62.084 786.455 C 63.217 788.619,64.115 791.291,64.628 794.027 C 65.680 799.641,66.445 801.679,68.416 804.113 C 69.996 806.066,70.695 807.588,76.054 820.762 C 82.557 836.750,82.387 842.816,75.221 850.412 C 70.611 855.299,69.011 855.975,56.305 858.406 C 54.128 858.822,51.406 859.590,50.254 860.113 C 48.554 860.885,47.070 861.065,42.352 861.076 C 35.543 861.092,33.480 861.566,30.397 863.823 C 29.145 864.738,26.749 865.941,25.072 866.495 C 21.202 867.772,19.512 869.356,15.606 875.363 C 13.875 878.025,10.995 882.055,9.205 884.318 C 2.907 892.280,2.640 892.936,0.937 904.627 C -1.155 918.990,0.062 923.883,9.142 937.612 C 13.217 943.773,13.683 944.203,16.963 944.825 C 18.884 945.189,20.032 945.761,21.285 946.978 C 24.442 950.045,26.356 950.116,28.262 947.236 C 31.593 942.202,30.800 938.868,25.960 937.557 C 16.531 935.004,15.978 921.366,24.947 912.564 C 33.954 903.724,51.217 899.256,60.857 903.271 C 72.926 908.297,77.844 913.485,78.319 921.694 C 78.849 930.855,77.087 934.088,65.054 946.031 C 51.765 959.221,45.529 967.537,37.287 983.059 C 35.520 986.387,33.058 990.852,31.815 992.982 C 29.954 996.170,29.429 997.623,28.842 1001.210 C 28.451 1003.606,26.912 1009.378,25.423 1014.037 C 20.347 1029.915,19.377 1038.377,21.086 1051.868 C 23.219 1068.709,25.337 1074.005,36.642 1090.755 C 42.296 1099.133,41.313 1098.212,51.791 1104.945 C 61.086 1110.918,70.635 1111.118,79.743 1105.529 C 83.651 1103.132,80.072 1094.729,75.508 1095.583 C 70.221 1096.573,70.052 1096.550,67.988 1094.546 C 57.535 1084.403,49.701 1064.213,51.306 1051.556 C 52.319 1043.566,61.810 1026.096,66.349 1023.867 C 83.622 1015.385,96.971 1012.665,107.498 1015.480 C 109.470 1016.008,113.083 1016.978,115.527 1017.635 C 140.418 1024.336,166.531 1014.165,179.450 992.737 C 190.871 973.793,192.625 960.193,186.279 939.777 C 182.880 928.843,182.708 928.411,180.161 924.428 L 177.880 920.862 177.929 916.263 C 178.042 905.760,193.481 881.815,202.896 877.543 C 209.985 874.326,220.680 878.850,222.113 885.672 C 223.181 890.753,222.808 900.663,221.438 903.606 C 220.532 905.552,220.232 906.998,220.232 909.430 C 220.232 912.539,220.111 912.872,217.085 918.021 C 212.967 925.026,213.307 924.786,205.160 926.438 C 197.431 928.006,196.514 928.562,196.517 931.685 C 196.519 934.095,198.017 936.352,200.433 937.584 L 202.454 938.615 206.382 937.645 C 209.217 936.945,211.253 936.743,213.698 936.919 L 217.086 937.163 220.081 934.916 C 223.121 932.636,225.219 931.752,227.590 931.752 C 228.530 931.752,229.288 931.252,230.255 929.994 C 233.401 925.903,234.379 924.999,235.983 924.698 C 237.869 924.344,239.287 922.761,243.934 915.822 C 245.611 913.316,248.419 909.940,250.174 908.319 C 256.638 902.347,256.281 902.940,263.142 886.752 C 264.324 883.964,265.598 881.344,265.973 880.929 C 268.039 878.646,268.846 867.725,267.402 861.599 C 265.751 854.600,259.780 844.072,253.998 837.964 C 246.107 829.629,244.717 827.164,243.440 819.252 C 242.113 811.027,243.853 805.536,248.913 801.980 C 250.576 800.811,253.134 798.642,254.598 797.159 C 256.599 795.133,257.815 794.324,259.491 793.902 C 264.411 792.665,273.468 780.340,277.698 769.125 C 281.527 758.976,281.711 740.635,278.110 728.085 C 277.214 724.964,275.588 718.974,274.497 714.775 C 270.745 700.330,268.657 695.792,258.972 681.026 C 255.567 675.835,251.979 670.063,250.999 668.199 L 249.217 664.811 251.314 664.559 C 256.161 663.976,261.923 657.422,262.343 652.014 C 262.580 648.961,262.624 648.878,264.498 647.900 C 266.127 647.050,266.773 646.184,268.854 642.054 C 275.465 628.937,276.547 627.863,282.066 628.948 C 288.877 630.286,290.272 631.088,290.694 633.905 C 291.174 637.104,290.634 651.898,289.639 662.797 C 288.733 672.731,288.674 672.167,291.650 681.994 C 292.559 684.998,292.809 686.631,292.575 688.045 C 291.771 692.895,291.805 705.271,292.629 707.751 C 293.110 709.199,293.429 711.675,293.419 713.876 C 293.236 752.773,293.073 759.207,292.231 760.746 C 290.154 764.545,294.630 771.415,298.872 770.937 C 303.358 770.432,311.279 766.451,314.630 763.018 C 316.466 761.137,319.435 758.831,321.868 757.397 C 331.842 751.514,334.772 748.929,341.483 740.084 C 343.404 737.551,347.980 732.321,351.652 728.461 C 361.767 717.826,365.976 712.977,368.064 709.551 C 369.107 707.838,372.394 702.626,375.368 697.967 C 384.158 684.197,388.735 676.187,391.134 670.378 C 391.739 668.913,393.175 666.060,394.326 664.038 C 395.796 661.454,396.421 659.798,396.426 658.471 C 396.431 657.336,396.904 655.811,397.612 654.647 C 400.369 650.114,401.180 648.155,401.706 644.757 C 402.059 642.477,402.979 639.641,404.220 637.012 C 407.093 630.925,408.972 621.274,409.266 611.084 C 409.470 604.048,409.606 603.078,410.760 600.482 C 412.219 597.194,412.181 595.020,410.406 580.591 C 407.017 553.036,395.530 523.983,384.180 514.260 C 377.804 508.797,377.769 507.308,383.824 499.032 C 388.139 493.134,393.134 484.556,395.662 478.703 C 397.496 474.457,397.820 474.011,399.893 472.889 C 403.897 470.720,404.213 470.245,403.890 466.885 L 403.607 463.940 406.999 458.544 C 408.865 455.576,411.085 451.764,411.933 450.073 C 412.781 448.382,414.826 445.039,416.477 442.643 C 418.127 440.247,421.071 435.564,423.019 432.236 C 424.966 428.909,429.435 422.047,432.950 416.989 C 441.195 405.123,442.618 402.695,444.321 397.596 C 446.049 392.420,446.290 392.143,448.337 392.978 C 452.457 394.659,453.468 394.925,455.821 394.945 C 458.775 394.970,459.353 394.363,460.305 390.242 C 460.628 388.841,461.995 385.901,463.341 383.707 C 470.112 372.680,471.019 369.569,468.398 366.365 C 462.938 359.690,462.524 358.161,464.625 352.405 C 466.803 346.438,467.020 346.232,469.259 348.011 C 473.722 351.558,476.593 348.120,474.105 342.207 C 471.708 336.512,473.668 324.457,477.296 322.580 C 479.280 321.555,479.663 320.503,479.603 316.236 C 479.557 312.937,479.805 311.740,481.492 307.106 C 482.744 303.667,483.720 299.827,484.237 296.296 C 484.679 293.284,486.331 285.665,487.908 279.364 C 492.495 261.037,494.028 251.252,496.376 225.315 C 497.051 217.861,497.939 209.297,498.349 206.284 C 499.268 199.538,499.047 192.349,497.820 189.065 C 496.974 186.798,496.971 186.427,497.750 180.352 C 499.221 168.890,499.603 161.228,499.859 138.069 C 500.136 112.982,500.076 112.089,497.323 100.660 C 495.844 94.517,495.577 92.414,495.146 83.495 C 494.552 71.228,494.276 69.310,491.281 56.631 C 489.992 51.174,488.791 45.728,488.612 44.530 C 488.434 43.333,487.529 40.065,486.603 37.270 C 485.571 34.159,484.542 29.560,483.949 25.411 C 483.417 21.684,482.579 17.717,482.087 16.596 C 481.190 14.549,481.140 14.519,477.372 13.755 C 476.477 13.574,476.282 13.212,476.281 11.728 C 476.279 9.796,475.241 7.770,472.565 4.477 C 470.217 1.587,469.560 1.328,466.893 2.236 L 464.658 2.998 462.951 1.499 C 460.337 -0.797,455.939 -0.711,452.966 1.695 M462.629 9.471 C 464.162 10.544,465.476 13.348,467.832 20.571 C 468.961 24.032,471.527 30.585,473.533 35.134 C 478.447 46.272,480.422 52.141,482.077 60.511 C 482.842 64.384,483.951 69.398,484.540 71.652 C 485.566 75.577,485.693 77.660,485.424 86.157 C 485.373 87.772,485.960 91.388,486.918 95.353 C 488.432 101.627,489.163 109.733,488.294 110.607 C 488.112 110.790,480.270 106.742,470.869 101.610 C 449.872 90.150,444.981 87.631,440.409 85.927 C 434.529 83.735,431.706 82.365,427.806 79.810 C 424.946 77.937,423.457 77.293,421.272 76.983 C 419.687 76.759,416.524 75.686,414.085 74.547 C 407.203 71.330,403.954 70.223,397.808 69.000 C 388.640 67.175,386.726 65.362,390.796 62.356 C 392.224 61.302,393.322 59.958,393.977 58.465 C 395.001 56.130,404.450 48.539,415.537 41.145 C 420.542 37.808,428.627 31.817,438.091 24.435 C 455.018 11.231,460.430 7.930,462.629 9.471 M397.386 78.171 C 404.175 80.398,413.214 83.664,417.473 85.429 C 421.733 87.194,428.886 90.153,433.370 92.006 C 443.133 96.040,442.007 95.474,455.227 102.987 C 475.834 114.696,482.827 119.050,485.724 121.978 L 488.466 124.749 487.675 127.079 C 486.831 129.564,486.824 129.361,488.201 141.423 C 488.968 148.142,488.966 148.827,488.159 154.008 C 487.116 160.704,486.501 173.484,486.462 189.255 C 486.422 205.079,485.764 214.283,484.257 220.083 C 483.220 224.076,483.057 225.774,483.044 232.749 C 483.024 243.428,482.558 246.543,479.715 254.984 C 476.896 263.352,476.527 265.239,475.573 276.137 C 474.899 283.834,474.125 289.347,473.651 289.821 C 473.098 290.374,471.438 285.734,470.503 281.018 C 469.352 275.222,469.020 274.361,467.167 272.374 C 465.403 270.483,465.620 268.181,468.080 262.708 C 469.849 258.771,470.140 257.613,470.481 253.146 C 470.836 248.499,472.637 238.410,473.851 234.272 C 474.731 231.271,474.494 229.475,473.136 228.857 C 470.072 227.460,468.890 229.931,466.612 242.498 C 465.926 246.281,464.681 250.486,462.723 255.626 C 461.139 259.785,459.000 266.428,457.969 270.389 L 456.095 277.590 454.823 275.082 C 454.124 273.703,453.063 272.233,452.467 271.815 C 451.246 270.960,446.010 270.722,446.518 271.544 C 446.684 271.813,446.370 272.604,445.820 273.303 C 444.355 275.166,444.577 276.260,446.927 278.773 C 451.081 283.214,452.859 291.618,450.694 296.581 C 449.874 298.463,448.617 303.103,447.738 307.496 C 445.576 318.301,444.508 320.426,441.244 320.426 C 437.247 320.426,436.479 323.385,438.787 329.901 C 440.602 335.026,440.392 335.854,436.433 339.179 C 433.190 341.902,435.451 346.106,440.350 346.463 L 443.127 346.665 444.159 349.703 C 445.765 354.434,445.074 354.552,435.289 351.215 C 433.374 350.562,430.556 349.872,429.026 349.681 C 427.496 349.489,425.033 348.792,423.553 348.130 C 422.073 347.469,419.119 346.329,416.989 345.598 C 414.860 344.867,410.844 343.243,408.066 341.989 C 401.257 338.916,393.264 335.764,381.655 331.574 C 360.616 323.981,353.435 320.755,334.221 310.261 C 315.857 300.232,304.001 294.773,300.584 294.773 C 298.497 294.773,296.652 293.907,291.447 290.486 C 288.953 288.847,285.794 287.196,284.429 286.818 C 283.063 286.440,280.719 285.789,279.220 285.372 C 277.673 284.942,275.266 283.710,273.654 282.523 C 268.894 279.019,268.593 278.886,261.027 276.899 C 253.707 274.978,250.150 273.500,245.164 270.311 C 241.715 268.105,236.004 265.247,235.045 265.247 C 233.051 265.247,239.551 251.454,249.302 234.995 C 258.949 218.712,262.381 212.427,268.792 199.299 C 274.161 188.306,274.550 187.668,278.221 183.825 C 282.411 179.438,282.873 178.742,283.351 176.092 C 283.910 172.992,288.859 166.085,304.410 146.700 C 309.634 140.188,315.609 133.537,328.141 120.281 C 334.181 113.892,339.943 107.748,340.945 106.628 C 341.947 105.507,344.668 103.175,346.993 101.445 C 349.317 99.714,351.458 97.799,351.751 97.189 C 352.045 96.579,352.753 95.058,353.325 93.810 C 354.159 91.992,355.346 90.793,359.298 87.779 C 362.011 85.710,365.900 82.556,367.940 80.770 C 372.500 76.779,373.367 76.301,375.438 76.637 C 377.194 76.922,377.522 76.697,379.002 74.197 L 379.922 72.645 382.483 73.383 C 383.891 73.789,390.598 75.944,397.386 78.171 M361.202 193.162 C 348.463 194.141,345.216 195.834,333.490 207.611 C 329.361 211.757,325.223 215.586,324.293 216.118 C 319.751 218.721,313.522 237.056,313.522 247.822 C 313.523 255.228,316.558 265.577,319.774 269.137 C 320.663 270.121,321.916 272.115,322.559 273.568 C 329.300 288.810,374.316 311.320,383.945 304.263 C 388.133 301.193,389.349 300.610,391.375 300.698 C 398.914 301.026,416.485 281.469,421.486 267.183 C 428.634 246.768,423.067 217.593,409.711 205.467 C 397.273 194.175,385.822 191.270,361.202 193.162 M379.966 203.071 C 397.455 205.511,407.737 211.953,409.389 221.508 C 409.672 223.142,410.681 226.022,411.631 227.909 C 412.705 230.043,413.539 232.582,413.833 234.620 C 414.094 236.424,414.530 238.662,414.802 239.593 C 415.074 240.525,415.170 242.594,415.016 244.192 C 414.821 246.200,414.961 247.725,415.470 249.133 C 416.197 251.145,416.185 251.211,414.563 254.267 C 413.083 257.057,412.929 257.719,413.005 260.942 C 413.102 265.046,411.361 269.373,406.681 276.660 C 402.872 282.589,401.474 283.697,393.285 287.273 C 389.323 289.002,385.558 290.761,384.917 291.180 C 384.002 291.780,383.011 291.878,380.284 291.638 C 378.376 291.470,372.948 291.156,368.223 290.940 L 359.630 290.547 355.154 288.380 C 332.243 277.292,321.979 262.103,323.854 242.060 C 324.925 230.612,328.864 222.465,336.044 216.844 C 337.914 215.380,341.101 212.802,343.125 211.116 C 352.603 203.220,363.684 200.800,379.966 203.071 M362.536 209.594 C 350.671 211.237,344.068 214.650,339.397 221.557 C 328.717 237.350,328.908 243.526,340.849 268.562 C 344.028 275.226,352.226 282.439,356.075 281.958 C 358.493 281.655,358.870 281.774,364.036 284.455 C 371.887 288.531,377.750 288.280,387.948 283.433 C 395.426 279.878,397.970 277.643,400.513 272.392 C 401.708 269.926,403.695 266.727,404.930 265.283 C 407.035 262.822,407.157 262.527,406.889 260.570 C 406.653 258.851,406.985 257.461,408.771 252.687 C 411.203 246.186,411.838 239.570,409.697 243.033 C 408.985 244.186,408.533 242.122,408.522 237.657 C 408.506 231.740,405.310 224.966,399.286 218.080 C 396.692 215.116,386.507 210.382,383.645 210.811 C 382.108 211.042,381.105 210.901,379.923 210.290 C 378.005 209.298,367.662 208.884,362.536 209.594 M371.517 218.599 C 374.963 219.564,379.285 220.609,381.120 220.922 L 384.457 221.490 381.604 222.728 C 380.035 223.409,377.118 224.545,375.121 225.252 C 372.866 226.050,370.299 227.455,368.345 228.960 C 362.480 233.477,361.177 234.254,355.029 236.905 C 345.258 241.119,342.494 243.396,343.433 246.455 C 344.352 249.452,345.321 249.456,351.064 246.489 C 353.514 245.223,356.670 243.795,358.078 243.316 C 359.486 242.836,362.318 241.258,364.371 239.808 C 368.160 237.130,371.194 235.520,375.121 234.100 C 376.319 233.667,380.005 231.568,383.311 229.435 C 390.257 224.954,390.123 224.985,392.360 227.372 C 400.567 236.133,402.908 243.145,400.964 253.146 C 399.428 261.043,399.353 261.201,395.422 264.720 C 393.031 266.861,392.062 268.064,392.062 268.892 C 392.062 274.227,375.670 279.623,369.313 276.379 C 367.190 275.296,365.335 275.161,363.133 275.929 C 361.005 276.671,359.547 275.762,354.737 270.695 C 352.504 268.344,349.678 265.614,348.457 264.630 C 345.976 262.628,341.904 254.801,340.721 249.758 C 338.257 239.254,342.765 226.965,350.878 222.070 C 351.833 221.494,353.359 220.383,354.270 219.601 C 358.203 216.225,362.210 215.993,371.517 218.599 M390.316 236.105 C 389.489 236.559,387.747 237.884,386.444 239.048 C 383.616 241.575,374.083 247.103,364.683 251.666 C 355.434 256.156,353.109 259.251,356.464 262.607 C 358.796 264.938,361.937 263.998,369.693 258.646 C 372.279 256.861,376.355 254.050,378.751 252.400 C 381.147 250.749,384.487 248.704,386.173 247.856 C 387.859 247.009,390.146 245.484,391.256 244.469 C 392.365 243.454,394.188 242.160,395.307 241.594 C 397.460 240.505,398.348 238.472,397.642 236.247 C 397.223 234.929,392.617 234.839,390.316 236.105 M234.753 275.228 C 237.282 276.439,242.727 278.830,246.854 280.543 C 250.980 282.255,254.792 283.843,255.324 284.072 C 255.999 284.362,255.385 284.483,253.301 284.470 C 243.993 284.415,244.281 294.138,253.653 296.382 C 257.042 297.194,258.495 295.474,259.202 289.815 C 259.517 287.291,259.471 287.142,257.995 285.899 C 257.151 285.189,256.587 284.608,256.742 284.608 C 257.226 284.608,273.871 291.808,276.735 293.256 L 279.456 294.632 277.690 294.964 C 271.815 296.066,270.183 303.026,275.243 305.405 C 282.842 308.977,287.750 302.407,282.037 296.309 C 281.335 295.560,283.406 296.424,288.241 298.898 C 294.672 302.189,295.720 302.582,297.439 302.348 C 299.819 302.024,301.992 302.932,307.130 306.399 C 312.114 309.762,314.755 310.898,316.632 310.486 C 317.897 310.208,318.693 310.549,322.053 312.803 C 336.434 322.451,355.204 330.895,372.459 335.481 C 376.452 336.542,380.264 337.825,380.929 338.332 C 384.602 341.131,385.948 341.796,390.278 342.947 C 392.891 343.642,397.494 345.415,400.508 346.886 C 404.975 349.067,406.674 349.639,409.699 349.978 C 412.322 350.272,414.999 351.052,418.830 352.639 C 421.811 353.873,427.575 356.025,431.639 357.420 C 437.811 359.539,439.805 360.481,443.740 363.136 C 448.410 366.288,448.487 366.318,452.561 366.625 C 459.076 367.116,460.059 368.429,457.576 373.322 C 456.872 374.711,455.823 377.246,455.245 378.956 C 453.846 383.098,453.288 383.399,448.557 382.565 C 439.460 380.961,426.058 375.899,409.417 367.779 C 397.670 362.049,396.180 361.445,392.718 361.021 C 389.691 360.650,387.683 359.981,382.865 357.738 C 375.810 354.453,373.271 353.515,354.792 347.370 C 337.495 341.619,330.922 339.076,328.975 337.385 C 326.839 335.531,325.583 334.947,323.725 334.944 C 321.900 334.942,317.740 332.913,310.019 328.262 C 303.872 324.558,288.069 317.009,274.443 311.267 C 261.612 305.860,256.682 303.458,247.153 297.973 C 236.499 291.841,235.012 291.110,230.842 289.954 C 227.701 289.084,221.104 285.746,218.177 283.546 C 216.182 282.048,217.349 276.201,220.694 270.926 L 222.128 268.665 226.141 270.846 C 228.349 272.046,232.224 274.018,234.753 275.228 M229.187 276.944 C 222.136 280.844,227.270 289.415,234.650 286.065 C 238.436 284.347,239.232 279.262,236.022 277.304 C 234.340 276.279,230.734 276.089,229.187 276.944 M464.146 283.823 C 464.702 284.723,465.692 287.879,466.346 290.837 C 467.000 293.795,468.112 297.655,468.816 299.414 C 470.521 303.677,470.723 305.636,469.822 309.154 C 468.835 313.007,466.504 318.974,465.986 318.974 C 465.127 318.974,463.651 314.475,462.942 309.690 C 462.534 306.943,461.540 302.626,460.731 300.097 C 459.041 294.806,459.093 293.691,461.274 288.566 C 462.075 286.685,462.730 284.480,462.730 283.666 C 462.730 281.793,462.903 281.812,464.146 283.823 M235.963 303.807 C 239.956 305.830,249.281 310.184,256.684 313.482 C 264.087 316.780,272.473 320.640,275.319 322.059 C 278.165 323.479,282.018 325.101,283.882 325.664 C 286.242 326.378,288.072 327.350,289.915 328.870 C 291.607 330.266,293.874 331.517,296.207 332.343 C 298.214 333.053,302.033 334.497,304.695 335.551 C 307.357 336.605,311.387 338.118,313.650 338.913 C 315.912 339.707,321.287 342.193,325.593 344.437 C 330.746 347.123,334.386 348.701,336.242 349.055 C 337.974 349.385,343.074 351.507,349.468 354.557 C 360.846 359.985,363.709 361.040,371.092 362.520 C 376.880 363.681,378.641 364.391,386.725 368.823 C 390.060 370.651,394.095 372.508,395.692 372.950 C 397.289 373.391,401.319 375.019,404.647 376.569 C 407.974 378.118,412.657 379.867,415.053 380.455 C 421.436 382.023,432.502 386.619,433.354 388.056 C 433.661 388.574,431.458 399.120,430.545 401.500 C 430.137 402.565,427.995 405.901,425.785 408.913 C 423.396 412.169,421.403 415.460,420.870 417.029 C 419.255 421.781,417.122 421.760,415.332 416.976 C 413.029 410.822,413.415 405.814,416.763 398.378 C 419.297 392.750,419.342 389.568,416.900 388.640 C 415.169 387.982,412.597 389.238,411.351 391.349 C 409.905 393.800,409.503 392.849,409.494 386.955 C 409.486 381.589,409.194 380.929,406.820 380.929 C 402.304 380.929,401.858 385.902,405.168 399.347 C 407.550 409.023,407.273 410.525,401.566 418.883 C 398.825 422.898,396.902 427.115,396.902 429.113 C 396.902 429.835,395.038 432.236,394.477 432.236 C 394.246 432.236,393.922 431.202,393.757 429.937 C 393.591 428.673,393.041 425.787,392.533 423.524 C 392.025 421.261,391.171 417.122,390.634 414.327 C 388.008 400.658,385.828 396.708,382.217 399.074 C 379.088 401.124,379.330 404.737,383.174 413.324 C 385.075 417.573,386.012 420.359,386.276 422.556 C 386.484 424.286,386.872 426.682,387.138 427.880 C 389.351 437.852,389.038 440.793,385.050 447.511 C 382.193 452.326,381.530 453.872,379.917 459.498 C 379.167 462.115,378.371 463.760,377.343 464.823 L 375.854 466.360 375.704 464.908 C 375.622 464.109,374.820 459.753,373.922 455.227 C 373.025 450.702,371.927 444.728,371.483 441.952 C 370.137 433.531,367.173 424.451,365.473 423.541 C 360.047 420.637,359.622 431.463,364.676 443.853 C 367.246 450.154,370.630 468.150,370.097 472.684 C 369.546 477.379,366.144 484.021,359.416 493.537 C 358.071 495.440,356.599 497.673,356.145 498.499 C 354.833 500.889,354.488 500.329,353.867 494.797 C 353.209 488.942,351.961 480.741,350.201 470.716 C 349.547 466.989,349.006 462.954,348.998 461.749 C 348.979 458.841,347.945 457.406,345.869 457.406 C 342.468 457.406,342.359 461.572,345.339 477.735 C 350.268 504.465,348.982 514.329,339.061 525.916 L 334.705 531.004 334.334 529.418 C 334.130 528.545,333.633 525.436,333.230 522.507 C 332.826 519.579,331.424 510.431,330.113 502.178 C 328.376 491.246,327.797 486.385,327.980 484.269 C 328.317 480.378,327.098 478.219,324.566 478.219 C 321.187 478.219,320.139 481.048,321.626 486.163 C 322.019 487.517,323.434 495.704,324.770 504.356 C 330.088 538.798,329.997 541.446,323.156 551.355 C 321.521 553.723,319.069 557.286,317.706 559.274 C 314.957 563.283,314.618 563.352,314.618 559.907 C 314.618 558.603,314.416 557.159,314.170 556.699 C 313.923 556.238,313.477 552.278,313.179 547.897 C 312.880 543.516,312.333 537.318,311.963 534.124 C 311.593 530.929,311.159 525.266,310.998 521.539 C 310.358 506.714,308.779 503.839,303.177 507.301 C 301.129 508.567,301.103 509.588,303.018 513.680 C 304.290 516.397,304.547 517.658,304.926 523.052 C 305.168 526.479,305.688 531.571,306.084 534.366 C 306.479 537.161,307.045 543.151,307.340 547.677 C 307.636 552.202,308.214 557.966,308.625 560.484 C 310.002 568.915,306.637 577.415,298.676 585.618 L 296.529 587.831 295.951 586.389 C 295.633 585.596,295.139 582.284,294.854 579.030 C 294.239 572.015,293.891 571.152,291.669 571.152 C 288.934 571.152,288.778 571.729,289.410 579.500 C 289.718 583.294,290.118 587.161,290.297 588.093 C 291.341 593.498,288.402 598.258,284.021 598.258 C 279.972 598.258,279.263 596.322,278.791 583.979 C 278.556 577.852,278.164 573.499,277.721 572.120 C 277.309 570.834,277.169 569.447,277.379 568.732 C 278.008 566.595,277.863 565.982,276.137 563.474 C 273.923 560.255,273.972 559.649,277.075 551.862 C 284.952 532.094,285.552 529.162,285.830 509.104 C 285.935 501.489,286.193 496.784,286.540 496.135 C 288.601 492.284,282.116 484.067,275.823 482.558 C 265.284 480.029,255.996 487.692,247.300 506.090 C 245.765 509.338,243.065 514.165,241.299 516.817 C 238.579 520.902,238.023 522.100,237.663 524.648 C 237.390 526.578,236.818 528.208,236.067 529.196 C 234.260 531.574,233.466 533.422,233.120 536.057 C 232.903 537.714,232.063 539.692,230.447 542.349 C 226.949 548.101,226.744 548.599,224.657 556.433 C 222.788 563.448,221.050 568.560,220.258 569.373 C 219.485 570.167,219.242 565.279,219.202 548.161 C 219.169 533.835,219.003 529.660,218.264 524.685 C 217.634 520.441,217.450 517.335,217.649 514.279 C 217.993 509.004,217.256 507.551,214.237 507.551 C 209.690 507.551,209.344 510.699,211.744 530.252 C 212.615 537.344,212.892 542.217,212.954 551.549 C 212.998 558.204,213.139 564.086,213.268 564.620 C 213.396 565.154,213.593 569.292,213.704 573.817 C 213.815 578.341,214.097 583.349,214.330 584.947 C 215.119 590.358,213.828 592.181,209.746 591.418 C 203.238 590.203,202.058 587.074,200.643 567.280 C 199.732 554.525,199.649 553.874,198.198 548.161 C 196.564 541.726,194.978 531.790,194.838 527.106 C 194.740 523.836,194.452 522.436,193.437 520.286 C 192.392 518.074,192.107 516.617,191.873 512.300 C 191.510 505.595,191.078 504.143,189.212 503.370 C 183.899 501.170,182.649 511.004,186.886 521.668 C 187.950 524.347,188.693 527.675,189.556 533.624 C 190.214 538.159,191.178 543.818,191.698 546.202 C 192.269 548.821,192.643 552.376,192.643 555.186 C 192.643 557.743,193.076 563.308,193.605 567.551 C 194.878 577.758,194.930 584.436,193.732 583.817 C 193.266 583.577,192.014 583.226,190.949 583.039 C 187.820 582.487,186.834 581.601,186.834 579.340 C 186.834 577.843,186.429 576.856,185.099 575.116 L 183.364 572.846 183.699 564.860 C 184.016 557.300,183.982 556.807,183.055 555.639 C 182.255 554.630,181.986 553.217,181.584 547.894 C 181.313 544.314,180.705 536.433,180.231 530.381 C 179.492 520.937,179.462 518.983,180.017 516.587 C 181.614 509.692,181.219 507.968,177.577 505.923 C 174.988 504.469,174.793 503.877,175.980 501.074 C 176.484 499.882,176.901 496.513,177.211 491.107 C 177.592 484.455,177.863 482.579,178.672 480.993 C 179.473 479.424,179.563 478.821,179.136 477.884 C 178.379 476.224,178.476 475.111,179.533 473.285 C 181.019 470.721,182.541 460.064,181.947 456.379 C 181.413 453.060,181.483 452.566,183.523 445.305 C 184.649 441.297,184.886 439.683,184.646 437.672 C 184.370 435.353,184.502 434.835,186.095 431.985 C 187.995 428.588,188.951 424.560,189.480 417.715 C 190.189 408.550,190.771 405.435,192.496 401.573 C 193.916 398.393,194.268 396.897,194.655 392.396 C 195.017 388.178,195.426 386.316,196.549 383.756 C 197.774 380.965,197.937 380.117,197.676 377.894 C 197.425 375.759,197.679 374.224,199.101 369.279 C 200.053 365.970,201.062 361.935,201.343 360.313 C 201.624 358.691,202.748 354.770,203.840 351.601 C 205.569 346.585,205.837 345.241,205.908 341.238 C 205.979 337.243,206.140 336.435,207.128 335.099 C 208.058 333.840,208.209 333.203,207.954 331.609 C 207.686 329.936,207.852 329.360,209.120 327.562 C 210.242 325.971,210.825 324.277,211.543 320.526 C 212.062 317.809,212.894 313.461,213.389 310.863 C 214.297 306.108,217.132 298.671,218.889 296.438 L 219.837 295.234 224.270 297.681 C 226.708 299.027,231.970 301.784,235.963 303.807 M300.285 307.832 C 297.115 309.112,295.990 314.735,298.418 317.163 C 301.067 319.812,307.282 319.126,309.888 315.896 C 313.145 311.857,305.731 305.631,300.285 307.832 M457.939 318.831 C 458.494 321.172,459.690 324.989,460.597 327.313 C 462.573 332.376,462.556 332.083,460.975 333.963 C 460.135 334.961,458.978 337.870,457.567 342.528 C 453.670 355.398,452.412 355.987,449.985 346.079 C 447.675 336.650,447.912 333.097,451.356 325.539 C 452.438 323.167,453.262 320.400,453.580 318.073 C 453.859 316.039,454.427 313.849,454.843 313.205 L 455.599 312.034 456.264 313.304 C 456.630 314.002,457.383 316.489,457.939 318.831 M324.540 321.078 L 322.120 321.638 321.962 323.815 C 321.484 330.408,325.959 333.418,331.937 330.524 C 340.715 326.275,334.790 318.709,324.540 321.078 M353.398 333.324 C 347.855 336.157,351.782 345.111,358.567 345.111 C 362.967 345.111,366.827 338.269,364.014 335.457 C 361.442 332.884,356.285 331.849,353.398 333.324 M378.617 344.452 C 371.137 348.191,374.188 355.487,383.241 355.510 C 388.652 355.524,390.065 352.063,387.094 346.079 L 386.012 343.901 383.107 343.780 C 381.174 343.700,379.673 343.924,378.617 344.452 M403.296 351.396 C 398.507 352.531,396.684 358.971,400.250 362.158 C 405.032 366.430,412.104 360.529,409.966 354.051 C 409.115 351.472,406.824 350.560,403.296 351.396 M429.553 364.406 C 426.108 366.507,425.259 371.123,427.843 373.706 C 432.521 378.385,443.021 371.127,439.702 365.509 C 438.368 363.250,432.495 362.612,429.553 364.406 M409.971 422.723 C 409.971 423.246,410.856 424.516,411.939 425.546 L 413.907 427.417 411.939 429.653 C 410.610 431.162,409.971 432.342,409.971 433.283 C 409.971 434.332,409.327 435.306,407.378 437.208 C 405.145 439.388,404.598 440.309,403.431 443.853 C 400.311 453.332,398.048 456.237,396.928 452.202 C 395.483 447.001,396.779 442.484,402.355 433.279 C 404.637 429.514,406.865 425.288,407.307 423.889 C 407.748 422.490,408.218 421.019,408.349 420.620 C 408.668 419.652,409.971 421.342,409.971 422.723 M174.671 440.586 C 174.462 442.250,174.088 447.096,173.842 451.355 C 173.455 458.035,173.215 459.532,172.093 462.246 C 170.936 465.045,170.742 466.353,170.337 474.105 C 169.845 483.536,169.353 487.121,168.262 489.231 C 166.969 491.731,165.783 504.801,164.805 527.348 C 164.333 538.217,163.643 544.452,162.371 549.348 C 161.396 553.100,161.181 555.089,161.181 560.376 C 161.181 569.847,160.396 571.199,149.956 579.716 C 143.326 585.125,141.465 587.142,134.453 596.520 C 131.549 600.404,127.193 605.220,121.498 610.842 C 116.779 615.501,111.634 620.933,110.065 622.913 C 108.496 624.893,103.727 630.187,99.468 634.677 C 87.429 647.367,84.015 651.251,78.837 658.147 C 71.755 667.576,72.352 667.630,66.824 657.062 C 62.160 648.147,60.818 644.320,59.779 636.980 C 59.345 633.918,58.533 629.017,57.973 626.089 C 56.586 618.840,56.675 613.148,58.294 605.518 C 58.999 602.190,60.113 594.349,60.767 588.093 C 62.244 573.985,63.249 569.015,65.552 564.443 C 67.031 561.506,67.487 559.828,68.260 554.489 C 69.331 547.088,69.416 546.804,71.239 544.512 C 72.305 543.171,72.704 541.991,73.072 539.088 C 73.366 536.771,74.114 534.142,75.063 532.088 C 75.898 530.280,78.260 524.988,80.310 520.329 C 84.295 511.276,91.373 498.939,95.584 493.708 C 96.977 491.977,98.743 489.472,99.507 488.141 C 100.272 486.810,102.650 483.543,104.791 480.881 C 106.933 478.219,109.695 474.625,110.928 472.894 C 114.302 468.162,116.275 466.581,123.435 462.871 C 127.033 461.007,132.069 458.140,134.626 456.500 C 137.183 454.861,141.346 452.677,143.877 451.647 C 149.814 449.231,154.506 446.619,157.595 444.011 C 161.050 441.094,169.595 437.711,173.804 437.595 L 175.052 437.561 174.671 440.586 M392.433 460.922 C 392.703 465.124,392.138 466.701,387.997 473.306 C 386.553 475.609,384.555 479.420,383.556 481.777 C 381.583 486.434,378.718 490.115,378.048 488.857 C 375.484 484.038,377.803 475.996,384.668 465.900 C 386.650 462.985,388.816 459.526,389.481 458.213 C 391.134 454.951,392.107 455.843,392.433 460.922 M373.497 495.977 C 373.774 498.310,373.674 498.654,372.085 500.818 C 371.144 502.100,369.288 505.469,367.961 508.304 C 362.620 519.713,359.666 524.264,358.324 523.154 C 353.632 519.271,355.354 513.185,364.646 500.813 C 367.281 497.304,370.008 493.271,370.706 491.850 L 371.975 489.266 372.587 491.366 C 372.924 492.521,373.333 494.596,373.497 495.977 M276.235 492.015 C 279.311 494.170,278.599 516.924,275.151 526.621 C 274.154 529.426,273.923 530.785,274.135 532.599 C 274.366 534.581,274.178 535.402,272.925 537.886 C 272.108 539.504,270.479 544.437,269.305 548.850 C 266.201 560.516,264.495 565.381,261.307 571.661 C 259.332 575.552,257.164 581.221,254.180 590.296 C 248.524 607.500,244.614 616.756,237.080 630.779 C 235.265 634.158,232.701 639.781,231.382 643.275 C 229.096 649.332,227.154 653.259,226.679 652.784 C 226.328 652.433,227.696 648.232,231.099 639.202 C 232.899 634.428,234.701 628.639,235.269 625.804 C 236.086 621.729,236.793 619.829,239.115 615.464 C 241.656 610.688,242.016 609.650,242.486 605.760 C 243.009 601.428,243.447 600.256,246.740 594.385 C 247.561 592.921,248.687 589.890,249.241 587.649 C 250.034 584.446,250.689 583.018,252.303 580.971 C 253.432 579.540,254.715 577.811,255.154 577.130 C 256.368 575.248,260.230 563.748,261.389 558.567 C 262.079 555.479,263.398 551.903,265.405 547.677 C 268.309 541.562,268.393 541.273,268.393 537.433 C 268.393 534.094,268.562 533.253,269.482 532.007 C 270.248 530.970,270.571 529.858,270.571 528.257 C 270.571 526.663,270.959 525.319,271.864 523.775 C 273.021 521.801,273.165 521.035,273.244 516.472 C 273.293 513.668,273.503 509.602,273.711 507.435 C 274.066 503.745,274.028 503.475,273.120 503.187 C 269.919 502.171,268.178 505.147,266.206 515.005 C 265.193 520.072,264.554 522.090,263.361 523.993 C 261.971 526.209,261.778 526.997,261.359 532.127 C 260.904 537.711,260.627 538.727,258.900 541.142 C 258.014 542.380,257.073 545.781,254.856 555.745 C 253.190 563.233,251.698 567.491,248.974 572.539 C 247.733 574.838,245.676 578.679,244.402 581.075 C 243.036 583.642,240.459 590.200,238.124 597.047 C 234.230 608.466,232.590 612.410,229.198 618.507 C 227.808 621.006,227.493 622.080,227.493 624.318 C 227.493 627.605,226.095 632.839,222.691 642.304 C 221.303 646.164,219.453 651.936,218.580 655.131 C 216.348 663.305,204.002 695.186,200.024 703.049 C 199.351 704.380,196.734 708.717,194.209 712.686 C 188.562 721.561,186.488 725.860,185.953 729.793 C 185.497 733.153,185.167 733.764,184.285 732.880 C 182.300 730.891,184.974 712.008,188.085 706.037 C 189.062 704.163,189.242 703.295,188.995 701.647 C 188.735 699.915,188.872 699.371,189.867 698.175 C 191.773 695.884,192.159 694.808,192.159 691.772 C 192.159 689.717,192.413 688.573,193.055 687.747 C 194.784 685.518,195.089 684.387,195.533 678.542 C 195.935 673.239,196.127 672.411,197.439 670.301 C 198.331 668.865,199.493 665.654,200.434 662.027 C 202.486 654.109,203.687 651.542,206.707 648.615 L 209.224 646.176 208.878 640.381 C 208.520 634.373,208.955 631.516,210.308 630.997 C 211.501 630.539,212.419 628.051,213.209 623.135 C 213.767 619.665,214.320 617.852,215.215 616.558 C 216.130 615.238,216.693 613.345,217.376 609.298 C 218.562 602.277,218.848 601.635,221.980 598.959 C 224.905 596.461,225.089 595.742,223.432 593.300 L 222.275 591.596 224.109 587.538 C 228.001 578.919,230.397 571.740,230.397 568.691 C 230.397 566.201,230.629 565.463,232.120 563.218 C 233.443 561.225,233.902 559.964,234.099 557.780 C 234.293 555.616,234.994 553.667,237.032 549.623 C 242.412 538.947,248.413 525.347,249.287 521.849 C 250.088 518.644,250.457 517.999,252.754 515.783 C 254.779 513.829,256.036 511.878,258.683 506.581 C 265.080 493.776,271.336 488.584,276.235 492.015 M372.710 527.867 C 374.127 531.148,377.462 543.433,378.735 550.059 C 380.819 560.912,382.047 563.408,385.304 563.408 C 388.561 563.408,388.949 561.248,386.924 554.386 C 386.228 552.027,385.352 548.959,384.976 547.568 C 384.280 544.987,382.324 531.842,382.596 531.570 C 382.849 531.317,388.924 541.665,391.304 546.403 C 394.937 553.636,396.561 559.013,396.659 564.134 C 396.728 567.761,396.952 568.899,397.994 570.939 C 400.484 575.813,401.569 584.914,400.787 594.385 C 399.546 609.429,398.055 615.778,397.133 609.948 C 396.979 608.976,395.782 603.153,394.472 597.008 C 393.162 590.864,391.859 583.799,391.577 581.309 C 391.022 576.409,390.605 575.508,388.891 575.508 C 385.352 575.508,385.493 580.283,389.563 598.270 C 391.521 606.922,392.032 609.578,392.279 612.389 C 392.356 613.269,392.773 615.186,393.206 616.651 C 396.153 626.614,395.005 635.600,388.664 652.227 C 386.836 657.018,385.106 661.563,384.820 662.325 L 384.300 663.710 383.048 661.841 C 382.359 660.812,381.367 659.504,380.843 658.934 C 379.996 658.012,379.570 654.714,377.024 629.408 C 373.498 594.350,372.169 582.013,370.049 564.618 C 368.976 555.816,368.491 550.047,368.664 548.161 C 368.831 546.350,368.615 543.526,368.090 540.658 C 366.437 531.621,366.614 528.337,368.911 525.416 C 370.137 523.858,371.304 524.611,372.710 527.867 M352.003 528.362 C 353.382 529.608,354.252 530.041,355.066 529.885 C 356.370 529.636,356.529 529.219,352.991 535.336 C 350.304 539.982,338.336 559.648,337.969 560.019 C 337.838 560.152,337.867 559.817,338.033 559.275 C 338.199 558.732,337.979 556.989,337.544 555.402 C 337.108 553.815,336.485 551.538,336.159 550.341 C 335.794 548.999,335.720 547.631,335.966 546.773 C 336.472 545.008,342.870 534.788,344.225 533.580 C 344.785 533.081,345.858 531.311,346.609 529.647 C 348.252 526.007,349.157 525.791,352.003 528.362 M174.087 539.060 C 174.203 542.468,174.734 549.177,175.267 553.969 C 175.800 558.761,176.368 565.592,176.528 569.150 L 176.819 575.618 175.172 575.286 C 170.967 574.440,170.051 570.968,171.589 561.713 C 171.987 559.318,172.430 553.545,172.572 548.887 C 173.090 531.961,173.709 527.946,174.087 539.060 M361.585 542.986 C 361.603 544.344,362.730 549.478,363.165 550.181 C 363.859 551.304,367.790 585.667,371.988 627.299 C 374.850 655.690,375.049 658.749,374.417 664.635 C 373.884 669.597,374.195 670.562,376.820 672.100 C 380.264 674.119,379.693 676.200,373.570 683.942 C 370.386 687.968,370.163 688.008,369.590 684.656 C 369.408 683.591,368.729 680.433,368.081 677.638 C 366.971 672.846,363.533 645.195,361.793 627.057 C 361.359 622.531,360.823 612.076,360.601 603.824 C 360.290 592.254,359.960 587.378,359.159 582.527 C 358.351 577.634,358.153 574.673,358.271 569.216 L 358.422 562.197 356.365 558.840 C 353.082 553.481,353.806 548.646,358.685 543.353 C 360.855 541.000,361.558 540.911,361.585 542.986 M333.149 561.636 C 333.625 561.802,334.879 561.641,335.936 561.276 L 337.859 560.614 336.331 563.342 C 332.797 569.649,331.464 571.593,329.803 572.860 C 328.525 573.835,327.464 575.461,325.897 578.847 C 321.818 587.657,318.933 588.263,316.321 580.859 C 314.835 576.646,315.348 575.549,322.383 567.904 C 324.678 565.411,326.837 562.507,327.598 560.890 L 328.896 558.130 330.591 559.731 C 331.522 560.612,332.674 561.469,333.149 561.636 M349.803 564.027 C 350.441 565.226,350.707 567.428,350.956 573.572 C 351.237 580.505,351.517 582.516,353.082 588.819 C 354.838 595.891,354.896 596.407,355.283 608.664 C 355.730 622.767,356.357 629.917,359.234 653.679 C 360.930 667.687,361.205 671.252,361.085 677.638 C 360.836 690.805,360.854 691.404,361.540 693.060 C 362.010 694.193,362.786 694.930,364.096 695.487 L 365.977 696.285 361.857 702.088 C 359.591 705.279,356.568 709.042,355.140 710.450 L 352.544 713.011 351.726 703.432 C 350.098 684.369,348.008 663.292,347.440 660.213 C 347.077 658.242,346.835 651.190,346.793 641.336 C 346.709 621.738,345.946 610.186,344.012 599.226 C 342.778 592.232,342.507 589.363,342.459 582.769 C 342.427 578.376,342.223 574.082,342.005 573.227 C 341.438 570.997,341.876 569.796,344.616 566.085 C 345.953 564.273,347.047 562.487,347.047 562.114 C 347.047 560.994,348.857 562.250,349.803 564.027 M270.262 576.193 C 270.431 577.634,271.102 581.065,271.753 583.816 C 272.403 586.568,273.082 590.069,273.260 591.597 L 273.585 594.374 267.485 594.259 C 264.130 594.195,261.382 594.066,261.380 593.971 C 261.345 592.754,263.430 586.781,265.669 581.681 C 267.219 578.153,268.622 574.885,268.787 574.419 C 269.350 572.838,269.953 573.563,270.262 576.193 M336.364 593.659 C 337.502 597.865,338.297 608.731,338.328 620.523 C 338.338 624.117,338.785 631.196,339.322 636.254 C 339.859 641.312,340.487 648.282,340.719 651.742 C 340.951 655.203,341.424 659.400,341.772 661.067 C 342.299 663.596,342.293 664.561,341.738 666.876 C 340.655 671.386,340.584 677.336,341.515 685.542 C 342.285 692.326,342.307 693.548,341.705 696.191 C 341.083 698.924,341.029 700.248,341.327 705.591 C 341.382 706.589,341.139 709.693,340.787 712.488 C 340.028 718.504,340.505 721.269,342.477 722.302 L 343.681 722.933 341.613 725.904 C 337.691 731.540,330.898 738.745,330.507 737.686 C 329.447 734.823,329.113 727.695,329.242 710.712 C 329.370 693.819,329.312 692.243,328.491 690.369 C 327.795 688.780,327.660 687.619,327.872 685.045 C 328.598 676.209,328.700 668.675,328.171 662.875 C 327.104 651.167,327.052 644.644,327.938 633.963 C 329.103 619.920,328.306 608.658,325.496 599.470 C 324.342 595.694,326.359 591.343,332.329 584.738 L 334.705 582.109 335.011 585.948 C 335.179 588.059,335.788 591.530,336.364 593.659 M311.201 588.698 C 311.961 591.269,312.986 592.449,314.458 592.449 L 315.600 592.449 314.079 595.474 C 310.686 602.223,303.747 611.896,303.360 610.417 C 303.217 609.871,302.284 609.234,301.005 608.810 C 294.901 606.789,296.534 599.815,305.091 591.360 C 310.599 585.917,310.403 586.002,311.201 588.698 M190.291 593.842 C 194.064 595.139,196.483 596.434,202.952 600.616 L 208.663 604.308 208.350 606.485 C 208.177 607.683,207.221 610.841,206.224 613.504 C 204.449 618.246,203.380 622.212,202.311 628.025 C 200.458 638.102,199.293 638.613,190.712 633.111 C 188.256 631.536,184.860 629.786,183.166 629.223 C 177.148 627.220,176.222 624.048,179.513 616.714 C 181.541 612.197,182.479 608.592,183.687 600.678 C 184.964 592.312,185.184 592.084,190.291 593.842 M265.489 602.320 C 273.764 603.031,275.849 604.961,275.884 611.943 C 275.894 613.975,276.046 614.312,277.139 614.727 C 279.976 615.806,283.156 613.237,283.156 609.867 C 283.156 608.003,283.162 607.996,285.455 607.688 C 286.720 607.519,288.764 607.101,289.998 606.760 L 292.242 606.140 292.461 608.370 C 292.581 609.597,293.477 612.435,294.452 614.679 C 298.120 623.119,295.753 624.994,286.761 620.769 C 283.368 619.176,282.428 618.951,278.800 618.863 C 275.183 618.776,273.557 618.389,265.344 615.663 L 256.002 612.561 256.324 610.654 C 256.621 608.900,258.043 604.426,259.411 600.943 L 259.973 599.515 261.037 600.772 C 261.934 601.832,262.632 602.074,265.489 602.320 M317.585 623.797 C 318.871 635.754,319.240 640.417,320.471 660.213 C 320.777 665.138,321.078 680.058,321.140 693.369 C 321.214 709.375,321.467 719.510,321.888 723.300 C 322.463 728.490,322.445 729.246,321.694 731.333 C 320.897 733.552,320.902 733.729,321.835 736.096 L 322.804 738.555 321.775 740.433 C 320.815 742.187,320.796 742.412,321.496 743.815 C 322.947 746.723,319.789 750.118,311.471 754.593 C 309.342 755.739,306.891 757.200,306.026 757.840 C 305.161 758.480,304.453 758.829,304.453 758.616 C 304.453 758.403,304.127 756.703,303.729 754.840 C 302.670 749.887,301.793 722.107,302.552 717.602 C 303.356 712.839,303.260 708.678,302.279 705.725 C 301.563 703.568,301.487 702.165,301.769 696.343 C 302.071 690.137,301.985 688.908,300.856 683.204 C 299.610 676.915,298.412 639.903,299.334 636.226 C 299.643 634.996,301.533 634.588,302.902 635.456 C 303.710 635.969,303.874 643.599,303.310 654.405 C 302.925 661.776,302.990 663.044,304.155 670.877 C 305.199 677.898,305.396 680.783,305.298 687.581 L 305.179 695.799 307.536 700.392 C 308.832 702.919,310.070 705.178,310.287 705.413 C 310.828 706.000,312.477 703.170,313.659 699.626 L 314.639 696.687 313.615 694.372 C 312.656 692.204,312.626 691.757,313.140 687.334 C 313.741 682.163,313.462 679.369,311.565 671.588 C 310.541 667.387,310.508 666.445,310.620 645.208 C 310.763 618.110,311.427 612.619,314.714 611.376 C 316.273 610.787,316.111 610.086,317.585 623.797 M258.995 623.866 C 260.970 624.907,263.402 625.911,264.400 626.098 C 266.794 626.547,266.736 626.741,263.134 630.303 C 259.880 633.520,258.942 635.066,256.809 640.721 C 255.285 644.763,253.326 647.144,251.527 647.144 C 250.662 647.144,249.821 647.743,248.696 649.160 C 244.225 654.790,243.560 655.097,239.562 653.377 C 236.556 652.084,236.478 651.115,239.119 647.918 C 240.801 645.883,241.024 645.343,240.762 643.946 C 240.500 642.552,240.859 641.677,243.362 637.597 C 247.018 631.639,247.985 629.681,248.978 626.233 C 250.371 621.392,253.082 620.751,258.995 623.866 M192.686 646.198 C 195.559 647.664,195.544 649.685,192.605 657.540 L 191.605 660.213 187.322 660.213 C 180.007 660.213,161.089 666.527,158.196 669.935 C 157.166 671.147,155.941 671.741,152.146 672.869 C 144.804 675.051,139.868 678.607,138.693 682.563 C 137.833 685.462,137.190 686.350,135.954 686.350 C 131.939 686.350,115.421 712.114,111.128 725.073 C 101.806 753.214,106.179 774.508,127.139 803.038 C 136.172 815.333,138.196 820.684,138.108 832.043 C 138.041 840.690,137.446 843.051,135.030 844.255 C 132.577 845.478,131.761 846.735,131.401 849.843 C 131.224 851.367,130.660 853.446,130.148 854.462 C 128.295 858.137,118.862 873.094,114.178 879.785 C 108.156 888.385,107.145 890.583,106.278 896.954 C 105.902 899.721,105.002 903.618,104.278 905.615 C 101.209 914.078,102.912 923.287,111.140 942.718 C 116.290 954.880,116.910 958.607,115.232 967.328 C 114.351 971.912,114.203 972.245,112.457 973.621 C 106.553 978.270,105.831 980.811,109.794 982.991 C 117.465 987.210,126.619 981.646,132.799 969.009 C 137.679 959.031,138.363 953.477,136.443 939.450 C 134.444 924.852,136.471 912.408,142.784 900.532 C 149.252 888.364,148.510 889.343,151.888 888.509 C 154.056 887.974,154.188 887.843,154.714 885.713 C 155.615 882.063,157.836 879.864,165.621 874.913 C 166.332 874.461,167.715 872.928,168.693 871.508 C 170.776 868.484,172.389 867.261,180.542 862.521 C 188.658 857.802,189.384 857.195,192.014 852.917 C 193.263 850.887,195.199 847.919,196.316 846.321 C 201.930 838.292,202.843 835.122,203.149 822.604 C 203.433 810.954,202.696 804.291,200.098 795.015 C 196.494 782.151,196.394 781.649,196.371 776.379 C 196.350 771.580,196.475 770.920,198.622 764.521 C 201.522 755.876,201.161 756.359,204.747 756.322 C 207.986 756.288,209.100 755.514,209.100 753.296 C 209.100 749.753,221.248 754.776,223.340 759.184 C 224.410 761.438,224.145 762.541,221.409 767.226 C 218.643 771.962,218.649 773.051,221.451 775.736 C 223.973 778.153,224.745 778.264,227.872 776.661 C 240.086 770.401,244.419 759.589,243.793 736.931 C 243.355 721.066,241.796 715.563,234.162 702.947 C 231.873 699.163,229.747 695.301,229.438 694.363 C 228.852 692.590,227.927 691.719,223.863 689.112 C 220.465 686.934,220.469 686.009,223.896 680.976 C 225.732 678.281,226.728 676.291,226.895 674.989 C 227.171 672.822,228.362 670.212,230.491 667.104 C 231.268 665.969,232.179 664.247,232.515 663.276 L 233.126 661.510 234.242 663.315 C 234.855 664.308,238.524 669.189,242.394 674.162 C 253.244 688.105,258.015 695.811,258.723 700.531 C 258.963 702.134,259.785 703.838,261.482 706.255 C 264.758 710.919,265.489 712.745,266.894 719.770 C 267.557 723.086,268.533 727.650,269.062 729.913 C 275.130 755.834,269.361 774.200,251.229 786.687 C 244.916 791.036,240.872 794.781,237.127 799.752 L 234.216 803.615 234.538 806.198 C 234.778 808.116,234.636 809.405,233.986 811.212 C 232.913 814.196,233.420 818.023,236.030 826.653 C 238.526 834.902,240.604 838.205,249.934 848.742 C 258.900 858.869,260.790 866.799,256.954 878.210 C 253.604 888.176,241.368 905.763,231.320 915.053 C 227.948 918.171,227.892 917.828,230.116 907.728 C 232.361 897.535,232.967 892.025,232.362 887.299 C 229.205 862.622,200.667 857.929,186.267 879.719 C 165.607 910.982,164.788 914.140,172.861 931.403 C 181.900 950.734,182.807 959.044,177.546 974.320 C 171.966 990.519,165.520 997.932,150.774 1005.106 C 140.406 1010.150,134.680 1010.542,118.682 1007.302 C 98.177 1003.150,86.093 1003.727,74.305 1009.423 C 71.819 1010.624,68.187 1012.181,66.233 1012.884 C 60.469 1014.957,58.912 1016.350,52.772 1024.927 C 51.438 1026.791,49.457 1029.529,48.370 1031.013 C 46.725 1033.258,46.326 1034.259,45.987 1036.993 C 45.695 1039.350,45.147 1040.973,44.045 1042.745 C 39.028 1050.816,42.112 1070.290,51.171 1087.747 C 54.046 1093.286,54.086 1093.417,52.928 1093.417 C 50.107 1093.417,47.426 1090.934,44.947 1086.023 C 44.144 1084.432,42.554 1082.123,41.414 1080.892 C 39.153 1078.450,35.894 1073.030,33.069 1067.011 L 31.264 1063.166 30.957 1054.695 C 30.727 1048.373,30.445 1045.768,29.846 1044.425 C 28.809 1042.105,28.832 1040.554,29.997 1034.366 C 30.522 1031.571,31.163 1026.779,31.420 1023.717 C 32.099 1015.639,34.159 1009.871,42.613 992.374 C 49.919 977.252,55.359 969.941,71.699 953.285 C 86.887 937.803,88.376 935.061,88.258 922.798 C 88.109 907.474,86.103 904.067,74.479 899.395 C 71.714 898.284,68.146 896.506,66.550 895.445 C 62.273 892.599,61.169 892.352,52.759 892.357 C 35.757 892.368,21.272 899.251,13.718 910.908 C 12.758 912.389,11.512 914.308,10.948 915.171 C 8.948 918.233,7.950 916.615,8.039 910.455 C 8.154 902.436,15.276 888.567,23.947 879.477 C 26.105 877.214,28.367 874.655,28.973 873.790 C 29.752 872.679,30.458 872.217,31.375 872.217 C 32.090 872.217,34.090 871.813,35.820 871.320 C 37.549 870.826,39.983 870.271,41.229 870.085 C 42.475 869.900,44.058 869.304,44.748 868.762 C 45.903 867.853,46.190 867.824,48.428 868.398 C 51.010 869.060,51.599 868.962,57.115 866.964 C 58.579 866.434,61.955 865.764,64.618 865.475 C 74.495 864.403,78.594 862.499,84.306 856.330 C 92.591 847.381,94.359 837.718,89.546 827.687 C 87.326 823.059,86.543 820.839,86.215 818.248 C 85.861 815.442,85.119 813.528,81.897 807.115 C 70.216 783.860,66.288 760.164,70.722 739.699 C 74.634 721.645,83.344 699.866,89.043 693.889 C 90.969 691.869,92.480 689.615,93.868 686.689 C 97.573 678.877,108.272 669.087,115.188 667.180 C 117.529 666.535,119.322 665.554,122.263 663.310 C 127.190 659.551,127.738 659.272,135.349 656.649 C 143.755 653.752,145.979 652.738,148.935 650.458 C 153.478 646.953,164.185 645.671,180.180 646.716 C 187.551 647.197,187.846 647.180,189.078 646.211 C 190.623 644.996,190.331 644.997,192.686 646.198 M188.245 668.890 C 189.219 669.506,186.373 683.796,184.850 685.935 C 184.215 686.826,183.749 688.300,183.670 689.663 C 183.582 691.178,182.890 693.154,181.557 695.694 C 180.466 697.771,179.567 700.167,179.559 701.018 C 179.529 703.957,178.270 701.131,177.377 696.122 C 176.917 693.543,176.106 689.364,175.575 686.834 C 175.043 684.305,174.470 681.038,174.301 679.574 C 174.132 678.110,173.615 676.373,173.153 675.715 C 171.922 673.960,172.113 673.000,173.996 671.487 C 177.047 669.037,185.921 667.419,188.245 668.890 M165.954 678.054 C 168.248 680.348,169.359 683.739,171.121 693.815 C 171.808 697.743,172.570 701.482,172.814 702.124 C 173.058 702.766,173.131 703.924,172.976 704.698 C 172.740 705.880,173.033 706.472,174.803 708.395 C 177.572 711.402,177.590 716.305,174.857 723.259 L 174.143 725.076 172.071 718.903 C 170.930 715.508,168.692 709.463,167.097 705.470 C 160.677 689.401,158.155 678.534,160.454 676.853 C 162.109 675.642,163.942 676.043,165.954 678.054 M153.921 681.531 C 153.921 686.141,156.290 694.276,161.667 708.132 C 167.603 723.425,169.208 728.664,169.601 734.027 C 170.059 740.274,177.594 758.987,183.708 769.062 C 186.213 773.189,186.773 774.947,188.740 784.850 C 189.605 789.203,190.942 794.051,192.080 796.956 C 195.870 806.631,196.430 822.575,193.295 831.559 C 192.918 832.640,189.942 826.457,185.376 815.102 C 181.326 805.028,179.014 800.030,176.769 796.492 C 169.594 785.184,165.497 775.005,153.183 737.899 C 148.059 722.459,142.534 706.651,140.907 702.770 C 137.071 693.623,137.067 693.640,144.336 686.517 C 150.542 680.435,153.921 678.677,153.921 681.531 M217.182 700.266 C 220.423 705.338,226.932 723.995,226.231 726.204 C 225.757 727.697,226.499 731.155,227.531 732.262 C 230.986 735.971,235.017 729.565,231.965 725.216 C 231.443 724.472,230.857 722.991,230.663 721.926 C 230.156 719.133,227.824 712.020,225.582 706.430 L 223.645 701.597 225.309 703.472 C 233.659 712.881,238.215 737.782,234.507 753.751 C 233.528 757.968,233.383 758.106,232.141 756.004 C 231.654 755.180,228.809 751.961,225.818 748.851 C 220.408 743.225,217.812 739.824,217.812 738.363 C 217.812 737.942,216.832 734.598,215.634 730.933 C 214.436 727.267,213.455 723.523,213.455 722.613 C 213.454 721.627,212.652 719.401,211.468 717.101 C 208.899 712.112,208.877 710.834,211.304 707.436 C 213.990 703.674,215.392 700.890,215.392 699.317 C 215.392 697.540,215.464 697.578,217.182 700.266 M136.515 707.890 C 137.904 711.350,143.235 726.815,148.362 742.256 C 157.681 770.322,161.699 780.923,166.983 791.384 C 168.529 794.446,171.799 801.307,174.250 806.631 C 176.700 811.955,180.522 820.245,182.743 825.052 C 184.963 829.859,187.268 835.280,187.865 837.098 L 188.950 840.403 187.637 842.912 C 186.914 844.291,185.334 846.385,184.125 847.565 L 181.926 849.710 178.906 846.535 C 176.505 844.012,175.549 842.521,174.247 839.274 C 173.346 837.027,170.473 831.096,167.862 826.094 C 162.487 815.797,163.199 817.035,157.567 808.199 C 152.713 800.583,150.431 795.448,139.338 767.183 C 137.719 763.057,135.032 756.849,133.367 753.388 C 131.703 749.927,130.177 746.551,129.976 745.886 C 129.775 745.220,129.000 743.587,128.253 742.256 C 127.506 740.924,126.546 738.482,126.120 736.829 C 125.695 735.175,124.462 732.017,123.382 729.810 C 120.776 724.489,120.878 721.560,123.875 715.650 C 125.633 712.182,133.447 701.045,133.841 701.446 C 133.922 701.529,135.125 704.429,136.515 707.890 M206.462 722.773 C 206.917 724.171,207.579 725.859,207.932 726.525 C 208.916 728.380,212.488 739.885,212.488 741.200 C 212.488 742.566,205.723 743.514,203.099 742.516 C 200.036 741.352,197.401 743.178,195.794 747.580 C 195.308 748.911,193.845 752.797,192.543 756.215 C 191.242 759.634,190.019 763.663,189.826 765.170 L 189.476 767.909 186.507 762.101 C 184.875 758.906,182.545 754.049,181.331 751.306 L 179.123 746.320 184.352 746.651 L 189.580 746.982 191.141 745.587 C 192.280 744.569,192.777 743.635,192.978 742.136 C 193.355 739.325,195.545 735.143,200.867 727.067 C 206.125 719.090,205.434 719.620,206.462 722.773 M121.485 741.409 C 123.147 744.803,124.939 748.883,125.467 750.476 C 129.185 761.682,135.614 777.542,139.918 786.128 C 141.501 789.287,143.670 794.062,144.736 796.739 C 146.993 802.405,149.249 806.996,150.786 809.051 C 151.383 809.850,153.955 814.642,156.501 819.700 C 159.048 824.758,162.449 830.966,164.059 833.495 C 165.969 836.494,167.412 839.478,168.211 842.078 C 169.093 844.949,170.105 846.947,171.831 849.228 C 175.267 853.767,175.432 854.151,174.531 855.526 C 173.438 857.195,170.940 859.077,166.390 861.661 C 161.923 864.197,160.912 863.905,164.068 860.991 C 166.533 858.715,166.479 858.129,163.343 853.097 C 160.519 848.566,158.707 844.463,156.823 838.335 C 154.992 832.377,153.937 830.181,150.104 824.344 C 148.544 821.967,145.599 816.603,143.560 812.424 C 139.495 804.091,138.460 802.431,133.312 795.983 C 119.313 778.451,113.215 758.064,116.487 739.742 C 117.535 733.878,117.850 733.983,121.485 741.409 M151.252 844.579 C 154.495 854.025,156.061 857.590,158.638 861.393 C 161.417 865.494,161.509 866.046,159.666 867.597 C 157.300 869.588,149.577 873.334,149.371 872.590 C 147.392 865.448,146.248 862.176,144.526 858.723 C 141.389 852.432,141.392 852.589,144.263 846.516 C 146.093 842.643,146.821 840.473,147.018 838.308 C 147.393 834.170,147.973 835.028,151.252 844.579 M140.311 866.359 C 145.235 877.041,144.416 884.121,137.364 891.837 C 136.099 893.221,134.632 895.362,134.103 896.596 C 132.979 899.217,132.708 899.404,133.010 897.349 C 133.509 893.946,131.365 884.862,128.654 878.899 C 126.902 875.046,127.017 874.206,129.746 870.945 C 130.831 869.648,132.365 867.181,133.154 865.463 C 135.885 859.514,137.234 859.683,140.311 866.359 M122.250 884.177 C 123.718 885.646,124.344 887.936,125.349 895.518 C 125.891 899.607,126.674 904.042,127.090 905.373 C 128.544 910.029,128.689 912.381,127.938 919.167 C 127.540 922.761,127.296 927.817,127.394 930.401 C 127.675 937.761,124.857 934.301,123.173 925.218 C 122.728 922.822,121.102 917.371,119.559 913.106 C 114.680 899.615,114.482 894.916,118.457 886.980 C 120.426 883.049,120.826 882.754,122.250 884.177 M114.878 923.118 C 115.512 925.338,116.164 927.916,116.326 928.848 L 116.622 930.542 115.690 928.848 C 114.430 926.560,112.443 920.393,112.103 917.715 L 111.826 915.537 112.776 917.310 C 113.299 918.285,114.245 920.899,114.878 923.118 M128.455 946.861 C 128.511 955.628,125.462 963.112,124.721 956.026 C 124.556 954.452,123.653 951.014,122.714 948.387 C 121.775 945.760,121.007 943.556,121.007 943.490 C 121.007 943.423,122.096 943.369,123.427 943.369 C 125.154 943.369,126.090 943.112,126.694 942.473 C 128.032 941.059,128.425 942.037,128.455 946.861 " stroke="none" fill="#000000" fill-rule="evenodd"></path></g></svg>